<svg width="32" xmlns="http://www.w3.org/2000/svg" height="32" fill="none"><defs><clipPath id="a" class="frame-clip frame-clip-def"><rect rx="0" ry="0" width="32" height="32"/></clipPath></defs><g clip-path="url(#a)"><g class="fills"><rect width="32" height="32" class="frame-background" style="fill: rgb(230, 196, 115); fill-opacity: 1;" ry="0" rx="0"/></g><g class="frame-children"><path d="M15.78 4C14.486 5.11 5.376 13.48 5.376 22.405c0 3.7 2.45 5.595 4.67 5.595 2.729 0 3.468-.971 6.104-.971 2.274 0 3.006.971 5.503.971 2.453 0 4.971-1.557 4.971-5.457C26.624 13.154 17.26 5.202 15.78 4Zm.128 6.566a3.077 3.077 0 1 1-3.076 3.076 3.077 3.077 0 0 1 3.076-3.076Z" style="fill: rgb(31, 31, 31); fill-opacity: 1;" class="fills"/></g></g><g class="strokes"><g class="inner-stroke-shape"><defs><clipPath id="c"><use href="#b"/></clipPath><rect width="32" height="32" class="frame-background" x="0" id="b" style="fill: none; stroke-width: 2; stroke: rgb(31, 31, 31); stroke-opacity: 1;" ry="0" rx="0" y="0"/></defs><use href="#b" clip-path="url('#c')"/></g></g></svg>