<svg width="160" height="89" viewBox="0 0 160 89" fill="none" xmlns="http://www.w3.org/2000/svg">
<path d="M63.9261 6.97164V28H60.0859L50.9374 14.7649H50.7834V28H46.3374V6.97164H50.2392L59.3159 20.1965H59.5007V6.97164H63.9261ZM72.7682 6.97164V28H68.3222V6.97164H72.7682ZM95.7027 14.3336H91.2055C91.1233 13.7518 90.9556 13.235 90.7023 12.7832C90.4491 12.3246 90.1239 11.9344 89.7269 11.6127C89.3299 11.2909 88.8713 11.0445 88.351 10.8734C87.8376 10.7023 87.2798 10.6167 86.6774 10.6167C85.589 10.6167 84.6409 10.8871 83.8332 11.4278C83.0255 11.9618 82.3991 12.7421 81.9542 13.7689C81.5093 14.7888 81.2868 16.0278 81.2868 17.4858C81.2868 18.9849 81.5093 20.2444 81.9542 21.2644C82.406 22.2843 83.0357 23.0544 83.8435 23.5746C84.6512 24.0948 85.5856 24.3549 86.6466 24.3549C87.2421 24.3549 87.7931 24.2762 88.2997 24.1188C88.8131 23.9613 89.2683 23.732 89.6653 23.4308C90.0623 23.1228 90.3909 22.7498 90.651 22.3117C90.918 21.8736 91.1028 21.3739 91.2055 20.8126L95.7027 20.8331C95.5864 21.7983 95.2955 22.7292 94.83 23.6259C94.3714 24.5158 93.7519 25.3133 92.9715 26.0183C92.198 26.7165 91.2739 27.271 90.1992 27.6817C89.1314 28.0856 87.9232 28.2875 86.5747 28.2875C84.6991 28.2875 83.0221 27.8631 81.5435 27.0143C80.0718 26.1655 78.9081 24.9368 78.0525 23.3282C77.2037 21.7196 76.7793 19.7721 76.7793 17.4858C76.7793 15.1927 77.2105 13.2418 78.073 11.6332C78.9355 10.0246 80.106 8.7993 81.5846 7.95734C83.0631 7.10854 84.7265 6.68414 86.5747 6.68414C87.7931 6.68414 88.9226 6.85527 89.9631 7.19753C91.0104 7.53979 91.9379 8.03948 92.7456 8.69662C93.5534 9.34691 94.2105 10.1444 94.717 11.089C95.2304 12.0336 95.559 13.1152 95.7027 14.3336ZM99.6137 28V6.97164H113.783V10.6372H104.06V15.6479H113.054V19.3135H104.06V24.3344H113.824V28H99.6137Z" fill="#1F1F1F"/>
<path fill-rule="evenodd" clip-rule="evenodd" d="M77.6513 35.3151C80.9933 35.0053 88.6128 34.9799 92.2229 35.0092V39.2301H89.2381V60.7439C90.2216 60.7439 92.1066 60.869 92.9262 60.9316V64.9073C86.1991 64.6188 79.2249 64.7871 76.5787 64.9073V61.0748L79.9188 60.9316L79.751 39.363H78.1049C77.5061 39.363 77.0207 38.8776 77.0207 38.2787V36.0191C77.0207 35.6557 77.2895 35.3486 77.6513 35.3151ZM129.415 41.4222C125.353 39.9228 119.38 38.6415 116.245 38.0635C115.771 37.9763 115.295 38.217 115.161 38.6793C114.812 39.8859 114.787 41.3777 114.837 42.244C114.846 42.4031 114.963 42.5329 115.119 42.5665C116.591 42.8833 117.582 43.1983 117.906 43.3218C117.98 47.3819 118.129 56.0308 118.129 58.1465C118.129 60.8939 116.24 64.3669 112.468 64.3669C109.935 64.3669 108.258 63.1253 107.737 62.5045C107.802 62.4377 107.872 62.368 107.946 62.2941L107.946 62.2938C108.742 61.5026 110.009 60.2433 110.009 57.1781C110.009 53.6864 107.376 51.2556 104.087 51.2556C102.336 51.2556 98.5368 53.4315 98.5368 58.1465C98.5368 64.6649 108.407 68.5015 116.528 68.5015C124.648 68.5015 126.51 63.1378 126.51 59.0032C126.51 55.6956 126.709 48.2137 126.808 44.8862L129.415 45.6685V41.4222ZM139.157 45.6424V48.2701L141.953 49.5641L131.6 70.1073L128.504 69.1136V72.4619L136.777 74.9409V71.8162L134.72 71.124L137.216 66.8721L147.753 72.7185L148.885 77.8947L145.812 75.8675C145.698 75.7919 145.544 75.8668 145.533 76.0037L145.234 79.674L159.453 88.1744C159.694 88.3184 160 88.1448 160 87.8641V84.8964C160 84.8964 158.683 83.7256 158.406 83.5562L152.929 54.1858L155.082 55.3799C155.443 55.5803 155.887 55.319 155.887 54.9058V51.7594C150.763 49.0628 143.765 46.3021 140.118 44.9659C139.649 44.7941 139.157 45.1432 139.157 45.6424ZM138.684 63.2953L143.84 53.3751C143.919 53.2233 144.145 53.256 144.178 53.424L146.867 67.2543C146.926 67.554 146.609 67.7865 146.341 67.6411L138.758 63.5376C138.672 63.4906 138.639 63.3828 138.684 63.2953ZM52.4145 38.6506L37.1976 43.1801V46.7031L41.2239 45.6965V63.0154C41.2239 64.9101 41.9936 70.1205 47.2633 70.1205C51.8224 70.1205 59.0707 67.8751 59.0707 67.8751C64.3463 66.1204 67.3058 63.9331 67.3058 57.1536V39.7163L70.5031 39.0354V35.6309L60.6151 37.4368V41.0782L63.8716 40.3677V58.1306C63.8716 60.1593 63.1043 62.0754 60.5634 63.3516C60.5634 63.3516 56.6451 65.147 54.9605 65.147C49.9277 65.147 49.3948 61.8312 49.3948 59.6405V43.7722L52.1777 42.7657L52.4145 38.6506ZM33.5272 61.9962C33.5272 71.2049 24.4313 83.308 13.2681 83.308C4.96144 83.308 0 77.5195 0 70.1526C0 61.3197 9.02078 48.1645 21.0485 48.1645C26.8744 48.1645 33.5272 52.7876 33.5272 61.9962ZM24.0554 65.1156C24.0554 71.7309 21.0861 78.6468 17.8536 78.6468C11.088 78.6468 8.94564 68.1601 8.94564 64.627C8.94564 54.441 14.546 51.9227 15.7864 51.9227C19.8457 51.9227 24.0554 56.5083 24.0554 65.1156Z" fill="#1F1F1F"/>
</svg>
