<svg width="120" height="129" viewBox="0 0 120 129" fill="none" xmlns="http://www.w3.org/2000/svg">
<g clip-path="url(#clip0_25_8646)">
<mask id="mask0_25_8646" style="mask-type:luminance" maskUnits="userSpaceOnUse" x="0" y="0" width="120" height="129">
<path d="M0 129H120V0.60791H0V129Z" fill="white"/>
</mask>
<g mask="url(#mask0_25_8646)">
<path fill-rule="evenodd" clip-rule="evenodd" d="M57.696 132.022L56.6081 132.575C60.2494 135.14 64.6902 136.647 69.4829 136.647C81.8437 136.647 91.8639 126.626 91.8639 114.266C91.8639 112.148 91.57 110.099 91.0204 108.158C95.0087 105.581 98.2693 101.973 100.425 97.7128C101.197 98.9361 101.821 100.263 102.27 101.667L101.335 101.586C101.22 101.577 101.118 101.662 101.108 101.778C101.098 101.893 101.184 101.994 101.299 102.005L102.402 102.099C102.533 102.548 102.646 103.004 102.741 103.467L99.9887 103.231C99.8731 103.221 99.7716 103.306 99.7617 103.422C99.7516 103.537 99.8372 103.639 99.9526 103.649L102.823 103.895C102.901 104.336 102.963 104.782 103.008 105.233L98.8462 104.875C98.7306 104.865 98.629 104.951 98.6192 105.066C98.6091 105.182 98.6947 105.283 98.8101 105.293L103.045 105.657C103.065 105.93 103.079 106.206 103.086 106.483C104.048 106.982 104.982 107.528 105.884 108.118L102.804 107.854C102.689 107.844 102.587 107.929 102.577 108.045C102.567 108.16 102.653 108.262 102.768 108.272L106.6 108.601C107.296 109.083 107.972 109.593 108.626 110.127L103.743 109.708C103.627 109.698 103.526 109.784 103.516 109.899C103.506 110.014 103.591 110.116 103.707 110.126L109.188 110.597C109.798 111.118 110.388 111.662 110.957 112.227L103.212 111.562C103.097 111.552 102.995 111.638 102.985 111.753C102.975 111.868 103.061 111.97 103.176 111.98L111.411 112.687C111.919 113.213 112.41 113.755 112.881 114.314L99.9887 113.206C99.8731 113.196 99.7716 113.282 99.7617 113.397C99.7516 113.513 99.8372 113.615 99.9526 113.624L113.257 114.767C113.75 115.373 114.221 115.998 114.67 116.639L101.784 115.532C101.668 115.522 101.567 115.608 101.557 115.723C101.547 115.839 101.633 115.94 101.748 115.95L114.977 117.087C115.32 117.595 115.649 118.114 115.964 118.643L101.335 117.386C101.22 117.376 101.118 117.462 101.108 117.577C101.098 117.693 101.184 117.794 101.299 117.804L116.222 119.086C116.504 119.579 116.774 120.08 117.031 120.589L101.335 119.24C101.22 119.23 101.118 119.316 101.108 119.431C101.098 119.547 101.184 119.649 101.299 119.658L117.248 121.029C117.493 121.532 117.724 122.043 117.942 122.561L100.875 121.094C100.759 121.085 100.658 121.17 100.648 121.285C100.638 121.401 100.723 121.503 100.839 121.512L118.123 122.997C118.376 123.624 118.611 124.261 118.825 124.907L101.518 123.421C101.402 123.411 101.301 123.496 101.291 123.612C101.281 123.727 101.367 123.829 101.482 123.839L118.966 125.341C119.161 125.956 119.337 126.58 119.495 127.212L102.441 125.746C102.325 125.737 102.224 125.822 102.214 125.938C102.204 126.053 102.289 126.155 102.405 126.165L119.6 127.642C119.741 128.242 119.866 128.849 119.974 129.462L102.581 127.968C102.465 127.958 102.364 128.044 102.354 128.159C102.344 128.275 102.429 128.376 102.545 128.386L120.045 129.89C120.316 131.57 120.457 133.293 120.457 135.05C120.457 152.813 106.057 167.213 88.2942 167.213C70.531 167.213 56.131 152.813 56.131 135.05C56.131 134.286 56.1576 133.528 56.2101 132.777L46.3233 137.799L34.5948 136.772C36.3663 134.002 37.3932 130.71 37.3932 127.178C37.3932 118.403 31.0556 111.109 22.7085 109.623C22.1754 102.786 17.2716 97.176 10.7888 95.5845C11.3505 94.1854 11.6595 92.6575 11.6595 91.0577C11.6595 87.3521 10.0018 84.0337 7.38741 81.8038H5.85034C5.89956 81.8376 5.94848 81.8718 5.99711 81.9064C5.98987 81.9259 5.9854 81.9467 5.98423 81.9685C5.97789 82.0841 6.06655 82.1831 6.18223 82.1894L6.39254 82.201C6.60445 82.3661 6.81028 82.5385 7.00962 82.7181L6.76939 82.7049C6.65371 82.6986 6.55479 82.7873 6.54846 82.9029C6.54212 83.0187 6.63078 83.1175 6.74648 83.1238L7.47688 83.1639C7.72395 83.4135 7.9594 83.6745 8.18232 83.9464L7.70258 83.9202C7.58688 83.9139 7.48796 84.0024 7.48165 84.1182C7.47529 84.2338 7.56397 84.3328 7.67965 84.3391L8.52458 84.3853C8.77016 84.717 8.99788 85.0625 9.20637 85.4206L7.96299 85.3524C7.84729 85.3461 7.74837 85.4349 7.74206 85.5505C7.73572 85.6663 7.82438 85.7651 7.94006 85.7716L9.44595 85.8538C9.59904 86.1458 9.73962 86.4452 9.86702 86.7515L6.50897 86.5677C6.3933 86.5614 6.29438 86.6502 6.28804 86.7658C6.28171 86.8816 6.37037 86.9804 6.48607 86.9867L10.0353 87.181C10.1971 87.6205 10.3322 88.073 10.4386 88.5364L7.37704 88.369C7.26137 88.3627 7.16245 88.4512 7.15611 88.567C7.14978 88.6826 7.23844 88.7817 7.35414 88.7879L10.5275 88.9617C10.5913 89.2992 10.64 89.6424 10.6728 89.99L7.22514 89.8014C7.10944 89.7949 7.01054 89.8837 7.00421 89.9993C6.99787 90.1151 7.08653 90.2139 7.20221 90.2204L10.7047 90.4119C10.7168 90.6257 10.723 90.841 10.723 91.0577C10.723 91.2985 10.7154 91.5377 10.7004 91.7749L7.55067 91.6025C7.43497 91.5962 7.33607 91.6849 7.32974 91.8005C7.3234 91.9163 7.41206 92.0152 7.52774 92.0214L10.6662 92.1933C10.6326 92.5275 10.5844 92.8572 10.5221 93.1822L7.83279 93.0349C7.71709 93.0286 7.61818 93.1174 7.61186 93.233C7.60553 93.3486 7.69418 93.4476 7.80986 93.4539L10.4343 93.5976C10.3604 93.9169 10.2728 94.2312 10.1722 94.5396L8.85277 94.4674C8.73709 94.4611 8.63818 94.5496 8.63184 94.6654C8.62551 94.781 8.71416 94.88 8.82986 94.8863L10.0288 94.9518C9.90959 95.274 9.77604 95.5891 9.62891 95.8965L7.7026 95.791C7.5869 95.7847 7.48798 95.8734 7.48167 95.989C7.47533 96.1048 7.56399 96.2036 7.67967 96.2099L9.42277 96.3054C9.41335 96.3232 9.40389 96.3408 9.39437 96.3586C10.4941 96.5368 11.5528 96.837 12.5563 97.245L10.1766 97.1147C10.0609 97.1084 9.962 97.1972 9.95566 97.3128C9.94933 97.4286 10.038 97.5274 10.1537 97.5337L13.6101 97.7229C14.2495 98.0439 14.8622 98.4102 15.444 98.8176L10.5021 98.5472C10.3864 98.5409 10.2875 98.6294 10.2812 98.7452C10.2748 98.8608 10.3635 98.9598 10.4792 98.9661L16.0576 99.2714C16.4832 99.6035 16.8901 99.9586 17.2763 100.335L10.7842 99.9794C10.6685 99.9731 10.5696 100.062 10.5633 100.177C10.557 100.293 10.6456 100.392 10.7613 100.398L17.7136 100.779C18.0674 101.154 18.4017 101.547 18.7149 101.958L11.5132 101.564C11.3975 101.557 11.2985 101.646 11.2922 101.762C11.2859 101.877 11.3746 101.976 11.4902 101.982L19.0364 102.396C19.3453 102.833 19.6309 103.288 19.8914 103.759L13.488 103.408C13.3723 103.402 13.2734 103.491 13.2671 103.606C13.2607 103.722 13.3494 103.821 13.4651 103.827L20.1215 104.192C20.3009 104.543 20.4665 104.902 20.6177 105.269L10.797 104.732C10.6813 104.726 10.5824 104.814 10.5761 104.93C10.5697 105.046 10.6584 105.145 10.7741 105.151L20.7867 105.699C20.8896 105.973 20.9846 106.251 21.0713 106.533L8.30805 106.174C8.19223 106.171 8.0957 106.262 8.09245 106.378C8.0892 106.494 8.18046 106.591 8.29626 106.594L21.1946 106.956C21.3088 107.371 21.4053 107.793 21.4831 108.222L7.28805 107.824C7.17225 107.821 7.0757 107.912 7.07247 108.028C7.06922 108.143 7.16046 108.24 7.27628 108.243L21.5532 108.644C21.6151 109.052 21.66 109.465 21.6877 109.884L7.07105 109.473C6.95522 109.47 6.8587 109.561 6.85546 109.677C6.85221 109.793 6.94345 109.889 7.05927 109.893L21.7093 110.304C21.7162 110.489 21.7197 110.676 21.7197 110.863C21.7197 111.208 21.7078 111.551 21.6843 111.89L6.70213 111.47C6.5863 111.466 6.48978 111.558 6.48653 111.674C6.48327 111.789 6.57451 111.886 6.69034 111.889L21.6493 112.309C21.5867 112.949 21.4833 113.577 21.3413 114.19L9.67653 113.792C9.56073 113.788 9.46366 113.879 9.45969 113.994C9.45575 114.11 9.54642 114.207 9.66223 114.211L21.2385 114.606C21.1074 115.106 20.9506 115.595 20.7697 116.071L6.11746 115.571C6.00166 115.567 5.90459 115.658 5.90062 115.774C5.89668 115.89 5.98735 115.987 6.10316 115.991L20.6053 116.486C20.4166 116.941 20.2056 117.385 19.9737 117.816L6.35616 117.351C6.24036 117.347 6.14329 117.438 6.13932 117.554C6.13538 117.669 6.22605 117.766 6.34186 117.77L19.7434 118.228C19.4439 118.744 19.1139 119.24 18.7558 119.714L6.11744 119.282C6.00164 119.278 5.90457 119.369 5.90062 119.485C5.89668 119.601 5.98733 119.698 6.10313 119.702L18.4353 120.123C18.0962 120.54 17.7347 120.938 17.3526 121.316L6.11505 121.062C6.00378 121.059 5.91078 121.144 5.90132 121.253L5.26981 121.238L18.4032 121.726C21.0243 118.982 22.6625 115.29 22.7528 111.217C25.3281 111.729 27.6845 112.849 29.6662 114.421L28.3925 114.282C28.2774 114.269 28.1737 114.353 28.1611 114.468C28.1486 114.583 28.2318 114.687 28.347 114.699L30.2502 114.907C30.6287 115.237 30.9918 115.584 31.3382 115.947L29.328 115.728C29.2128 115.715 29.1092 115.798 29.0966 115.914C29.084 116.029 29.1673 116.132 29.2825 116.145L31.7685 116.416C32.0047 116.684 32.2321 116.959 32.4505 117.242L30.2635 117.004C30.1483 116.991 30.0446 117.074 30.0323 117.189C30.0197 117.305 30.1028 117.408 30.2179 117.421L32.7925 117.702C33.074 118.094 33.3386 118.5 33.5851 118.917L27.7405 118.279C27.6253 118.267 27.5217 118.35 27.5091 118.465C27.4965 118.58 27.5798 118.684 27.695 118.696L33.8412 119.367C34.0544 119.756 34.252 120.155 34.4337 120.562L29.1012 119.98C28.986 119.968 28.8824 120.051 28.8698 120.166C28.8572 120.281 28.9405 120.385 29.0557 120.397L34.6229 121.005C34.7301 121.266 34.8306 121.531 34.9244 121.798L26.5781 120.887C26.4629 120.875 26.3595 120.958 26.3469 121.073C26.3343 121.188 26.4174 121.292 26.5325 121.305L35.0708 122.236C35.5667 123.795 35.8344 125.455 35.8344 127.178C35.8344 136.165 28.5486 143.451 19.5613 143.451C11.5332 143.451 4.86294 137.638 3.53033 129.991H1.95005C2.17217 131.393 2.55762 132.74 3.08629 134.013L-13.9445 132.521L-11.7592 95.6477C-10.6426 98.3844 -8.55753 100.623 -5.92982 101.937C-7.68021 104.473 -8.70526 107.548 -8.70526 110.862C-8.70526 116.434 -5.80869 121.329 -1.43925 124.124L-1.48502 122.842C-5.22734 120.179 -7.66829 115.806 -7.66829 110.863C-7.66829 107.347 -6.43372 104.12 -4.37446 101.591C-8.6614 100.013 -11.719 95.8923 -11.719 91.0577C-11.719 85.3507 -7.45869 80.6391 -1.94504 79.9291V78.9853C-5.90815 79.4552 -9.28678 81.8317 -11.1383 85.1718L-7.84621 29.6214C-8.1841 23.4133 -1.67974 18.3327 -0.461505 18.3617C-0.36862 18.364 -0.19116 18.3737 0.0608849 18.3903C0.0665574 18.233 0.0743808 18.0763 0.0843173 17.9202C-1.57762 18.3601 -3.02263 18.3251 -4.07007 17.6039C-4.40794 11.3958 -4.77916 -1.01333 -3.56091 -0.984324C-2.03813 -0.948075 15.9448 1.31033 19.0288 2.16156C19.0411 2.16496 19.0529 2.16882 19.0641 2.17312C21.1477 2.42422 23.1149 3.05302 24.8953 3.989L21.4844 3.85809C21.3686 3.85364 21.271 3.9439 21.2666 4.05968C21.2622 4.17546 21.3524 4.27291 21.4682 4.27736L25.6988 4.43971C26.2372 4.76128 26.7562 5.1118 27.2538 5.48917L20.4887 5.22951C20.3729 5.22506 20.2754 5.31531 20.271 5.4311C20.2665 5.54688 20.3568 5.64433 20.4726 5.64878L27.8112 5.93042C28.2973 6.33217 28.7607 6.76046 29.1992 7.2131L18.715 6.81072C18.5992 6.80627 18.5017 6.89655 18.4973 7.01231C18.4928 7.12809 18.5831 7.22556 18.6989 7.22999L29.6064 7.64862C30.0331 8.12101 30.4334 8.6175 30.8053 9.1358L16.8896 8.60172C16.7738 8.59727 16.6764 8.68755 16.6719 8.80331C16.6675 8.91909 16.7577 9.01656 16.8735 9.02099L31.1047 9.5672C31.4578 10.0927 31.7821 10.639 32.0756 11.2039L16.3385 10.6C16.2228 10.5955 16.1253 10.6858 16.1209 10.8015C16.1164 10.9173 16.2067 11.0148 16.3225 11.0192L32.2904 11.6321C32.504 12.0735 32.6991 12.5255 32.8747 12.9872L17.3373 12.3908C17.2216 12.3864 17.1241 12.4767 17.1197 12.5925C17.1152 12.7082 17.2055 12.8057 17.3212 12.8101L33.0302 13.413C33.1986 13.8949 33.3459 14.3867 33.4709 14.8873L20.4887 14.3891C20.3729 14.3847 20.2754 14.4749 20.271 14.5907C20.2665 14.7064 20.3568 14.8039 20.4726 14.8084L33.5712 15.3111C33.6971 15.8768 33.7949 16.4532 33.8626 17.0387L16.8896 16.3873C16.7738 16.3829 16.6764 16.4731 16.6719 16.5889C16.6675 16.7047 16.7577 16.8021 16.8735 16.8066L33.9063 17.4603C33.9526 17.9719 33.9765 18.4901 33.9765 19.0138V19.0242L17.3373 18.3855C17.2216 18.3811 17.1241 18.4714 17.1197 18.5871C17.1152 18.7029 17.2055 18.8004 17.3212 18.8048L33.9711 19.4438C33.9602 19.8853 33.9323 20.3225 33.8882 20.755L19.8552 19.97C19.7395 19.9635 19.6405 20.052 19.634 20.1677C19.6276 20.2834 19.7161 20.3824 19.8318 20.3889L33.8404 21.1725C33.7902 21.5673 33.7265 21.9578 33.6497 22.3436L20.7679 21.6232C20.6522 21.6167 20.5532 21.7052 20.5467 21.8208C20.5402 21.9366 20.6288 22.0356 20.7444 22.0419L33.5616 22.759C33.4508 23.2505 33.3188 23.7339 33.1663 24.2082L22.6621 23.6208C22.5465 23.6143 22.4475 23.7028 22.441 23.8184C22.4345 23.9342 22.523 24.0333 22.6386 24.0396L33.0279 24.6207C32.8747 25.0581 32.7042 25.4873 32.517 25.9075L27.3461 25.6182C27.2303 25.6119 27.1313 25.7005 27.125 25.8161C27.1185 25.9319 27.207 26.0309 27.3226 26.0372L32.328 26.3172C32.0788 26.8392 31.8035 27.3463 31.5042 27.837L27.5528 27.6158C27.437 27.6096 27.3379 27.6981 27.3316 27.8137C27.3251 27.9293 27.4137 28.0285 27.5293 28.0348L31.2484 28.2429C30.614 29.2197 29.8816 30.127 29.0653 30.9511L23.6265 30.6469C23.5107 30.6404 23.4117 30.7289 23.4052 30.8447C23.3989 30.9603 23.4874 31.0593 23.603 31.0658L28.6581 31.3486C28.4553 31.5402 28.2476 31.7269 28.0355 31.9084C28.1463 32.0854 28.2518 32.2658 28.3516 32.4498L23.2132 32.1624C23.0974 32.1561 22.9984 32.2447 22.9919 32.3603C22.9856 32.4758 23.0742 32.5749 23.1898 32.5814L28.5732 32.8826C28.7748 33.3005 28.9485 33.7346 29.092 34.1821L20.0791 33.6779C19.9634 33.6714 19.8644 33.76 19.8579 33.8758C19.8514 33.9914 19.94 34.0904 20.0556 34.0969L29.2185 34.6094C29.3435 35.0682 29.4369 35.54 29.4965 36.0224L18.3742 35.4001C18.2586 35.3936 18.1595 35.4821 18.1531 35.5979C18.1466 35.7135 18.2351 35.8126 18.3508 35.8191L29.5399 36.4449C29.5621 36.7195 29.5735 36.9972 29.5735 37.2775C29.5735 37.5744 29.5609 37.8685 29.5357 38.1589L15.929 37.3977C15.8133 37.3912 15.7142 37.4798 15.7078 37.5954C15.7013 37.7112 15.7898 37.8102 15.9055 37.8167L29.491 38.5765C29.4226 39.1113 29.3125 39.6328 29.1642 40.1382L19.2737 39.3956C19.1581 39.387 19.0575 39.4736 19.0488 39.589C19.0401 39.7046 19.1267 39.8053 19.2423 39.8139L29.0337 40.5492C28.8816 40.9952 28.6993 41.4274 28.4891 41.8432L18.826 41.1175C18.7104 41.1089 18.6097 41.1956 18.6011 41.3112C18.5924 41.4268 18.679 41.5275 18.7946 41.5361L28.2728 42.2477C28.0038 42.7243 27.6975 43.177 27.3579 43.6019L17.2073 42.8397C17.0917 42.8311 16.991 42.9177 16.9824 43.0331C16.9737 43.1487 17.0603 43.2494 17.1758 43.258L27.0243 43.9975C26.6146 44.4597 26.1631 44.8841 25.6758 45.2649L16.3118 44.5617C16.1962 44.5531 16.0956 44.6397 16.0869 44.7553C16.0782 44.8709 16.1648 44.9716 16.2804 44.9802L25.1542 45.6465C24.5127 46.0851 23.8183 46.4521 23.0821 46.7355C25.0005 46.5983 26.3496 46.0979 27.2081 45.6156C29.4404 43.5356 30.8366 40.5696 30.8366 37.2775C30.8366 35.4542 30.4084 33.7308 29.6469 32.2027C32.46 29.5073 34.4123 25.921 35.0504 21.897C36.605 20.7853 38.5091 20.1311 40.566 20.1311C42.5987 20.1311 44.4822 20.77 46.0267 21.8579L43.2623 21.7128C43.1467 21.7067 43.0479 21.7956 43.0418 21.9114C43.0357 22.027 43.1246 22.1258 43.2405 22.1319L46.6168 22.309C47.0114 22.6358 47.3794 22.9942 47.7165 23.3798L42.0281 23.0812C41.9123 23.0751 41.8137 23.1641 41.8076 23.2799C41.8015 23.3955 41.8902 23.4943 42.006 23.5004L48.0778 23.8189C48.3526 24.1742 48.6029 24.5493 48.8259 24.9421L42.511 24.6106C42.3954 24.6045 42.2966 24.6935 42.2905 24.8093C42.2844 24.9249 42.3734 25.0237 42.489 25.0298L49.0569 25.3744C49.249 25.7575 49.416 26.1553 49.5556 26.5658L41.4417 26.14C41.3261 26.1339 41.2273 26.2228 41.2212 26.3386C41.2151 26.4542 41.3041 26.5531 41.4199 26.5591L49.6896 26.993C49.8654 27.6035 49.9814 28.2389 50.0314 28.8931L43.1062 28.5016C42.9906 28.4949 42.8916 28.5834 42.8851 28.699C42.8783 28.8148 42.9669 28.9138 43.0827 28.9203L50.054 29.3145C50.0574 29.4173 50.0591 29.5205 50.0591 29.6242C50.0591 29.8747 50.0494 30.1231 50.0303 30.3687L43.1062 29.9772C42.9906 29.9707 42.8916 30.0593 42.8851 30.1749C42.8783 30.2907 42.9669 30.3897 43.0827 30.3962L49.9886 30.7866C49.9013 31.5016 49.7345 32.192 49.4972 32.8489L51.0759 32.8986C51.3977 31.8641 51.5712 30.7644 51.5712 29.6242C51.5712 27.401 50.9121 25.3319 49.7783 23.6013C52.8656 21.2568 56.7161 19.8653 60.8916 19.8653C64.2509 19.8653 67.3999 20.7659 70.1102 22.339L64.7324 21.8907C64.617 21.881 64.5155 21.9668 64.5058 22.0824C64.4964 22.1978 64.5822 22.2991 64.6976 22.3088L70.9025 22.8259C71.4474 23.1803 71.9723 23.5625 72.4751 23.9707L64.0046 23.2648C63.8893 23.2551 63.7879 23.341 63.7783 23.4563C63.7686 23.5719 63.8544 23.6733 63.9698 23.6829L73.0281 24.4379C73.4397 24.7996 73.8352 25.1798 74.213 25.5765L63.6044 24.6924C63.489 24.6828 63.3876 24.7686 63.378 24.884C63.3683 24.9996 63.4542 25.1009 63.5695 25.1105L74.6328 26.0326C75.0081 26.454 75.3641 26.8927 75.6998 27.3475L66.6245 26.5912C66.5091 26.5816 66.4076 26.6674 66.3979 26.7828C66.3885 26.8984 66.4743 26.9997 66.5897 27.0093L76.02 27.7952C76.3147 28.2207 76.5918 28.6591 76.8507 29.1096L66.5903 28.2544C66.4747 28.2448 66.3734 28.3306 66.3637 28.446C66.3541 28.5616 66.4399 28.6629 66.5555 28.6726L77.0962 29.551C77.2737 29.8805 77.4413 30.2162 77.5988 30.5573L66.5561 29.637C66.4405 29.6275 66.3392 29.7133 66.3295 29.8287C66.3199 29.9441 66.4057 30.0456 66.5211 30.0553L77.7937 30.9947C77.9335 31.3193 78.0642 31.6489 78.1852 31.9828L67.0655 31.0562C66.9499 31.0465 66.8486 31.1324 66.8389 31.2477C66.8293 31.3633 66.9151 31.4647 67.0307 31.4743L78.3365 32.4165C78.476 32.8335 78.601 33.2573 78.7109 33.687L67.0997 32.7192C66.9843 32.7098 66.8828 32.7954 66.8731 32.911C66.8635 33.0263 66.9493 33.1279 67.0649 33.1373L78.8152 34.1168C78.906 34.5112 78.9841 34.9107 79.0491 35.3145L67.8658 34.3824C67.7504 34.3728 67.6491 34.4586 67.6395 34.5742C67.6298 34.6896 67.7156 34.7909 67.831 34.8005L79.1125 35.7408C79.1328 35.89 79.1515 36.04 79.1683 36.1902C79.6407 36.4965 80.1002 36.8208 80.5458 37.1626L78.8225 37.0837C78.7067 37.0782 78.6088 37.1678 78.6033 37.2836C78.5981 37.3994 78.6876 37.4974 78.8035 37.5028L81.1069 37.6084C81.823 38.197 82.4995 38.8317 83.1323 39.5076L81.5165 39.4335C81.4009 39.4283 81.3027 39.5179 81.2974 39.6337C81.292 39.7493 81.3816 39.8475 81.4974 39.8527L83.5313 39.9461C83.7996 40.2492 84.0593 40.5601 84.3102 40.8784L82.1756 40.7806C82.06 40.7751 81.9618 40.8647 81.9566 40.9805C81.9511 41.0963 82.0407 41.1943 82.1565 41.1998L84.6442 41.3137C84.8202 41.5493 84.9914 41.7889 85.1578 42.0318L83.4939 41.9554C83.3781 41.9502 83.2802 42.0398 83.2747 42.1556C83.2695 42.2712 83.3591 42.3693 83.4749 42.3746L85.4465 42.465C85.6059 42.7107 85.7603 42.9599 85.9095 43.2123L84.1246 43.1305C84.0088 43.1252 83.9106 43.2146 83.9053 43.3304C83.9001 43.4462 83.9895 43.5444 84.1053 43.5496L86.1579 43.6436C86.29 43.8796 86.4176 44.1184 86.5409 44.3596L85.3569 44.3055C85.2411 44.3 85.1429 44.3896 85.1376 44.5054C85.1324 44.621 85.2218 44.7192 85.3376 44.7244L86.7543 44.7895C86.8768 45.0437 86.9945 45.3007 87.1072 45.5607L85.3569 45.4803C85.2411 45.4751 85.1429 45.5647 85.1376 45.6803C85.1324 45.7961 85.2218 45.8942 85.3376 45.8995L87.2872 45.9889C87.4105 46.2918 87.5274 46.5983 87.6369 46.9082L85.8728 46.8274C85.757 46.8219 85.6588 46.9115 85.6535 47.0273C85.6483 47.1429 85.7376 47.2411 85.8534 47.2463L87.7829 47.3349C87.8605 47.5703 87.9342 47.8073 88.0036 48.0463L87.0478 48.0024C86.932 47.997 86.8338 48.0865 86.8286 48.2024C86.8233 48.3179 86.9127 48.4161 87.0285 48.4214L88.1228 48.4717C88.2012 48.7644 88.2738 49.0598 88.3399 49.3575L84.4111 49.1772C84.2953 49.172 84.1972 49.2616 84.1919 49.3772C84.1867 49.493 84.276 49.5912 84.3918 49.5964L88.4297 49.7817C88.5018 50.1404 88.565 50.5025 88.6187 50.8677L85.5002 50.7249C85.3844 50.7194 85.2862 50.809 85.2809 50.9248C85.2757 51.0406 85.3653 51.1386 85.4809 51.144L88.6764 51.2905C88.72 51.6351 88.7555 51.9826 88.7823 52.3323L83.7232 52.1005C83.6074 52.095 83.5095 52.1846 83.504 52.3004C83.4988 52.4162 83.5883 52.5142 83.7041 52.5196L88.8104 52.7538C88.8314 53.1224 88.843 53.4935 88.8449 53.8669L84.0671 53.6479C83.9515 53.6426 83.8533 53.7322 83.8481 53.8478C83.8426 53.9636 83.9322 54.0618 84.048 54.067L88.843 54.2869C88.8369 54.7157 88.818 55.1416 88.7865 55.5639L81.4892 55.2293C81.3734 55.224 81.2752 55.3134 81.27 55.4292C81.2647 55.545 81.3541 55.643 81.4699 55.6484L88.7515 55.9822C88.7072 56.4532 88.6476 56.9198 88.573 57.3815L80.876 57.0284C80.7602 57.0232 80.6622 57.1128 80.6567 57.2286C80.6515 57.3442 80.7411 57.4424 80.8567 57.4476L88.5014 57.7982C88.4257 58.2133 88.338 58.6241 88.2386 59.0303L79.5637 58.5668C79.4479 58.5607 79.3491 58.6495 79.343 58.7653C79.337 58.8809 79.4257 58.9797 79.5413 58.986L88.1326 59.4448C88.0407 59.7891 87.9407 60.13 87.8322 60.4671C87.8131 60.5124 87.794 60.5577 87.7745 60.6026C87.7577 60.6421 87.7405 60.6813 87.7233 60.7203L78.2259 60.2926C78.1101 60.2875 78.0121 60.3771 78.0069 60.4927C78.0016 60.6085 78.0912 60.7067 78.207 60.7117L87.5353 61.1319C87.284 61.6616 87.014 62.1555 86.7354 62.612L76.8079 62.0796C76.6923 62.0735 76.5935 62.1622 76.5872 62.2778C76.5812 62.3936 76.6699 62.4924 76.7855 62.4985L86.4788 63.0186C86.1547 63.5149 85.8232 63.9624 85.4991 64.3596L75.2372 64.0132C75.1214 64.0092 75.0245 64.0998 75.0205 64.2156C75.0165 64.3314 75.1074 64.4286 75.2232 64.4324L85.1534 64.7676C84.6394 65.3525 84.1583 65.8035 83.774 66.1142L74.1325 65.9468C74.0775 65.9458 74.0274 65.9659 73.9894 65.9997C73.8996 66.0177 73.8289 66.0937 73.8216 66.1896C73.813 66.3051 73.8996 66.4058 74.015 66.4147L76.0208 66.5659C76.0462 66.5781 76.0743 66.5854 76.1043 66.5865L76.4448 66.598L83.873 67.1586C83.946 67.164 84.0132 67.1315 84.0549 67.0778C85.7576 65.3835 87.0253 63.2183 87.5496 62.1433C89.2093 62.9265 90.7724 63.8806 92.2166 64.9828L90.7919 64.9134C90.6763 64.9079 90.5779 64.9971 90.5723 65.1129C90.5666 65.2285 90.656 65.3269 90.7716 65.3326L92.7868 65.4307C93.2217 65.7824 93.6449 66.1476 94.056 66.5259L92.1146 66.4312C91.9988 66.4256 91.9005 66.5149 91.8948 66.6305C91.8891 66.7463 91.9785 66.8447 92.0941 66.8504L94.5253 66.9689C94.8744 67.3065 95.2143 67.6539 95.5441 68.0105L90.7124 67.7751C90.5968 67.7695 90.4984 67.8589 90.4928 67.9745C90.4871 68.0903 90.5762 68.1886 90.6921 68.1943L95.9412 68.45C96.3002 68.8566 96.6467 69.2743 96.9801 69.7029L90.4046 69.3824C90.289 69.3767 90.1907 69.4661 90.185 69.5817C90.1793 69.6975 90.2685 69.7958 90.3843 69.8015L97.3122 70.1391C97.5939 70.5175 97.8656 70.9037 98.1268 71.2977L90.4046 70.9214C90.289 70.9157 90.1907 71.0049 90.185 71.1207C90.1793 71.2363 90.2685 71.3347 90.3843 71.3403L98.4083 71.7314C98.6146 72.0561 98.8137 72.3857 99.0056 72.7199L89.242 72.2441C89.1264 72.2384 89.028 72.3276 89.0223 72.4434C89.0167 72.5592 89.1058 72.6576 89.2216 72.6631L99.2481 73.1519C99.4774 73.5693 99.6956 73.994 99.9021 74.4253L88.5581 73.8725C88.4423 73.8668 88.3439 73.956 88.3384 74.0718C88.3328 74.1874 88.4219 74.2858 88.5377 74.2914L100.103 74.8551C100.313 75.3142 100.509 75.7801 100.693 76.253L88.6376 75.6656C88.5218 75.6599 88.4234 75.7491 88.4179 75.8649C88.4123 75.9807 88.5014 76.0791 88.6172 76.0847L100.854 76.681C101.059 77.239 101.245 77.8058 101.412 78.3809L92.7071 77.9567C92.5913 77.951 92.4929 78.0404 92.4872 78.156C92.4816 78.2718 92.5709 78.3702 92.6865 78.3758L101.531 78.807C101.69 79.3906 101.828 79.9826 101.946 80.5822L93.6849 80.1796C93.5691 80.174 93.4707 80.2631 93.4651 80.3789C93.4594 80.4945 93.5488 80.5929 93.6644 80.5986L102.026 81.0062C102.105 81.4444 102.172 81.8867 102.229 82.3325L91.4647 81.8078C91.3491 81.8021 91.2507 81.8915 91.2451 82.0071C91.2394 82.1229 91.3286 82.2213 91.4444 82.227L102.279 82.755C102.327 83.1924 102.364 83.6332 102.39 84.0767L92.6276 83.6011C92.5118 83.5954 92.4134 83.6846 92.4077 83.8004C92.402 83.916 92.4914 84.0144 92.607 84.02L102.411 84.4979C102.427 84.8705 102.435 85.245 102.435 85.6214C102.435 85.7393 102.434 85.857 102.433 85.9747L90.523 85.3942C90.4072 85.3885 90.3088 85.4777 90.3031 85.5935C90.2976 85.7093 90.3868 85.8077 90.5026 85.8133L102.424 86.3942C102.41 86.8673 102.384 87.3372 102.345 87.8036L86.3167 87.0226C86.2011 87.0169 86.1027 87.1061 86.097 87.2219C86.0914 87.3375 86.1805 87.4359 86.2963 87.4415L102.307 88.2219C102.251 88.7812 102.177 89.3355 102.087 89.8839L86.6188 89.5528C86.503 89.5503 86.4071 89.6422 86.4046 89.7582C86.4021 89.874 86.4939 89.9699 86.6097 89.9724L102.014 90.302C101.908 90.8861 101.782 91.4634 101.637 92.0332L84.0667 91.2398C83.9509 91.2345 83.8527 91.3241 83.8474 91.4399C83.8424 91.5557 83.932 91.6537 84.0476 91.6589L101.528 92.4482C101.416 92.8602 101.294 93.2682 101.162 93.6719L83.0246 92.4784C82.9088 92.4708 82.809 92.5583 82.8014 92.6741C82.7939 92.7897 82.8814 92.8896 82.997 92.8971L101.024 94.0833C100.852 94.584 100.664 95.0777 100.462 95.5637L85.0642 94.5062C84.9486 94.4982 84.8484 94.5855 84.8406 94.7011C84.8326 94.8167 84.9199 94.9168 85.0355 94.9247L100.288 95.9724C99.9929 96.6511 99.6692 97.3147 99.3186 97.9617L85.4079 97.2198C85.2923 97.2138 85.1935 97.3025 85.1872 97.4183C85.1811 97.5339 85.2698 97.6327 85.3856 97.6388L99.0929 98.3699C98.7738 98.9344 98.4342 99.4858 98.075 100.023L81.2423 99.4025C81.1265 99.3981 81.0291 99.4885 81.0247 99.6043C81.0205 99.7201 81.1109 99.8175 81.2267 99.8217L97.7955 100.433C97.3632 101.054 96.9044 101.655 96.4208 102.234L84.6528 101.404C84.5374 101.396 84.4369 101.483 84.429 101.598C84.4208 101.714 84.5079 101.814 84.6235 101.822L96.083 102.631C95.5346 103.262 94.9562 103.867 94.35 104.442L83.0291 103.456C82.9135 103.446 82.8119 103.531 82.8018 103.647C82.7918 103.762 82.8772 103.864 82.9925 103.874L93.9356 104.827C93.5104 105.214 93.0721 105.586 92.6219 105.944L86.0077 105.368C85.8923 105.358 85.7905 105.444 85.7804 105.559C85.7706 105.674 85.856 105.776 85.9714 105.786L92.1339 106.323C91.4286 106.857 90.6954 107.355 89.9366 107.816L83.3146 107.239C83.1992 107.229 83.0974 107.315 83.0874 107.43C83.0773 107.546 83.1629 107.647 83.2783 107.657L89.9286 108.237C90.0702 108.718 90.1955 109.206 90.3033 109.7L82.6617 109.035C82.5463 109.025 82.4446 109.11 82.4345 109.226C82.4244 109.341 82.5098 109.443 82.6254 109.453L90.3923 110.129C90.4734 110.541 90.5425 110.957 90.5993 111.378L79.7647 110.434C79.6491 110.424 79.5474 110.509 79.5375 110.625C79.5274 110.74 79.6128 110.842 79.7282 110.852L90.6528 111.803C90.6994 112.209 90.7346 112.618 90.7583 113.03L81.5601 112.229C81.4445 112.219 81.343 112.305 81.3329 112.42C81.3228 112.536 81.4082 112.637 81.5236 112.647L90.7783 113.453C90.7883 113.723 90.7934 113.994 90.7934 114.266C90.7934 114.392 90.7923 114.519 90.7902 114.645L79.1116 113.628C78.9962 113.618 78.8945 113.703 78.8844 113.819C78.8746 113.934 78.96 114.036 79.0753 114.046L90.7787 115.065C90.7596 115.586 90.7216 116.101 90.6658 116.611L77.0307 115.424C76.9153 115.413 76.8136 115.499 76.8035 115.614C76.7934 115.73 76.8788 115.832 76.9942 115.841L90.6161 117.028C90.5538 117.509 90.4753 117.986 90.3816 118.456L76.1737 117.219C76.0584 117.209 75.9566 117.294 75.9465 117.41C75.9365 117.525 76.0218 117.627 76.1374 117.637L90.2947 118.87C90.18 119.392 90.0459 119.906 89.8938 120.412L73.848 119.015C73.7324 119.004 73.6309 119.09 73.6208 119.205C73.6107 119.321 73.6961 119.422 73.8115 119.432L89.7658 120.822C89.6626 121.142 89.5521 121.458 89.4344 121.771L73.848 120.413C73.7324 120.403 73.6309 120.489 73.6208 120.604C73.6107 120.719 73.6961 120.821 73.8115 120.831L89.2762 122.178C89.0972 122.626 88.9034 123.066 88.6955 123.497L73.9038 122.209C73.7884 122.199 73.6867 122.284 73.6766 122.4C73.6665 122.515 73.7521 122.617 73.8675 122.627L88.496 123.901C88.2721 124.342 88.0334 124.774 87.7806 125.196L74.0995 124.004C73.9842 123.994 73.8824 124.08 73.8723 124.195C73.8623 124.311 73.9479 124.412 74.0632 124.422L87.5353 125.596C87.2389 126.067 86.9246 126.526 86.5934 126.971L73.1488 125.8C73.0334 125.79 72.9316 125.875 72.9216 125.991C72.9115 126.106 72.9969 126.208 73.1123 126.218L86.2925 127.366C85.9208 127.842 85.5291 128.303 85.119 128.745L71.9181 127.596C71.8028 127.585 71.701 127.671 71.6909 127.786C71.6811 127.902 71.7665 128.003 71.8818 128.013L84.7493 129.134C80.8783 133.108 75.4688 135.576 69.4829 135.576C65.1245 135.576 61.0718 134.268 57.696 132.022ZM35.0504 21.897L35.0496 21.8976L35.0507 21.8957L35.0504 21.897ZM39.2771 87.8626C39.2771 86.0386 41.349 86.0441 41.349 86.0441C41.349 86.0441 39.8515 84.5984 39.8515 83.6462C39.8515 82.566 41.0733 81.79 42.181 81.0863C43.1534 80.4687 44.0379 79.9067 43.9311 79.244C43.7314 78.0022 41.6024 77.5896 41.6024 77.5896C39.8939 75.8019 37.2965 72.9792 37.2965 71.5596C37.2965 70.5037 38.1245 69.6524 38.5349 69.2305L38.5894 69.1745C38.6238 69.1388 38.657 69.1058 38.689 69.0744L38.6901 69.0731C39.0172 68.7494 39.2299 68.5392 39.4435 66.7153C40.6281 56.5998 44.6528 49.8228 57.2781 49.8228C66.0891 49.8228 75.6499 54.3391 76.7507 54.8592L76.8079 54.8861C77.5393 55.2297 77.9943 55.1712 78.2156 54.8932C78.4372 54.6154 78.464 54.1258 78.0226 53.6674C78.0073 53.6514 77.9828 53.6252 77.9494 53.5896L77.9486 53.5885C76.8996 52.4638 67.1641 42.0259 52.5891 42.0259C25.4928 42.0259 16.8632 61.9266 16.8632 76.6363C16.8632 99.5074 36.0358 112.846 51.4967 112.846C66.8756 112.846 77.8768 101.007 78.6014 100.228L78.63 100.197C78.9784 99.8271 79.0342 99.4828 78.73 99.1495C78.365 98.7494 77.9567 98.8184 77.4583 99.0641L77.4109 99.0876L77.4107 99.0878C76.5413 99.5193 68.3423 103.59 59.7295 103.59C48.7969 103.59 43.6651 96.7096 43.6651 96.7096C42.4002 97.1372 41.5638 96.645 41.5638 96.645C42.8928 96.8233 43.556 96.3677 43.556 96.3677C43.556 96.3677 43.5921 94.0033 43.5077 93.0914C43.4236 92.1794 42.6014 91.4582 41.8588 91.4582C41.4916 91.4582 41.2873 91.5161 41.05 91.583H41.0496L41.049 91.5832C40.8065 91.6518 40.5297 91.73 40.0099 91.7659C39.2446 91.819 37.6304 91.7303 37.6304 91.7303C39.1525 91.5307 41.1746 90.8833 41.4801 90.3387L41.5179 90.2716L41.5229 90.2628C41.7879 89.7943 42.6142 88.334 42.6142 87.5598C42.6142 87.1115 42.2781 86.8207 42.2781 86.8207L41.7125 86.3288C41.7125 86.3288 39.6893 86.3065 39.6893 87.9177C39.6893 90.6943 36.7474 92.024 36.7474 92.024C37.8048 91.4397 39.2771 89.6865 39.2771 87.8626ZM34.6172 75.7165C32.2376 75.1465 31.6233 73.7141 31.6233 73.7141C31.6233 73.7141 29.4698 74.9844 29.7658 74.7402C30.0746 74.4853 30.3715 74.2455 30.6589 74.0135L30.6667 74.007C32.3144 72.6761 33.6505 71.5967 35.1459 69.4025C35.2625 69.0614 35.3962 68.9231 35.4597 69.1319C35.7035 69.9744 34.6172 71.2837 34.6172 71.2837C34.6172 71.2837 34.7672 71.8111 34.7672 73.1865C34.7672 74.5621 34.3814 74.8973 34.3814 74.8973C34.7028 74.9544 36.3963 75.3962 36.1462 75.56C35.8961 75.7239 35.0672 75.7373 35.0672 75.7373C35.0672 75.7373 35.2814 76.9782 34.8958 77.2266C35.1314 76.3866 34.6172 75.7165 34.6172 75.7165ZM32.7044 73.0409C32.7094 73.0237 32.7142 73.0067 32.7193 72.9891C32.7256 72.967 32.7316 72.9444 32.7375 72.9203L31.7446 73.6228C32.3811 74.3124 32.7413 74.3621 32.7413 74.3621C32.7413 74.3621 32.6196 74.157 32.6196 73.6923C32.6196 73.3291 32.6609 73.1884 32.7029 73.0455L32.7044 73.0409ZM33.3887 69.0704C30.7296 68.6982 30.5731 71.5065 30.8981 72.4184C30.9079 72.37 30.918 72.3203 30.9283 72.2693V72.2691C31.1672 71.0837 31.5314 69.2775 33.3887 69.0704ZM34.9537 80.9068C34.9537 81.577 35.3683 81.9043 35.3683 81.9043C35.3683 81.9043 35.422 82.8431 34.3537 83.9777C33.4676 84.9186 32.6246 85.9667 32.6246 87.5271C32.6246 89.4735 33.5748 90.5196 33.5748 90.5196C33.5748 90.5196 33.1034 89.3651 33.1034 87.4845C33.1034 85.7653 33.6358 84.7923 34.8539 83.8858C35.8114 83.1731 35.6326 82.1252 35.6326 82.1252C36.1837 82.5968 36.1988 82.3984 36.1988 82.3984C36.1988 82.3984 35.3469 81.5796 35.3469 80.8279C35.3469 79.5595 37.0842 78.5024 37.0842 78.5024C37.0842 78.5024 34.9537 79.344 34.9537 80.9068ZM40.1362 81.451C40.2465 81.5609 40.1404 81.6498 40.0386 81.5905C40.0386 81.5905 39.4472 81.4044 38.3372 81.4044C37.2272 81.4044 36.9665 81.5932 36.8607 81.6794C36.746 81.7726 36.674 81.7682 36.6952 81.6498C36.7409 81.3943 37.531 80.6806 38.3924 80.6806C39.2538 80.6806 40.026 81.3408 40.1362 81.451ZM28.873 62.827C24.4135 62.827 24.6746 70.0172 24.6746 70.0172C24.6746 70.0172 25.0586 63.5762 28.5826 63.5762C31.5755 63.5762 34.8832 67.1779 35.2535 67.5811L35.276 67.6056C35.5386 67.8889 36.0549 67.9191 36.3335 67.5842C36.6121 67.2494 36.5515 66.7579 36.0419 66.3391C36.0344 66.3331 36.0262 66.3263 36.0174 66.3188C36.0067 66.3098 35.9949 66.2997 35.9823 66.2888C35.9599 66.2695 35.9345 66.247 35.906 66.2223L35.8634 66.1849C35.0175 65.4435 32.0332 62.827 28.873 62.827ZM72.356 75.3035C72.356 75.3035 66.9029 74.671 66.4483 75.8193C66.0874 76.7315 70.5755 80.3191 70.5755 80.3191C70.5755 80.3191 69.9618 80.5354 69.4084 82.2754C68.8548 84.0156 68.2604 85.8851 68.9872 86.3556C69.673 86.7996 71.899 86.0315 74.7868 84.0154C74.7868 84.0154 79.0231 88.5037 79.685 87.5796C80.2403 86.8042 79.733 81.0274 79.733 81.0274C79.733 81.0274 83.5711 77.2828 83.2697 76.5874C82.9491 75.8479 77.6026 75.5428 77.6026 75.5428C77.6026 75.5428 75.1023 70.5981 74.7277 70.5981C73.3556 70.5981 72.356 75.3035 72.356 75.3035Z" fill="#1F1F1F"/>
</g>
</g>
<defs>
<clipPath id="clip0_25_8646">
<rect width="120" height="128.392" fill="white" transform="translate(0 0.608398)"/>
</clipPath>
</defs>
</svg>
