<svg width="120" height="129" viewBox="0 0 120 129" fill="none" xmlns="http://www.w3.org/2000/svg">
<g clip-path="url(#clip0_25_8652)">
<mask id="mask0_25_8652" style="mask-type:luminance" maskUnits="userSpaceOnUse" x="0" y="0" width="120" height="129">
<path d="M120 0H0V128.392H120V0Z" fill="white"/>
</mask>
<g mask="url(#mask0_25_8652)">
<path fill-rule="evenodd" clip-rule="evenodd" d="M62.3039 -3.02226L63.3918 -3.57487C59.7505 -6.14012 55.3097 -7.6466 50.517 -7.6466C38.1562 -7.6466 28.136 2.37376 28.136 14.7345C28.136 16.852 28.4299 18.9008 28.9795 20.8423C24.9912 23.4195 21.7307 27.0266 19.5743 31.2873C18.8026 30.064 18.1794 28.7375 17.73 27.3333L18.6648 27.4137C18.7802 27.4236 18.8818 27.3382 18.8917 27.2226C18.9017 27.1072 18.8161 27.0056 18.7007 26.9956L17.5979 26.901C17.4671 26.4522 17.354 25.9959 17.2594 25.5329L20.0113 25.7694C20.1268 25.7792 20.2284 25.6938 20.2383 25.5782C20.2482 25.4628 20.1627 25.3613 20.0472 25.3514L17.1774 25.1047C17.0989 24.6646 17.037 24.2186 16.9923 23.7675L21.1537 24.125C21.2693 24.1351 21.3709 24.0495 21.3807 23.9341C21.3908 23.8185 21.3052 23.717 21.1898 23.7071L16.9555 23.3433C16.9351 23.0698 16.9211 22.7943 16.9135 22.5174C15.9517 22.0183 15.0182 21.472 14.1162 20.8817L17.1958 21.1464C17.3112 21.1563 17.4128 21.0707 17.4227 20.9553C17.4327 20.8398 17.3471 20.7382 17.2317 20.7283L13.3998 20.3991C12.7039 19.9165 12.028 19.4072 11.3736 18.8726L16.2573 19.2922C16.3727 19.3021 16.4743 19.2166 16.4842 19.1011C16.4942 18.9857 16.4086 18.8841 16.2932 18.8742L10.812 18.4033C10.2022 17.8818 9.61218 17.3378 9.04317 16.7728L16.7877 17.4381C16.9032 17.448 17.0048 17.3625 17.0147 17.247C17.0246 17.1316 16.9391 17.03 16.8237 17.0201L8.58895 16.3126C8.08078 15.7874 7.59035 15.245 7.11861 14.6862L20.0113 15.7938C20.1268 15.8037 20.2284 15.7182 20.2383 15.6027C20.2482 15.4873 20.1627 15.3857 20.0472 15.3758L6.74286 14.2328C6.24985 13.6267 5.77847 13.0024 5.32988 12.3609L18.2159 13.468C18.3313 13.4779 18.433 13.3923 18.4429 13.2769C18.4528 13.1615 18.3673 13.0598 18.2518 13.0499L5.0225 11.9134C4.67943 11.4048 4.35052 10.8858 4.03633 10.3571L18.6648 11.6139C18.7802 11.6238 18.8818 11.5382 18.8917 11.4228C18.9017 11.3074 18.8161 11.2057 18.7007 11.1958L3.77766 9.91379C3.49539 9.42101 3.22577 8.92007 2.96928 8.41137L18.6648 9.75976C18.7802 9.76968 18.8818 9.68413 18.8917 9.5687C18.9017 9.45325 18.8161 9.35163 18.7007 9.34173L2.75173 7.97155C2.50743 7.46801 2.27588 6.95713 2.0575 6.43934L19.1252 7.90563C19.2406 7.91556 19.3423 7.83 19.3522 7.71457C19.3621 7.59913 19.2765 7.4975 19.1611 7.48758L1.87714 6.00273C1.62351 5.37563 1.38908 4.7387 1.17458 4.09267L18.482 5.57956C18.5974 5.58946 18.699 5.50393 18.709 5.38849C18.7189 5.27306 18.6333 5.17143 18.5179 5.16151L1.03417 3.6595C0.839398 3.04362 0.662658 2.41974 0.504575 1.78845L17.5591 3.2536C17.6745 3.26352 17.7761 3.17797 17.7861 3.06254C17.796 2.94709 17.7104 2.84547 17.595 2.83555L0.400032 1.35834C0.258447 0.757745 0.133701 0.150643 0.0263157 -0.462429L17.4192 1.03179C17.5347 1.04171 17.6363 0.956167 17.6462 0.840728C17.6561 0.725293 17.5706 0.623667 17.4551 0.613751L-0.0455568 -0.889731C-0.316479 -2.56974 -0.457275 -4.29331 -0.457275 -6.04976C-0.457275 -23.8129 13.9426 -38.2129 31.7058 -38.2129C49.4689 -38.2129 63.8689 -23.8129 63.8689 -6.04976C63.8689 -5.28566 63.8423 -4.52777 63.7898 -3.777L73.6766 -8.79879L85.4051 -7.77174C83.6337 -5.00169 82.6067 -1.70954 82.6067 1.82245C82.6067 10.5968 88.9443 17.891 97.2914 19.3775C97.8245 26.2143 102.728 31.8241 109.211 33.4156C108.649 34.8147 108.34 36.3426 108.34 37.9424C108.34 41.648 109.998 44.9664 112.612 47.1963H114.15C114.1 47.1625 114.051 47.1283 114.003 47.0937C114.01 47.0742 114.014 47.0534 114.016 47.0316C114.022 46.916 113.933 46.817 113.818 46.8107L113.607 46.7991C113.396 46.634 113.19 46.4616 112.99 46.282L113.23 46.2952C113.346 46.3015 113.445 46.2128 113.451 46.0972C113.458 45.9814 113.369 45.8826 113.254 45.8763L112.523 45.8362C112.276 45.5866 112.041 45.3256 111.818 45.0537L112.297 45.0799C112.413 45.0862 112.512 44.9977 112.518 44.8819C112.525 44.7663 112.436 44.6673 112.32 44.661L111.475 44.6148C111.23 44.2831 111.002 43.9376 110.794 43.5795L112.037 43.6477C112.153 43.654 112.252 43.5652 112.258 43.4496C112.264 43.3338 112.176 43.235 112.06 43.2285L110.554 43.1463C110.401 42.8543 110.26 42.5549 110.133 42.2486L113.491 42.4324C113.607 42.4387 113.706 42.3499 113.712 42.2343C113.718 42.1185 113.629 42.0197 113.514 42.0134L109.965 41.8191C109.803 41.3796 109.668 40.9271 109.561 40.4637L112.623 40.6311C112.738 40.6374 112.838 40.5489 112.844 40.4331C112.85 40.3175 112.762 40.2184 112.646 40.2121L109.472 40.0384C109.408 39.7009 109.36 39.3577 109.327 39.0101L112.775 39.1987C112.89 39.2052 112.989 39.1164 112.996 39.0008C113.002 38.885 112.913 38.7862 112.798 38.7797L109.295 38.5882C109.283 38.3744 109.277 38.1591 109.277 37.9424C109.277 37.7016 109.285 37.4624 109.3 37.2252L112.449 37.3976C112.565 37.4039 112.664 37.3152 112.67 37.1996C112.677 37.0838 112.588 36.9849 112.472 36.9787L109.334 36.8068C109.367 36.4726 109.416 36.1429 109.478 35.8179L112.167 35.9652C112.283 35.9715 112.382 35.8827 112.388 35.7671C112.394 35.6515 112.306 35.5525 112.19 35.5462L109.566 35.4025C109.639 35.0832 109.727 34.7689 109.828 34.4605L111.147 34.5327C111.263 34.539 111.362 34.4505 111.368 34.3347C111.374 34.2191 111.286 34.1201 111.17 34.1138L109.971 34.0483C110.09 33.7261 110.224 33.411 110.371 33.1036L112.297 33.2091C112.413 33.2154 112.512 33.1267 112.518 33.0111C112.525 32.8953 112.436 32.7965 112.32 32.7902L110.577 32.6947C110.583 32.6838 110.589 32.6731 110.594 32.6622L110.606 32.6415C109.506 32.4633 108.447 32.1631 107.444 31.7551L109.823 31.8854C109.939 31.8917 110.038 31.8029 110.044 31.6873C110.051 31.5715 109.962 31.4727 109.846 31.4664L106.39 31.2772C105.75 30.9562 105.138 30.5899 104.556 30.1825L109.498 30.4529C109.613 30.4592 109.712 30.3707 109.719 30.2549C109.725 30.1393 109.636 30.0403 109.521 30.034L103.942 29.7287C103.517 29.3966 103.11 29.0415 102.724 28.6653L109.216 29.0207C109.331 29.027 109.43 28.9382 109.437 28.8226C109.443 28.7068 109.354 28.608 109.239 28.6017L102.286 28.2212C101.933 27.8463 101.598 27.4529 101.285 27.0424L108.487 27.4366C108.602 27.4429 108.701 27.3541 108.708 27.2385C108.714 27.1227 108.625 27.0239 108.51 27.0176L100.964 26.6045C100.655 26.1671 100.369 25.7123 100.108 25.2413L106.512 25.5919C106.628 25.5982 106.727 25.5094 106.733 25.3938C106.739 25.278 106.651 25.1792 106.535 25.1729L99.8784 24.8085C99.699 24.4571 99.5335 24.0975 99.3822 23.7306L109.203 24.2681C109.319 24.2744 109.418 24.1857 109.424 24.0701C109.43 23.9543 109.342 23.8554 109.226 23.8491L99.2131 23.3012C99.1103 23.027 99.0153 22.749 98.9286 22.4673L111.692 22.8258C111.808 22.8289 111.904 22.7377 111.908 22.6219C111.911 22.5061 111.819 22.4096 111.704 22.4062L98.8053 22.0441C98.6911 21.6291 98.5946 21.2066 98.5168 20.7777L112.712 21.1762C112.828 21.1796 112.924 21.0883 112.928 20.9725C112.931 20.8566 112.839 20.7601 112.724 20.7569L98.4467 20.356C98.3849 19.9481 98.34 19.5347 98.3123 19.1165L112.929 19.5269C113.045 19.5302 113.141 19.4389 113.144 19.3231C113.148 19.2073 113.057 19.1108 112.941 19.1075L98.2907 18.6962C98.2837 18.5108 98.2802 18.3245 98.2802 18.1375C98.2802 17.792 98.2921 17.4492 98.3156 17.1097L113.298 17.5303C113.414 17.5336 113.51 17.4423 113.513 17.3265C113.517 17.2107 113.425 17.1142 113.31 17.1109L98.3507 16.6909C98.4132 16.0511 98.5166 15.4233 98.6586 14.8101L110.323 15.2082C110.439 15.2122 110.536 15.1215 110.54 15.0057C110.544 14.8899 110.453 14.7928 110.338 14.7889L98.7614 14.3938C98.8925 13.8945 99.0493 13.4057 99.2303 12.9286L113.882 13.4287C113.998 13.4326 114.095 13.342 114.099 13.2262C114.103 13.1104 114.013 13.0133 113.897 13.0093L99.3946 12.5144C99.5834 12.0591 99.7944 11.6153 100.026 11.1844L113.644 11.6492C113.76 11.6531 113.857 11.5624 113.861 11.4466C113.864 11.3308 113.774 11.2338 113.658 11.2298L100.257 10.7725C100.556 10.2564 100.886 9.7602 101.244 9.28639L113.882 9.71772C113.998 9.72166 114.095 9.63099 114.099 9.51521C114.103 9.3994 114.013 9.30233 113.897 9.29839L101.565 8.87751C101.904 8.46023 102.265 8.06191 102.647 7.68439L113.885 7.93827C113.996 7.94079 114.089 7.85619 114.099 7.74684L114.73 7.76182L101.597 7.27404C98.9756 10.0185 97.3374 13.7098 97.2472 17.7829C94.6718 17.2707 92.3154 16.1508 90.3337 14.579L91.6074 14.718C91.7225 14.7306 91.8262 14.6474 91.8388 14.5322C91.8514 14.417 91.7681 14.3135 91.6529 14.3009L89.7497 14.0931C89.3712 13.7632 89.0081 13.416 88.6617 13.0528L90.6719 13.2722C90.7871 13.2848 90.8907 13.2016 90.9033 13.0864C90.9159 12.9712 90.8326 12.8677 90.7174 12.8551L88.2314 12.5837C87.9952 12.3161 87.7678 12.0406 87.5494 11.7577L89.7365 11.9965C89.8516 12.009 89.9553 11.9259 89.9677 11.8107C89.9802 11.6955 89.8972 11.5919 89.782 11.5794L87.2074 11.2983C86.9259 10.9059 86.6614 10.5004 86.4149 10.0829L92.2594 10.7208C92.3746 10.7334 92.4782 10.6502 92.4908 10.535C92.5034 10.4198 92.4201 10.3163 92.3049 10.3037L86.1587 9.63285C85.9456 9.2439 85.7479 8.84528 85.5663 8.43783L90.8987 9.01985C91.0139 9.03244 91.1175 8.94925 91.1301 8.83406C91.1427 8.71888 91.0594 8.61533 90.9442 8.60275L85.377 7.99508C85.2698 7.73396 85.1693 7.46942 85.0756 7.20168L93.4218 8.11267C93.537 8.12524 93.6404 8.04208 93.653 7.92688C93.6656 7.81171 93.5826 7.70815 93.4674 7.69557L84.9291 6.76364C84.4332 5.20531 84.1655 3.54516 84.1655 1.82247C84.1655 -7.16498 91.4513 -14.4507 100.439 -14.4507C108.467 -14.4507 115.137 -8.63746 116.47 -0.990772H118.05C117.828 -2.39242 117.442 -3.73972 116.914 -5.01254L133.944 -3.52116L131.759 33.3524C130.643 30.6157 128.558 28.3775 125.93 27.0629C127.68 24.527 128.705 21.4519 128.705 18.1375C128.705 12.5659 125.809 7.67077 121.439 4.87595L121.485 6.1577C125.227 8.82114 127.668 13.1943 127.668 18.1375C127.668 21.6531 126.434 24.8803 124.374 27.4091C128.661 28.9873 131.719 33.1078 131.719 37.9424C131.719 43.6494 127.459 48.361 121.945 49.071V50.0148C125.908 49.5449 129.287 47.1684 131.138 43.8283L127.846 99.3787C128.184 105.587 121.68 110.667 120.462 110.638C120.369 110.636 120.191 110.626 119.939 110.61C119.933 110.767 119.925 110.924 119.916 111.08C121.578 110.64 123.023 110.675 124.07 111.396C124.408 117.604 124.779 130.013 123.561 129.984C122.038 129.948 104.055 127.69 100.971 126.839C100.959 126.835 100.947 126.831 100.936 126.827C98.8523 126.576 96.8851 125.947 95.1046 125.011L98.5156 125.142C98.6314 125.147 98.7289 125.056 98.7333 124.94C98.7377 124.825 98.6475 124.727 98.5317 124.723L94.3011 124.56C93.7628 124.239 93.2437 123.888 92.7461 123.511L99.5112 123.771C99.627 123.775 99.7246 123.685 99.729 123.569C99.7334 123.453 99.6432 123.356 99.5274 123.351L92.1887 123.07C91.7026 122.668 91.2392 122.24 90.8007 121.787L101.285 122.189C101.401 122.194 101.498 122.104 101.503 121.988C101.507 121.872 101.417 121.775 101.301 121.77L90.3935 121.351C89.9668 120.879 89.5665 120.383 89.1946 119.864L103.11 120.398C103.226 120.403 103.324 120.313 103.328 120.197C103.332 120.081 103.242 119.984 103.126 119.979L88.8952 119.433C88.5421 118.907 88.2178 118.361 87.9243 117.796L103.661 118.4C103.777 118.405 103.875 118.314 103.879 118.199C103.883 118.083 103.793 117.985 103.677 117.981L87.7095 117.368C87.4959 116.927 87.3008 116.475 87.1252 116.013L102.663 116.609C102.778 116.614 102.876 116.523 102.88 116.408C102.885 116.292 102.794 116.194 102.679 116.19L86.9697 115.587C86.8013 115.105 86.654 114.613 86.529 114.113L99.5112 114.611C99.627 114.616 99.7246 114.525 99.729 114.41C99.7334 114.294 99.6432 114.196 99.5274 114.192L86.4287 113.689C86.3028 113.123 86.2051 112.547 86.1373 111.961L103.11 112.613C103.226 112.617 103.324 112.527 103.328 112.411C103.332 112.295 103.242 112.198 103.126 112.193L86.0937 111.54C86.0473 111.028 86.0234 110.51 86.0234 109.986V109.976L102.663 110.615C102.778 110.619 102.876 110.529 102.88 110.413C102.885 110.297 102.794 110.2 102.679 110.195L86.0288 109.556C86.0398 109.115 86.0677 108.678 86.1117 108.245L100.145 109.03C100.26 109.037 100.359 108.948 100.366 108.832C100.372 108.717 100.284 108.618 100.168 108.611L86.1595 107.828C86.2097 107.433 86.2735 107.042 86.3502 106.656L99.232 107.377C99.3478 107.383 99.4468 107.295 99.4533 107.179C99.4596 107.063 99.3711 106.964 99.2555 106.958L86.4384 106.241C86.5491 105.75 86.6811 105.266 86.8336 104.792L97.3378 105.379C97.4534 105.386 97.5524 105.297 97.5589 105.182C97.5654 105.066 97.4769 104.967 97.3613 104.961L86.9721 104.379C87.1252 103.942 87.2958 103.513 87.4829 103.093L92.6538 103.382C92.7696 103.388 92.8686 103.3 92.8749 103.184C92.8814 103.068 92.7929 102.969 92.6773 102.963L87.6719 102.683C87.9212 102.161 88.1964 101.654 88.4958 101.163L92.4472 101.384C92.563 101.391 92.662 101.302 92.6683 101.186C92.6748 101.071 92.5863 100.972 92.4707 100.965L88.7515 100.757C89.3859 99.7804 90.1183 98.8731 90.9346 98.049L96.3734 98.3532C96.4892 98.3597 96.5882 98.2712 96.5947 98.1554C96.601 98.0398 96.5125 97.9408 96.3969 97.9343L91.3418 97.6515C91.5446 97.4599 91.7523 97.2732 91.9644 97.0917C91.8537 96.9147 91.7481 96.7342 91.6483 96.5503L96.7867 96.8377C96.9025 96.844 97.0015 96.7554 97.008 96.6398C97.0143 96.5242 96.9258 96.4252 96.8102 96.4187L91.4267 96.1175C91.2251 95.6996 91.0514 95.2655 90.9079 94.818L99.9209 95.3222C100.037 95.3287 100.136 95.2401 100.142 95.1243C100.149 95.0087 100.06 94.9097 99.9442 94.9032L90.7814 94.3907C90.6564 93.9319 90.563 93.4601 90.5035 92.9778L101.626 93.6C101.741 93.6065 101.84 93.518 101.847 93.4022C101.853 93.2866 101.765 93.1875 101.649 93.181L90.46 92.5552C90.4378 92.2806 90.4265 92.0029 90.4265 91.7226C90.4265 91.4257 90.4391 91.1316 90.4642 90.8412L104.071 91.6024C104.187 91.6089 104.286 91.5203 104.292 91.4047C104.299 91.2889 104.21 91.1899 104.095 91.1834L90.5089 90.4236C90.5773 89.8888 90.6874 89.3673 90.8358 88.8619L100.726 89.6045C100.842 89.6131 100.942 89.5265 100.951 89.4111C100.96 89.2955 100.873 89.1948 100.758 89.1862L90.9663 88.4509C91.1183 88.0049 91.3007 87.5727 91.5109 87.1569L101.174 87.8826C101.289 87.8912 101.39 87.8045 101.399 87.6889C101.408 87.5733 101.321 87.4726 101.205 87.464L91.7272 86.7524C91.9961 86.2758 92.3024 85.8231 92.6421 85.3982L102.793 86.1604C102.908 86.169 103.009 86.0824 103.018 85.967C103.026 85.8514 102.94 85.7507 102.824 85.7421L92.9756 85.0026C93.3853 84.5404 93.8368 84.116 94.3242 83.7352L103.688 84.4384C103.804 84.4471 103.904 84.3604 103.913 84.2448C103.922 84.1292 103.835 84.0285 103.72 84.0199L94.8457 83.3536C95.4872 82.915 96.1816 82.548 96.9178 82.2646C94.9995 82.4018 93.6503 82.9022 92.7919 83.3845C90.5595 85.4645 89.1633 88.4305 89.1633 91.7226C89.1633 93.5459 89.5915 95.2693 90.353 96.7974C87.54 99.4928 85.5876 103.079 84.9495 107.103C83.3949 108.215 81.4909 108.869 79.4339 108.869C77.4012 108.869 75.5177 108.23 73.9732 107.142L76.7376 107.287C76.8532 107.293 76.9521 107.204 76.9581 107.089C76.9642 106.973 76.8753 106.874 76.7595 106.868L73.3831 106.691C72.9885 106.364 72.6205 106.006 72.2834 105.62L77.9718 105.919C78.0876 105.925 78.1863 105.836 78.1923 105.72C78.1984 105.605 78.1097 105.506 77.9939 105.5L71.9221 105.181C71.6473 104.826 71.397 104.451 71.174 104.058L77.4889 104.39C77.6045 104.396 77.7033 104.307 77.7094 104.191C77.7155 104.075 77.6265 103.976 77.5109 103.97L70.943 103.626C70.7509 103.243 70.5839 102.845 70.4444 102.434L78.5582 102.86C78.6738 102.866 78.7726 102.777 78.7787 102.661C78.7848 102.546 78.6958 102.447 78.58 102.441L70.3103 102.007C70.1345 101.397 70.0185 100.761 69.9686 100.107L76.8937 100.499C77.0093 100.505 77.1083 100.417 77.1149 100.301C77.1216 100.185 77.033 100.086 76.9172 100.08L69.9459 99.6856C69.9425 99.5828 69.9409 99.4796 69.9409 99.3759C69.9409 99.1254 69.9505 98.8771 69.9696 98.6314L76.8937 99.0229C77.0093 99.0294 77.1083 98.9408 77.1149 98.8252C77.1216 98.7094 77.033 98.6104 76.9172 98.6039L70.0114 98.2135C70.0986 97.4985 70.2654 96.8081 70.5027 96.1512L68.924 96.1015C68.6022 97.136 68.4287 98.2357 68.4287 99.3759C68.4287 101.599 69.0879 103.668 70.2216 105.399C67.1343 107.743 63.2838 109.135 59.1083 109.135C55.749 109.135 52.6 108.234 49.8897 106.661L55.2675 107.109C55.3829 107.119 55.4844 107.033 55.4941 106.918C55.5035 106.802 55.4177 106.701 55.3023 106.691L49.0974 106.174C48.5525 105.82 48.0276 105.438 47.5248 105.029L55.9953 105.735C56.1107 105.745 56.212 105.659 56.2216 105.544C56.2313 105.428 56.1455 105.327 56.0301 105.317L46.9718 104.562C46.5602 104.2 46.1647 103.82 45.7869 103.424L56.3956 104.308C56.5109 104.317 56.6123 104.232 56.6219 104.116C56.6316 104.001 56.5458 103.899 56.4304 103.89L45.3671 102.968C44.9918 102.546 44.6358 102.107 44.3001 101.653L53.3754 102.409C53.4908 102.419 53.5923 102.333 53.602 102.217C53.6114 102.102 53.5256 102 53.4102 101.991L43.98 101.205C43.6852 100.779 43.4081 100.341 43.1492 99.8905L53.4096 100.746C53.5252 100.755 53.6265 100.669 53.6362 100.554C53.6458 100.439 53.56 100.337 53.4444 100.328L42.9037 99.4491C42.7262 99.1196 42.5586 98.7839 42.4011 98.4428L53.4438 99.3631C53.5594 99.3726 53.6607 99.2868 53.6704 99.1714C53.68 99.056 53.5942 98.9545 53.4788 98.9448L42.2062 98.0054C42.0665 97.6808 41.9358 97.3513 41.8147 97.0173L52.9344 97.9439C53.05 97.9536 53.1514 97.8678 53.161 97.7524C53.1707 97.6368 53.0849 97.5354 52.9693 97.5258L41.6634 96.5836C41.5239 96.1666 41.3989 95.7428 41.289 95.3131L52.9002 96.2809C53.0156 96.2903 53.1172 96.2047 53.1268 96.0891C53.1365 95.9738 53.0507 95.8722 52.9351 95.8628L41.1847 94.8833C41.0939 94.4889 41.0158 94.0894 40.9508 93.6856L52.1341 94.6177C52.2495 94.6273 52.3508 94.5415 52.3604 94.4259C52.3701 94.3105 52.2843 94.2092 52.1689 94.1996L40.8874 93.2593C40.8671 93.1101 40.8484 92.9601 40.8316 92.8099C40.3592 92.5036 39.8997 92.1793 39.4542 91.8375L41.1774 91.9164C41.2932 91.9219 41.3911 91.8323 41.3966 91.7165C41.4018 91.6007 41.3123 91.5027 41.1965 91.4973L38.893 91.3917C38.1769 90.8031 37.5004 90.1685 36.8676 89.4925L38.4835 89.5666C38.599 89.5718 38.6972 89.4822 38.7025 89.3664C38.7079 89.2508 38.6183 89.1526 38.5025 89.1474L36.4686 89.0541C36.2003 88.7509 35.9406 88.44 35.6897 88.1217L37.8243 88.2195C37.9399 88.225 38.0381 88.1354 38.0433 88.0196C38.0488 87.9038 37.9592 87.8058 37.8434 87.8003L35.3557 87.6864C35.1797 87.4508 35.0085 87.2113 34.8421 86.9683L36.506 87.0447C36.6218 87.0499 36.7197 86.9603 36.7252 86.8445C36.7304 86.7289 36.6409 86.6308 36.5251 86.6255L34.5535 86.5351C34.394 86.2894 34.2396 86.0402 34.0904 85.7878L35.8753 85.8696C35.9911 85.8749 36.0893 85.7855 36.0946 85.6697C36.0998 85.5539 36.0104 85.4557 35.8946 85.4505L33.8421 85.3565C33.7099 85.1205 33.5823 84.8817 33.459 84.6405L34.643 84.6946C34.7588 84.7001 34.857 84.6105 34.8623 84.4947C34.8675 84.3791 34.7781 84.2809 34.6623 84.2757L33.2456 84.2106C33.1231 83.9564 33.0054 83.6994 32.8928 83.4394L34.643 83.5198C34.7588 83.525 34.857 83.4354 34.8623 83.3199C34.8675 83.2041 34.7781 83.1059 34.6623 83.1006L32.7128 83.0112C32.5894 82.7083 32.4725 82.4018 32.363 82.0919L34.1272 82.1727C34.243 82.1782 34.3411 82.0886 34.3464 81.9728C34.3516 81.8572 34.2623 81.759 34.1465 81.7538L32.217 81.6652C32.1394 81.4298 32.0658 81.1928 31.9963 80.9538L32.9521 80.9977C33.0679 81.0031 33.1661 80.9136 33.1714 80.7977C33.1766 80.6822 33.0872 80.584 32.9714 80.5787L31.8772 80.5284C31.7987 80.2357 31.7261 79.9403 31.66 79.6426L35.5888 79.8228C35.7046 79.8281 35.8028 79.7385 35.808 79.6229C35.8132 79.5071 35.7239 79.4089 35.6081 79.4037L31.5702 79.2184C31.4981 78.8597 31.4349 78.4976 31.3812 78.1324L34.4997 78.2752C34.6155 78.2807 34.7137 78.1911 34.719 78.0753C34.7242 77.9595 34.6346 77.8615 34.519 77.8561L31.3235 77.7096C31.2799 77.3649 31.2444 77.0175 31.2176 76.6678L36.2767 76.8996C36.3925 76.9051 36.4904 76.8155 36.4959 76.6997C36.5011 76.5839 36.4116 76.4859 36.2958 76.4805L31.1895 76.2463C31.1685 75.8777 31.1569 75.5066 31.1551 75.1332L35.9328 75.3522C36.0484 75.3575 36.1466 75.2679 36.1518 75.1523C36.1573 75.0365 36.0677 74.9383 35.9519 74.9331L31.1569 74.7132C31.1634 74.2615 31.184 73.8132 31.2184 73.3687L48.2276 74.1484C48.3432 74.1537 48.4414 74.0641 48.4466 73.9485C48.4521 73.8327 48.3625 73.7345 48.2467 73.7293L31.2549 72.9503C31.2941 72.5456 31.3449 72.1445 31.4066 71.747L50.033 72.601C50.1488 72.6063 50.2468 72.5167 50.2523 72.4009C50.2575 72.2853 50.1679 72.1871 50.0523 72.1819L31.4756 71.3301C31.5581 70.8617 31.6558 70.3987 31.7685 69.9413L48.8278 70.8529C48.9434 70.8589 49.0422 70.7702 49.0485 70.6544C49.0546 70.5388 48.9658 70.44 48.8502 70.4337L31.8751 69.527C31.9646 69.1924 32.0624 68.8609 32.1677 68.533L32.178 68.5084L32.1862 68.4894L32.1977 68.4621C32.2074 68.4392 32.2172 68.4166 32.2269 68.3937L49.2864 69.3052C49.402 69.3113 49.5008 69.2226 49.5071 69.1068C49.5132 68.9912 49.4244 68.8924 49.3086 68.8861L32.4104 67.9833C32.6769 67.4098 32.9658 66.8775 33.2647 66.3879L50.3181 67.299C50.4337 67.3053 50.5325 67.2163 50.5388 67.1008C50.5449 66.985 50.4562 66.8861 50.3404 66.8801L33.5213 65.9815C33.8442 65.4866 34.1746 65.0406 34.4976 64.6443L51.4644 65.5508C51.5802 65.5571 51.679 65.4682 51.6851 65.3526C51.6912 65.2368 51.6025 65.138 51.4869 65.1319L34.8377 64.2424C35.3528 63.6554 35.8346 63.2026 36.2204 62.8903L54.0354 63.8098C54.1479 63.8154 54.2439 63.7319 54.2551 63.6212C54.2599 63.6063 54.263 63.5908 54.2643 63.5744C54.2742 63.459 54.1883 63.3575 54.0728 63.3478L36.1286 61.8417C36.0551 61.8354 35.9872 61.868 35.945 61.9223C34.2423 63.6166 32.9746 65.7818 32.4503 66.8568C30.7907 66.0736 29.2275 65.1195 27.7833 64.0173L29.208 64.0867C29.3236 64.0922 29.422 64.003 29.4276 63.8872C29.4333 63.7716 29.3439 63.6732 29.2283 63.6675L27.2131 63.5694C26.7782 63.2177 26.3551 62.8525 25.9439 62.4742L27.8853 62.5689C28.0011 62.5745 28.0995 62.4852 28.1051 62.3696C28.1108 62.2538 28.0214 62.1554 27.9058 62.1497L25.4746 62.0312C25.1255 61.6936 24.7856 61.3462 24.4558 60.9896L29.2875 61.225C29.4031 61.2306 29.5015 61.1412 29.5072 61.0256C29.5128 60.9098 29.4237 60.8115 29.3079 60.8058L24.0587 60.5501C23.6997 60.1435 23.3532 59.7258 23.0198 59.2972L29.5953 59.6177C29.7109 59.6234 29.8093 59.534 29.8149 59.4184C29.8206 59.3026 29.7314 59.2043 29.6156 59.1986L22.6877 58.861C22.406 58.4826 22.1343 58.0964 21.8731 57.7024L29.5953 58.0787C29.7109 58.0844 29.8093 57.9952 29.8149 57.8794C29.8206 57.7638 29.7314 57.6654 29.6156 57.6598L21.5916 57.2687C21.3853 56.944 21.1862 56.6144 20.9943 56.2802L30.7579 56.756C30.8735 56.7617 30.9719 56.6725 30.9776 56.5567C30.9832 56.4409 30.8941 56.3425 30.7783 56.337L20.7518 55.8482C20.5225 55.4308 20.3044 55.0061 20.0978 54.5748L31.4418 55.1276C31.5576 55.1333 31.656 55.0441 31.6615 54.9283C31.6672 54.8127 31.578 54.7143 31.4622 54.7087L19.8967 54.145C19.6871 53.6859 19.4905 53.22 19.3074 52.7471L31.3623 53.3345C31.4781 53.3402 31.5763 53.251 31.582 53.1352C31.5876 53.0194 31.4985 52.921 31.3827 52.9154L19.146 52.3191C18.9412 51.7611 18.7551 51.1942 18.5883 50.6192L27.2928 51.0434C27.4086 51.0491 27.507 50.9597 27.5127 50.8441C27.5183 50.7283 27.429 50.6299 27.3134 50.6243L18.4687 50.1931C18.3102 49.6095 18.1716 49.0175 18.0536 48.4179L26.315 48.8205C26.4308 48.8261 26.5292 48.737 26.5348 48.6212C26.5405 48.5056 26.4511 48.4072 26.3355 48.4015L17.9739 47.9939C17.8952 47.5557 17.8275 47.1134 17.7711 46.6676L28.5352 47.1923C28.6508 47.198 28.7492 47.1086 28.7548 46.993C28.7605 46.8772 28.6714 46.7788 28.5555 46.7731L17.7211 46.2451C17.6731 45.8077 17.6359 45.3669 17.6098 44.9234L27.3723 45.399C27.4881 45.4047 27.5865 45.3155 27.5922 45.1997C27.5979 45.0841 27.5085 44.9857 27.3929 44.98L17.5885 44.5022C17.5726 44.1296 17.5646 43.7551 17.5646 43.3787C17.5646 43.2608 17.5654 43.1429 17.567 43.0254L29.4769 43.6059C29.5928 43.6116 29.6911 43.5224 29.6968 43.4066C29.7023 43.2908 29.6131 43.1924 29.4973 43.1868L17.5759 42.6059C17.5897 42.1328 17.6162 41.6629 17.6551 41.1965L33.6832 41.9775C33.7988 41.9832 33.8972 41.894 33.9029 41.7782C33.9086 41.6626 33.8194 41.5643 33.7036 41.5586L17.6933 40.7782C17.7489 40.2189 17.8224 39.6646 17.913 39.1162L33.3811 39.4473C33.4969 39.4498 33.5928 39.3579 33.5953 39.2419C33.5979 39.1261 33.506 39.0302 33.3902 39.0277L17.9856 38.6981C18.092 38.114 18.218 37.5367 18.3628 36.9669L35.9332 37.7603C36.049 37.7656 36.1472 37.676 36.1525 37.5602C36.1575 37.4444 36.0679 37.3464 35.9523 37.3412L18.472 36.5519C18.5841 36.1399 18.7061 35.7319 18.8377 35.3282L36.9753 36.5217C37.0911 36.5293 37.1909 36.4418 37.1985 36.326C37.206 36.2104 37.1186 36.1105 37.003 36.103L18.9757 34.9168C19.1483 34.4161 19.3358 33.9224 19.5376 33.4364L34.9357 34.4939C35.0513 34.5019 35.1516 34.4146 35.1593 34.299C35.1673 34.1834 35.08 34.0833 34.9644 34.0754L19.7114 33.0277C20.007 32.349 20.3307 31.6854 20.6812 31.0384L34.5921 31.7803C34.7076 31.7863 34.8065 31.6976 34.8127 31.5818C34.8188 31.4662 34.7301 31.3674 34.6143 31.3613L20.907 30.6302C21.2261 30.0656 21.5658 29.5143 21.9249 28.977L38.7576 29.5976C38.8734 29.602 38.9708 29.5116 38.9752 29.3958C38.9794 29.28 38.889 29.1826 38.7732 29.1784L22.2044 28.5673C22.6367 27.9466 23.0955 27.3455 23.5791 26.7659L35.3471 27.5962C35.4625 27.6044 35.563 27.5173 35.5709 27.4017C35.5791 27.2861 35.4921 27.1859 35.3765 27.1777L23.9169 26.3691C24.4653 25.7379 25.0437 25.1335 25.65 24.558L36.9709 25.544C37.0865 25.5541 37.188 25.4687 37.1981 25.3533C37.2081 25.2377 37.1227 25.136 37.0074 25.1261L26.0643 24.1729C26.4895 23.7864 26.9278 23.4138 27.378 23.0559L33.9923 23.632C34.1076 23.6421 34.2094 23.5565 34.2195 23.4411C34.2293 23.3257 34.1439 23.224 34.0286 23.2139L27.866 22.6773C28.5713 22.1433 29.3045 21.6447 30.0633 21.184L36.6853 21.7607C36.8007 21.7707 36.9025 21.6854 36.9125 21.57C36.9226 21.4546 36.837 21.3529 36.7216 21.3428L30.0713 20.7635C29.9297 20.2824 29.8044 19.7942 29.6966 19.2997L37.3382 19.9652C37.4536 19.9753 37.5553 19.8899 37.5654 19.7744C37.5755 19.659 37.4901 19.5573 37.3745 19.5472L29.6076 18.8707C29.5265 18.4588 29.4574 18.0427 29.4006 17.6227L40.2352 18.5663C40.3508 18.5764 40.4525 18.491 40.4624 18.3755C40.4725 18.2601 40.3871 18.1584 40.2717 18.1483L29.3471 17.1968C29.3005 16.7911 29.2653 16.382 29.2416 15.9697L38.4398 16.7708C38.5554 16.7809 38.6569 16.6955 38.667 16.58C38.6771 16.4646 38.5917 16.3629 38.4763 16.3528L29.2216 15.5468C29.2116 15.2773 29.2065 15.0065 29.2065 14.7345C29.2065 14.6077 29.2076 14.4812 29.2097 14.3549L40.8883 15.3721C41.0037 15.3821 41.1054 15.2967 41.1155 15.1813C41.1253 15.0658 41.04 14.9641 40.9246 14.9541L29.2212 13.9347C29.2403 13.4145 29.2783 12.899 29.3341 12.389L42.9692 13.5766C43.0846 13.5866 43.1863 13.5012 43.1964 13.3858C43.2065 13.2703 43.1211 13.1686 43.0057 13.1585L29.3838 11.9721C29.4461 11.4907 29.5246 11.0143 29.6183 10.5436L43.8262 11.781C43.9416 11.7911 44.0433 11.7057 44.0534 11.5902C44.0635 11.4748 43.9781 11.3731 43.8625 11.363L29.7052 10.13C29.82 9.60858 29.954 9.09436 30.1061 8.58808L46.1519 9.98564C46.2675 9.99569 46.369 9.91026 46.3791 9.79483C46.3892 9.67941 46.3038 9.57768 46.1884 9.56763L30.2341 8.17804C30.3373 7.85843 30.4479 7.54211 30.5655 7.22929L46.1519 8.58682C46.2675 8.59687 46.369 8.51144 46.3791 8.39602C46.3892 8.28059 46.3038 8.17888 46.1884 8.16883L30.7237 6.8219C30.9027 6.37452 31.0965 5.93463 31.3044 5.50282L46.0961 6.79114C46.2115 6.80119 46.3132 6.71576 46.3233 6.60034C46.3334 6.48491 46.2478 6.38318 46.1324 6.37314L31.5039 5.09904C31.7278 4.65835 31.9665 4.22648 32.2193 3.80411L45.9004 4.99567C46.0158 5.00574 46.1175 4.92032 46.1276 4.80489C46.1376 4.68946 46.0521 4.58774 45.9367 4.57769L32.4646 3.40431C32.761 2.93316 33.0753 2.47446 33.4065 2.0291L46.8511 3.2001C46.9665 3.21015 47.0683 3.12474 47.0783 3.00932C47.0884 2.89389 47.003 2.79216 46.8876 2.78211L33.7074 1.63415C34.0791 1.15776 34.4708 0.697588 34.8809 0.25487L48.0818 1.40462C48.1972 1.41467 48.2989 1.32925 48.309 1.21382C48.3188 1.09839 48.2335 0.996671 48.1181 0.98662L35.2506 -0.134114C39.1216 -4.10805 44.5311 -6.57602 50.517 -6.57602C54.8754 -6.57602 58.9281 -5.26766 62.3039 -3.02226ZM84.9495 107.103L84.9503 107.103L84.9493 107.104L84.9495 107.103ZM78.6249 66.1871C78.6249 64.3632 76.553 64.3684 76.553 64.3684C76.553 64.3684 78.0505 62.9228 78.0505 61.9705C78.0505 60.8905 76.8287 60.1143 75.721 59.4107C74.7486 58.7931 73.8642 58.2312 73.9707 57.5685C74.1707 56.3266 76.2994 55.9139 76.2994 55.9139C78.0081 54.1263 80.6056 51.3035 80.6056 49.8839C80.6056 48.828 79.7775 47.9767 79.3672 47.555L79.3126 47.4988C79.291 47.4764 79.27 47.4552 79.2493 47.4346C79.2371 47.4224 79.2249 47.4105 79.213 47.3987L79.2119 47.3975H79.2117C78.8846 47.0738 78.6721 46.8636 78.4586 45.0396C77.2739 34.9242 73.2493 28.1471 60.6239 28.1471C51.8129 28.1471 42.2521 32.6635 41.1514 33.1835L41.0939 33.2106C40.3625 33.554 39.9077 33.4955 39.6864 33.2175C39.4648 32.9398 39.438 32.4503 39.8792 31.9919C39.8903 31.9804 39.9058 31.9638 39.9258 31.9424L39.9535 31.9128C41.0024 30.7884 50.7379 20.3503 65.3129 20.3503C92.4092 20.3503 101.039 40.251 101.039 54.9606C101.039 77.8317 81.8662 91.17 66.4053 91.17C51.0264 91.17 40.0252 79.3319 39.3006 78.5521L39.2718 78.5215C38.9236 78.1514 38.8678 77.8072 39.1718 77.4741C39.537 77.0738 39.9453 77.1428 40.4437 77.3884L40.4911 77.4119L40.4914 77.4122C41.3605 77.8437 49.5597 81.9149 58.1725 81.9149C69.1051 81.9149 74.237 75.034 74.237 75.034C75.5018 75.4615 76.3382 74.9696 76.3382 74.9696C75.0092 75.1477 74.346 74.692 74.346 74.692C74.346 74.692 74.31 72.3279 74.3943 71.4157C74.4784 70.5038 75.3006 69.7827 76.0432 69.7827C76.4102 69.7827 76.6147 69.8404 76.852 69.9073L76.8522 69.9075H76.8528C77.0953 69.9761 77.3723 70.0544 77.8921 70.0903C78.6574 70.1433 80.2714 70.0546 80.2714 70.0546C78.7495 69.8553 76.7272 69.2077 76.4219 68.6631L76.3842 68.5961L76.3791 68.5871C76.1142 68.1189 75.2878 66.6583 75.2878 65.8842C75.2878 65.4359 75.6239 65.1451 75.6239 65.1451L76.1893 64.6531C76.1893 64.6531 78.2127 64.6309 78.2127 66.2421C78.2127 69.0189 81.1546 70.3483 81.1546 70.3483C80.0972 69.764 78.6249 68.011 78.6249 66.1871ZM83.2848 54.0411C85.6644 53.4709 86.2785 52.0384 86.2785 52.0384C86.2785 52.0384 88.4322 53.3087 88.1362 53.0645C87.8276 52.8098 87.5309 52.5703 87.2437 52.3382L87.2353 52.3315C85.5876 51.0004 84.2515 49.921 82.7561 47.7268C82.6395 47.3859 82.5058 47.2477 82.4423 47.4562C82.1985 48.2987 83.2848 49.608 83.2848 49.608C83.2848 49.608 83.1348 50.1354 83.1348 51.511C83.1348 52.8864 83.5206 53.2217 83.5206 53.2217C83.199 53.2787 81.5056 53.7205 81.7556 53.8844C82.0059 54.0484 82.8348 54.0617 82.8348 54.0617C82.8348 54.0617 82.6206 55.3026 83.0062 55.551C82.7706 54.7112 83.2848 54.0411 83.2848 54.0411ZM85.1928 51.3487C85.1895 51.3371 85.1861 51.3254 85.1828 51.3134C85.1798 51.3036 85.1771 51.2933 85.1744 51.283C85.171 51.2706 85.1676 51.2578 85.1645 51.2446L86.1574 51.9472C85.5209 52.637 85.1607 52.6865 85.1607 52.6865C85.1607 52.6865 85.2822 52.4813 85.2822 52.0166C85.2822 51.6537 85.2411 51.5127 85.1989 51.3698L85.1928 51.3487ZM84.5133 47.3947C87.1724 47.0228 87.3289 49.8308 87.0039 50.743C86.9976 50.7124 86.9914 50.6815 86.9851 50.6501L86.9737 50.5936V50.5934C86.7348 49.4083 86.3704 47.6018 84.5133 47.3947ZM82.9481 59.2311C82.9481 59.9016 82.5337 60.2287 82.5337 60.2287C82.5337 60.2287 82.48 61.1677 83.5483 62.302C84.4342 63.2429 85.2774 64.291 85.2774 65.8517C85.2774 67.7981 84.3272 68.8439 84.3272 68.8439C84.3272 68.8439 84.7986 67.6896 84.7986 65.8089C84.7986 64.0896 84.2662 63.1166 83.0481 62.2101C82.0907 61.4975 82.2694 60.4496 82.2694 60.4496C81.7183 60.9212 81.7032 60.7227 81.7032 60.7227C81.7032 60.7227 82.5551 59.9039 82.5551 59.1522C82.5551 57.884 80.8179 56.8267 80.8179 56.8267C80.8179 56.8267 82.9481 57.6686 82.9481 59.2311ZM77.7658 59.7753C77.6555 59.8852 77.7614 59.9742 77.8634 59.915C77.8634 59.915 78.4548 59.7287 79.5648 59.7287C80.6748 59.7287 80.9353 59.9178 81.0413 60.0038C81.156 60.0969 81.228 60.0927 81.2068 59.9742C81.1611 59.7187 80.371 59.005 79.5096 59.005C78.6482 59.005 77.876 59.6654 77.7658 59.7753ZM89.0291 41.1516C93.4886 41.1516 93.2274 48.3417 93.2274 48.3417C93.2274 48.3417 92.8435 41.9005 89.3194 41.9005C86.3263 41.9005 83.0186 45.5024 82.6485 45.9056L82.6258 45.93C82.3634 46.2134 81.8471 46.2436 81.5685 45.9086C81.2899 45.5738 81.3505 45.0822 81.8601 44.6635C81.8767 44.6501 81.8966 44.6331 81.9197 44.6131C81.9446 44.5915 81.9732 44.5666 82.0057 44.5382L82.0386 44.5093C82.8843 43.7679 85.8688 41.1516 89.0291 41.1516ZM42.6088 47.3341C42.6088 47.3341 48.0621 46.7016 48.5167 47.8502C48.8775 48.7622 44.3895 52.3498 44.3895 52.3498C44.3895 52.3498 45.0031 52.5661 45.5565 54.3061C46.1102 56.0463 46.7045 57.9157 45.9778 58.3863C45.2918 58.8304 43.0659 58.0622 40.1781 56.0463C40.1781 56.0463 35.9418 60.5343 35.28 59.6104C34.7246 58.8348 35.2319 53.058 35.2319 53.058C35.2319 53.058 31.3938 49.3135 31.6953 48.618C32.0156 47.8785 37.3623 47.5735 37.3623 47.5735C37.3623 47.5735 39.8626 42.6287 40.2373 42.6287C41.6093 42.6287 42.6088 47.3341 42.6088 47.3341Z" fill="#1F1F1F"/>
</g>
</g>
<defs>
<clipPath id="clip0_25_8652">
<rect width="120" height="128.392" fill="white"/>
</clipPath>
</defs>
</svg>
