<svg width="120" height="130" viewBox="0 0 120 130" fill="none" xmlns="http://www.w3.org/2000/svg">
<g clip-path="url(#clip0_25_8658)">
<mask id="mask0_25_8658" style="mask-type:luminance" maskUnits="userSpaceOnUse" x="0" y="0" width="120" height="131">
<path d="M0 130H120V0.0709229H0V130Z" fill="white"/>
</mask>
<g mask="url(#mask0_25_8658)">
<path fill-rule="evenodd" clip-rule="evenodd" d="M101.576 118.135C101.86 118.059 102.148 117.99 102.438 117.928C102.37 117.72 102.306 117.51 102.245 117.298L101.476 117.442C94.9234 118.607 91.1616 123.2 90.0995 125.351L91.2203 125.707V125.708L91.223 125.704L93.6685 126.006C93.7842 126.021 93.8899 125.939 93.9042 125.823C93.9184 125.707 93.8362 125.601 93.7204 125.587L91.4833 125.31C91.7278 124.951 91.9851 124.601 92.2545 124.262L99.8155 124.803C99.9319 124.812 100.033 124.724 100.041 124.608C100.05 124.491 99.9621 124.39 99.8457 124.382L92.5817 123.861C92.9014 123.482 93.2368 123.115 93.5869 122.764L100.045 123.226C100.161 123.235 100.262 123.147 100.271 123.031C100.279 122.914 100.191 122.813 100.075 122.805L93.9923 122.369C94.327 122.054 94.6737 121.751 95.032 121.462L100.045 121.821C100.161 121.829 100.262 121.742 100.271 121.626C100.279 121.509 100.191 121.408 100.075 121.4L95.5308 121.074C96.06 120.677 96.6121 120.31 97.1848 119.973L103.371 120.416C103.487 120.424 103.589 120.337 103.597 120.22C103.605 120.104 103.518 120.003 103.401 119.995L97.8564 119.597C98.6829 119.159 99.548 118.783 100.446 118.478L103.084 118.667C103.201 118.675 103.302 118.588 103.31 118.471C103.318 118.355 103.231 118.254 103.114 118.246L101.576 118.135ZM101.944 116.089C101.977 116.242 102.011 116.394 102.048 116.546C101.654 116.233 100.547 114.992 100.547 111.804C100.547 108.306 102.153 101.023 109.809 96.1199L110.639 96.9099C110.443 97.0199 110.249 97.1336 110.058 97.2508L112.383 97.4173C112.5 97.4258 112.587 97.5268 112.579 97.6432C112.571 97.7596 112.47 97.8472 112.353 97.8388L109.462 97.6318C109.055 97.9037 108.66 98.192 108.278 98.4958L110.835 98.679C110.951 98.6872 111.039 98.7884 111.031 98.9049C111.022 99.0213 110.921 99.1087 110.805 99.1005L107.804 98.8856C107.338 99.2826 106.893 99.7032 106.471 100.146L111.215 100.485C111.331 100.494 111.419 100.595 111.41 100.711C111.402 100.828 111.301 100.915 111.184 100.907L106.103 100.543C105.786 100.895 105.484 101.261 105.196 101.638L111.674 102.102C111.79 102.11 111.877 102.211 111.869 102.328C111.861 102.444 111.76 102.531 111.643 102.523L104.897 102.04C104.602 102.451 104.323 102.874 104.063 103.31L109.208 103.679C109.324 103.687 109.411 103.788 109.403 103.905C109.395 104.021 109.294 104.109 109.177 104.1L103.827 103.717C103.632 104.064 103.448 104.418 103.276 104.779L107.53 105.084C107.647 105.092 107.734 105.193 107.726 105.31C107.718 105.426 107.616 105.514 107.5 105.505L103.087 105.189C102.925 105.555 102.774 105.927 102.636 106.305L105.208 106.489C105.324 106.497 105.412 106.599 105.403 106.715C105.395 106.831 105.294 106.919 105.177 106.911L102.49 106.718C102.356 107.117 102.235 107.521 102.128 107.932L104.003 108.066C104.12 108.075 104.207 108.175 104.199 108.292C104.191 108.408 104.089 108.496 103.973 108.488L102.026 108.348C101.948 108.681 101.88 109.018 101.821 109.358L103.401 109.471C103.518 109.48 103.605 109.581 103.597 109.697C103.589 109.813 103.487 109.901 103.371 109.893L101.754 109.777C101.7 110.14 101.657 110.508 101.625 110.878L104.003 111.048C104.12 111.057 104.207 111.158 104.199 111.274C104.191 111.391 104.089 111.478 103.973 111.47L101.595 111.3C101.572 111.664 101.561 112.031 101.561 112.401C101.561 112.429 101.561 112.456 101.561 112.483L103.545 112.625C103.661 112.634 103.748 112.735 103.74 112.851C103.732 112.968 103.631 113.055 103.514 113.047L101.568 112.907C101.581 113.359 101.61 113.807 101.656 114.249L103.401 114.374C103.518 114.383 103.605 114.484 103.597 114.6C103.589 114.717 103.487 114.804 103.371 114.796L101.706 114.677C101.748 115.007 101.799 115.335 101.859 115.659L103.545 115.78C103.661 115.788 103.748 115.889 103.74 116.005C103.732 116.122 103.631 116.209 103.514 116.201L101.944 116.089ZM112.69 95.927C112.612 95.9585 112.534 95.9904 112.457 96.0227C111.948 95.8058 111.235 95.4737 111.235 95.3589C111.235 95.2436 112.758 94.5595 114.271 94.0761C114.411 94.5591 114.482 95.1405 114.501 95.3103L114.487 95.3144C114.492 95.3203 114.498 95.3262 114.503 95.3325C114.505 95.3499 114.506 95.3589 114.506 95.3589C114.513 95.3585 114.52 95.3589 114.526 95.36C114.583 95.4382 114.614 95.5364 114.607 95.6408C114.59 95.8736 114.388 96.0487 114.155 96.032L112.69 95.927ZM137.062 112.401C137.062 102.89 129.581 95.1255 120.182 94.6717V54.5875C122.268 52.8394 123.595 50.2144 123.595 47.2795C123.595 44.533 122.433 42.0578 120.574 40.3187C129.01 37.7336 135.144 29.8835 135.144 20.6008C135.144 9.21276 125.912 -0.019043 114.524 -0.019043C112.145 -0.019043 109.86 0.383944 107.733 1.12537L115.394 1.19304C115.51 1.19407 115.604 1.28949 115.603 1.40616C115.602 1.52285 115.507 1.61659 115.39 1.61556L106.649 1.53833C105.743 1.913 104.869 2.35036 104.034 2.845L114.253 2.93528C114.37 2.93631 114.463 3.03172 114.462 3.1484C114.461 3.26509 114.366 3.35883 114.249 3.35779L103.36 3.2616C102.74 3.66145 102.143 4.09362 101.572 4.55572L115.358 4.67752C115.475 4.67853 115.569 4.77396 115.568 4.89064C115.567 5.00733 115.471 5.10107 115.355 5.10003L101.071 4.97384C100.351 5.59397 99.6748 6.26295 99.0469 6.97566L113.982 7.1076C114.099 7.10864 114.192 7.20404 114.192 7.32073C114.191 7.43741 114.095 7.53115 113.978 7.53012L98.6871 7.39503C98.2665 7.89901 97.8693 8.42338 97.4977 8.96642L114.288 9.11475C114.405 9.11578 114.498 9.21119 114.497 9.32788C114.496 9.44456 114.401 9.5383 114.284 9.53726L97.2176 9.3865C96.8483 9.95509 96.5064 10.543 96.1935 11.1484L114.527 11.3104C114.644 11.3114 114.737 11.4068 114.736 11.5235C114.735 11.6402 114.64 11.7339 114.523 11.7329L95.9823 11.5691C95.6958 12.1559 95.4366 12.7583 95.2059 13.3747L111.084 13.3748C111.201 13.3748 111.296 13.4694 111.296 13.5861C111.296 13.7027 111.201 13.7973 111.084 13.7973L95.0531 13.7973C94.8619 14.344 94.6933 14.9012 94.5482 15.4678L108.51 15.4679C108.626 15.4679 108.721 15.5625 108.721 15.6792C108.721 15.7959 108.626 15.8905 108.51 15.8905L94.4447 15.8904C94.3164 16.4391 94.2102 16.9964 94.1267 17.561L108.051 17.5611C108.167 17.5611 108.262 17.6557 108.262 17.7724C108.262 17.8891 108.167 17.9837 108.051 17.9837L94.0688 17.9836C93.9885 18.6164 93.9372 19.2582 93.9156 19.9075L108.541 19.9076C108.658 19.9076 108.753 20.0023 108.753 20.1189C108.753 20.2356 108.658 20.3302 108.541 20.3302L93.9059 20.3301C93.9049 20.4202 93.9042 20.5104 93.9042 20.6008C93.9042 21.1573 93.9262 21.7087 93.9695 22.254L108.082 22.2542C108.199 22.2542 108.294 22.3489 108.294 22.4655C108.294 22.5821 108.199 22.6768 108.082 22.6768L94.0073 22.6765C94.0525 23.1274 94.1121 23.5738 94.1857 24.0156L104.4 24.3844C104.516 24.3887 104.607 24.4867 104.603 24.6033C104.599 24.7199 104.501 24.811 104.384 24.8068L94.2613 24.4411C94.3716 25.0271 94.5068 25.6045 94.6657 26.1718L103.312 26.563C103.428 26.5683 103.519 26.667 103.514 26.7836C103.508 26.9002 103.409 26.9904 103.293 26.9851L94.7907 26.6004C94.9688 27.1871 95.1725 27.7628 95.4002 28.3261L103.508 28.3258C103.625 28.3258 103.719 28.4205 103.719 28.5371C103.719 28.6539 103.625 28.7484 103.508 28.7484L95.5766 28.7486C95.8048 29.2789 96.0549 29.7977 96.3254 30.3039H102.705C102.822 30.3039 102.916 30.3984 102.916 30.5152C102.916 30.6318 102.822 30.7265 102.705 30.7265H96.5576C96.8134 31.1796 97.0859 31.622 97.3743 32.053L106.124 32.0528C106.241 32.0528 106.336 32.1475 106.336 32.2641C106.336 32.3809 106.241 32.4753 106.124 32.4753L97.6648 32.4756C98.0476 33.0183 98.4562 33.5416 98.8887 34.044L107.017 34.2035C107.134 34.2058 107.227 34.3022 107.224 34.419C107.222 34.5356 107.126 34.6284 107.009 34.6261L99.2692 34.4741C99.7002 34.9476 100.153 35.401 100.625 35.8326L106.759 35.9528C106.876 35.9551 106.969 36.0517 106.966 36.1683C106.964 36.2849 106.868 36.3777 106.751 36.3753L101.114 36.2649C101.657 36.7303 102.225 37.168 102.815 37.5758L109.268 37.7023C109.385 37.7046 109.478 37.801 109.475 37.9176C109.473 38.0342 109.377 38.127 109.26 38.1246L103.471 38.0112C104.106 38.4147 104.764 38.7846 105.443 39.1182L109.268 39.1932C109.385 39.1956 109.478 39.2921 109.475 39.4087C109.473 39.5253 109.377 39.6181 109.26 39.6158L106.403 39.5598C106.86 39.7558 107.326 39.9358 107.799 40.0991C107.624 40.2521 107.454 40.4116 107.291 40.577L112.766 40.6844C112.883 40.6867 112.976 40.783 112.973 40.8996C112.971 41.0165 112.875 41.109 112.758 41.1069L106.904 40.992C106.616 41.3192 106.351 41.6661 106.11 42.0308L113.483 42.1755C113.6 42.1776 113.693 42.2741 113.69 42.3908C113.688 42.5074 113.592 42.6001 113.475 42.5978L105.849 42.4482C105.569 42.9234 105.329 43.4247 105.134 43.948L112.039 43.7522C112.156 43.7488 112.253 43.8407 112.257 43.9573C112.26 44.0739 112.168 44.1713 112.051 44.1745L104.986 44.375C104.847 44.8113 104.738 45.2613 104.662 45.7222L110.434 45.5585C110.55 45.5553 110.648 45.6472 110.651 45.7639C110.654 45.8805 110.562 45.9777 110.446 45.9811L104.602 46.1467C104.558 46.5183 104.535 46.8963 104.535 47.2795C104.535 47.3589 104.536 47.438 104.538 47.5168L109.889 47.3651C110.006 47.3617 110.103 47.4536 110.106 47.5702C110.109 47.6868 110.018 47.784 109.901 47.7874L104.558 47.9389C104.59 48.4039 104.655 48.8598 104.751 49.3041L109.43 49.1714C109.547 49.168 109.644 49.2599 109.647 49.3765C109.651 49.4932 109.559 49.5906 109.442 49.5937L104.852 49.7239C104.957 50.123 105.088 50.5115 105.242 50.8882L110.176 50.7481C110.292 50.7449 110.389 50.8368 110.393 50.9534C110.396 51.0701 110.304 51.1672 110.188 51.1706L105.425 51.3056C105.588 51.654 105.771 51.9908 105.973 52.3146L111.667 52.1532C111.783 52.1499 111.881 52.2418 111.884 52.3584C111.887 52.475 111.795 52.5722 111.679 52.5756L106.246 52.7296C106.566 53.1872 106.925 53.6154 107.318 54.0094L111.374 53.7878C111.491 53.7815 111.591 53.8706 111.597 53.9872C111.603 54.1037 111.514 54.2034 111.397 54.2097L107.742 54.4094C108.255 54.8646 108.817 55.2654 109.42 55.6026L112.722 55.4222C112.838 55.4156 112.938 55.505 112.945 55.6216C112.951 55.738 112.861 55.8375 112.745 55.8441L110.18 55.9842C111.317 56.4923 112.572 56.7842 113.892 56.8079C113.911 57.0948 113.712 57.4199 112.849 57.3927C111.438 57.3477 108.203 56.4137 105.593 53.9063L105.616 53.87C104.678 52.8075 103.919 51.4554 103.534 49.7594C102.287 44.2599 105.29 40.0968 105.29 40.0968C95.3886 35.3465 94.2864 28.2914 93.5956 23.8687C93.5614 23.6505 93.5282 23.4386 93.4952 23.2337C91.7117 22.733 89.8308 22.4653 87.8873 22.4653C86.7304 22.4653 85.5957 22.5601 84.4906 22.7425L86.2942 22.933C86.4102 22.9453 86.4942 23.0492 86.482 23.1652C86.4697 23.2812 86.3658 23.3655 86.2498 23.3532L83.1026 23.0209C82.4571 23.1737 81.8235 23.3566 81.2028 23.5681L86.5031 24.1277C86.6191 24.14 86.7034 24.2439 86.6911 24.3599C86.6789 24.4759 86.5747 24.5602 86.4588 24.548L80.3041 23.8981C79.6783 24.1444 79.0673 24.4206 78.473 24.7246L85.8313 25.5014C85.9473 25.5137 86.0314 25.6176 86.0191 25.7336C86.0069 25.8498 85.9029 25.9339 85.7869 25.9216L77.8092 25.0793C77.3096 25.3584 76.8226 25.6575 76.3494 25.9757L85.5773 26.9499C85.6933 26.9621 85.7774 27.0663 85.7652 27.1822C85.7529 27.2982 85.649 27.3823 85.533 27.3701L75.8187 26.3446C75.5011 26.5727 75.1902 26.8098 74.8864 27.0553L82.7998 27.8908C82.9158 27.9031 82.9999 28.007 82.9876 28.123C82.9754 28.239 82.8714 28.3233 82.7554 28.3111L74.433 27.4322C74.1569 27.6686 73.8871 27.912 73.6236 28.1623L82.3667 29.0853C82.4827 29.0976 82.5668 29.2018 82.5545 29.3177C82.5423 29.4337 82.4383 29.5178 82.3223 29.5056L73.2309 28.5458C72.8751 28.9024 72.532 29.2721 72.2028 29.6539L79.7842 30.4892C79.9002 30.5021 79.9838 30.6065 79.9711 30.7225C79.9583 30.8384 79.8539 30.9221 79.7379 30.9092L71.8754 30.0428C71.5855 30.3963 71.3068 30.7592 71.0404 31.1317C71.0328 31.1237 71.025 31.1156 71.0174 31.1074L71.0014 31.1308L78.6066 31.7731C78.723 31.7828 78.8092 31.8851 78.7995 32.0013C78.7895 32.1175 78.6873 32.2039 78.5711 32.1939L70.735 31.5325C70.6268 31.7017 70.5178 31.88 70.4109 32.0657C70.2609 32.3256 70.1166 32.5966 69.9843 32.8734L76.9069 33.5503C77.0231 33.5617 77.108 33.665 77.0966 33.781C77.0854 33.8972 76.9821 33.9821 76.8659 33.9707L69.8009 33.2801C69.659 33.616 69.5392 33.9559 69.4538 34.2897L74.5352 34.8498C74.6512 34.8625 74.7349 34.9668 74.722 35.0828C74.7093 35.1988 74.6049 35.2825 74.489 35.2698L69.3651 34.7051C69.3634 34.7165 69.3615 34.7277 69.3596 34.7391C69.3321 34.9119 69.1697 35.0296 68.9966 35.0019C68.8238 34.9744 68.7061 34.8118 68.7338 34.6389C68.8918 33.6491 69.3621 32.6152 69.8618 31.749C70.0912 31.3512 70.3297 30.9834 70.5533 30.665C69.3672 29.6368 67.8197 29.0146 66.1268 29.0146C65.0715 29.0146 64.0724 29.2565 63.1826 29.6877L64.2947 29.7914C64.4109 29.8024 64.4962 29.9053 64.4854 30.0215C64.4747 30.1377 64.3716 30.223 64.2554 30.2123L62.528 30.0511C62.2082 30.2524 61.9065 30.4799 61.6259 30.7305L65.2333 31.0672C65.3495 31.078 65.4351 31.1811 65.4241 31.2971C65.4133 31.4133 65.3102 31.4989 65.1942 31.4879L61.2264 31.1175C60.9421 31.4169 60.6845 31.742 60.4583 32.0896C61.132 32.228 61.8007 32.2958 62.2779 32.1893C62.3918 32.1639 62.5048 32.2358 62.5302 32.3496C62.5555 32.4635 62.4839 32.5763 62.37 32.6017C61.7637 32.7369 60.9556 32.6323 60.2267 32.4722L60.2214 32.4817C60.1961 32.4724 60.1705 32.4631 60.1452 32.454C59.4102 32.2871 58.7318 32.0611 58.3705 31.9351C57.2641 31.6829 56.1125 31.5498 54.9296 31.5498C53.7083 31.5498 52.5203 31.6918 51.3809 31.9601C50.8481 32.0968 50.31 32.2628 49.7738 32.4582L51.9822 32.567C52.0988 32.5727 52.1886 32.6718 52.1829 32.7884C52.1772 32.9049 52.0781 32.9946 51.9615 32.9889L48.8284 32.8349C48.2134 33.1009 47.6073 33.4062 47.0216 33.7499L53.0385 34.0459C53.1552 34.0516 53.245 34.1507 53.2392 34.2673C53.2335 34.3837 53.1345 34.4735 53.0178 34.4678L46.3889 34.1418C46.0435 34.3672 45.7073 34.607 45.3828 34.8608L50.2921 35.1022C50.4087 35.108 50.4985 35.207 50.4928 35.3237C50.4871 35.4401 50.388 35.5299 50.2714 35.5241L44.8961 35.2599C44.62 35.4971 44.3542 35.7456 44.1004 36.0048C44.0816 36.0238 44.0628 36.043 44.0442 36.0625L50.2921 36.3699C50.4087 36.3756 50.4985 36.4746 50.4928 36.5913C50.4871 36.7077 50.388 36.7975 50.2714 36.7918L43.6712 36.467C43.3112 36.8763 42.9809 37.3102 42.6866 37.7689L48.6019 38.06C48.7185 38.0657 48.8083 38.1648 48.8026 38.2814C48.7969 38.3978 48.6978 38.4876 48.5812 38.4819L42.4365 38.1796C42.243 38.5157 42.0685 38.8641 41.9151 39.2251L46.5176 39.4516C46.6342 39.4573 46.724 39.5564 46.7183 39.6728C46.7123 39.7894 46.6133 39.8792 46.4969 39.8735L41.7505 39.6401C41.5807 40.0998 41.4448 40.5787 41.3476 41.0771L46.2847 41.48C46.4011 41.4895 46.4878 41.5915 46.4783 41.7077C46.4688 41.8241 46.3667 41.9108 46.2505 41.9013L41.2756 41.495C41.2147 41.9036 41.1795 42.3246 41.1719 42.7582L44.3793 42.9587C44.4959 42.9658 44.5845 43.0662 44.5771 43.1826C44.5699 43.2992 44.4695 43.3875 44.3531 43.3803L41.1731 43.1815C41.1814 43.5295 41.2073 43.8853 41.2519 44.2487L44.2737 44.4375C44.3903 44.4447 44.4788 44.5451 44.4714 44.6615C44.4642 44.7781 44.3639 44.8664 44.2475 44.8592L41.3126 44.6758C41.3827 45.1117 41.4795 45.5583 41.6047 46.0157C41.6664 46.2407 41.534 46.4731 41.3088 46.5348C41.0838 46.5965 40.8514 46.464 40.7897 46.2388C40.188 44.0414 40.2004 42.0631 40.6547 40.3136C38.6635 40.8086 36.7667 41.5432 34.9971 42.4848L35.699 42.5361C35.8154 42.5448 35.9028 42.646 35.8944 42.7624C35.8857 42.8788 35.7845 42.9661 35.6681 42.9576L34.3198 42.8587C33.787 43.1638 33.2664 43.4881 32.7592 43.8306L35.2764 44.015C35.3928 44.0237 35.4803 44.1249 35.4719 44.2413C35.4632 44.3577 35.362 44.4449 35.2456 44.4365L32.2076 44.2138C31.6762 44.5937 31.1605 44.9938 30.6613 45.4134L34.6426 45.7051C34.759 45.7138 34.8465 45.815 34.8381 45.9314C34.8294 46.0478 34.7282 46.1353 34.6118 46.1266L30.2079 45.8038C29.9352 46.0442 29.6679 46.2906 29.4059 46.5424L35.2764 46.9727C35.3928 46.9814 35.4803 47.0826 35.4719 47.199C35.4632 47.3154 35.362 47.4029 35.2456 47.3942L29.0054 46.9368C28.6156 47.3289 28.2389 47.7341 27.8757 48.1514L34.8539 48.6629C34.9703 48.6715 35.0578 48.7727 35.0493 48.8891C35.0407 49.0056 34.9395 49.093 34.8231 49.0844L27.5362 48.5501C27.1881 48.9675 26.8534 49.3962 26.5329 49.8361L33.5863 50.353C33.7027 50.3617 33.7902 50.4629 33.7817 50.5793C33.7731 50.6957 33.6719 50.7832 33.5554 50.7745L26.2454 50.2385C26.0316 50.5444 25.8245 50.8552 25.6243 51.1708L34.6426 51.8319C34.759 51.8406 34.8465 51.9418 34.8381 52.0582C34.8294 52.1746 34.7282 52.262 34.6118 52.2534L25.3724 51.5761C25.0648 52.0822 24.7745 52.6003 24.5026 53.1295L32.7412 53.7333C32.8576 53.742 32.9451 53.8432 32.9366 53.9596C32.928 54.076 32.8268 54.1634 32.7104 54.1548L24.2975 53.5381C24.1109 53.918 23.9339 54.3033 23.7666 54.6937L30.8398 55.2122C30.9562 55.2208 31.0437 55.322 31.0352 55.4384C31.0266 55.5549 30.9254 55.6423 30.809 55.6337L23.5948 55.1049C23.4355 55.4957 23.2857 55.8914 23.1461 56.292L31.4736 56.9023C31.59 56.911 31.6775 57.0122 31.669 57.1286C31.6604 57.245 31.5592 57.3325 31.4428 57.3238L23.0058 56.7052C22.8964 57.038 22.7937 57.3739 22.698 57.7125L28.9384 58.1699C29.0548 58.1786 29.1423 58.2798 29.1338 58.3962C29.1252 58.5126 29.024 58.6001 28.9076 58.5914L22.5843 58.1279C22.504 58.4323 22.4292 58.7393 22.3602 59.0484L27.6708 59.4375C27.7872 59.4462 27.8747 59.5474 27.8662 59.6638C27.8576 59.7802 27.7564 59.8677 27.64 59.859L22.2708 59.4654C22.1766 59.9237 22.095 60.3863 22.0266 60.8534L25.7694 61.1277C25.8858 61.1363 25.9733 61.2375 25.9648 61.3539C25.9562 61.4703 25.855 61.5578 25.7385 61.5492L21.9685 61.2728C21.9121 61.7089 21.8669 62.1485 21.8331 62.5913L24.9243 62.8178C25.0407 62.8265 25.1282 62.9277 25.1197 63.0441C25.1111 63.1605 25.0099 63.248 24.8935 63.2393L21.8047 63.0128C21.787 63.3126 21.7745 63.6137 21.7676 63.916L24.0792 64.0854C24.1957 64.0941 24.2831 64.1953 24.2747 64.3117C24.266 64.4281 24.1648 64.5156 24.0484 64.5069L21.7612 64.3392L21.761 64.366C21.7608 64.3958 21.7608 64.4256 21.7606 64.4553C21.7606 64.4727 21.7606 64.4902 21.7606 64.5075C21.7606 64.618 21.7612 64.7281 21.7627 64.8382L23.0229 64.9305C23.1393 64.9392 23.2268 65.0403 23.2183 65.1568C23.2097 65.2732 23.1085 65.3606 22.9921 65.352L21.7718 65.2626C21.7969 66.1102 21.8645 66.947 21.9723 67.7714C21.8421 67.8527 21.7131 67.9356 21.5848 68.0196L25.5581 68.3108C25.6745 68.3194 25.762 68.4206 25.7535 68.537C25.7449 68.6534 25.6437 68.7409 25.5273 68.7323L21.0209 68.4018C20.4723 68.7868 19.9424 69.1964 19.4329 69.6293L24.5018 70.0009C24.6182 70.0096 24.7057 70.1108 24.6972 70.2272C24.6885 70.3436 24.5873 70.4311 24.4709 70.4224L18.9856 70.0203C18.6042 70.3628 18.2352 70.7188 17.8792 71.0873L23.2342 71.4798C23.3506 71.4884 23.4381 71.5896 23.4296 71.7061C23.4209 71.8225 23.3197 71.9097 23.2033 71.9013L17.5059 71.4836C17.1595 71.8607 16.8263 72.2503 16.5071 72.6515L20.6991 72.9587C20.8154 72.9673 20.9029 73.0685 20.8943 73.1849C20.8858 73.3013 20.7846 73.3886 20.6682 73.3801L16.1959 73.0523C15.8582 73.4978 15.5374 73.9569 15.2345 74.4287L21.1216 74.8601C21.2379 74.8687 21.3254 74.9699 21.3169 75.0863C21.3083 75.2027 21.2071 75.29 21.0907 75.2815L14.9807 74.8337C14.7089 75.2784 14.4527 75.7337 14.213 76.1987L19.0089 76.5502C19.1253 76.5589 19.2127 76.6601 19.2042 76.7765C19.1957 76.8929 19.0944 76.9801 18.978 76.9717L14.0079 76.6072C13.7864 77.0606 13.5803 77.5229 13.3904 77.9934L19.6427 78.4516C19.7591 78.4603 19.8465 78.5615 19.838 78.6779C19.8295 78.7943 19.7282 78.8815 19.6118 78.8731L13.229 78.4051C13.0352 78.9154 12.8601 79.4349 12.7048 79.9628L20.9103 80.5643C21.0267 80.573 21.1141 80.6741 21.1056 80.7906C21.0971 80.907 20.9958 80.9942 20.8794 80.9858L12.5872 80.378C12.4732 80.7961 12.3715 81.2194 12.2825 81.6475L23.4454 82.4657C23.5619 82.4744 23.6493 82.5756 23.6409 82.692C23.6322 82.8084 23.531 82.8956 23.4146 82.8872L12.2 82.0649C12.0944 82.6292 12.0107 83.2009 11.9499 83.7798L24.082 84.6692C24.1984 84.6777 24.2859 84.7789 24.2772 84.8953C24.2688 85.0117 24.1676 85.0991 24.0512 85.0905L11.9099 84.2004C11.8615 84.7675 11.8351 85.3406 11.8315 85.9193L27.0497 86.4487C27.1663 86.453 27.2576 86.5508 27.2533 86.6674C27.2493 86.7838 27.1515 86.8751 27.0349 86.8711L11.8329 86.3423C11.8394 86.8451 11.8631 87.3439 11.9036 87.838L26.6271 88.3501C26.7438 88.3544 26.835 88.4522 26.8308 88.5688C26.8268 88.6852 26.729 88.7765 26.6123 88.7725L11.9425 88.262C11.9916 88.745 12.0566 89.2231 12.137 89.6961L28.106 90.2515C28.2226 90.2558 28.3139 90.3536 28.3097 90.4702C28.3057 90.5866 28.2078 90.6779 28.0912 90.6739L12.2138 90.1216C12.2869 90.5046 12.3702 90.8841 12.4633 91.2597L25.9933 91.7304C26.11 91.7346 26.2012 91.8325 26.197 91.9491C26.193 92.0655 26.0952 92.1568 25.9785 92.1527L12.5738 91.6865C12.6889 92.1132 12.8169 92.5345 12.9572 92.9503L26.83 93.8742C26.9466 93.882 27.0345 93.9825 27.0269 94.0989C27.019 94.2153 26.9185 94.3034 26.8021 94.2958L13.1087 93.384C13.2499 93.7746 13.4022 94.1602 13.565 94.5401L25.7736 95.353C25.8902 95.3608 25.9781 95.4614 25.9705 95.5778C25.9627 95.6942 25.8621 95.7823 25.7457 95.7747L13.7579 94.9763C14.0301 95.5744 14.329 96.158 14.6528 96.7252L25.7736 97.4657C25.8902 97.4735 25.9781 97.5741 25.9705 97.6905C25.9627 97.8069 25.8621 97.895 25.7457 97.8874L14.9114 97.1659C15.2221 97.6814 15.5538 98.1827 15.9053 98.6689L26.3924 99.3671C26.5088 99.3749 26.5969 99.4757 26.5893 99.5921C26.5815 99.7085 26.4809 99.7966 26.3645 99.7888L16.2362 99.1144C16.5882 99.5758 16.9584 100.023 17.3458 100.454L26.4074 101.057C26.524 101.065 26.6119 101.166 26.6043 101.282C26.5965 101.398 26.4959 101.487 26.3795 101.479L17.7629 100.905C18.1827 101.346 18.6209 101.77 19.0764 102.175L24.506 102.536C24.6226 102.544 24.7105 102.645 24.7029 102.761C24.6951 102.877 24.5945 102.965 24.4781 102.958L19.6105 102.634C19.6918 102.701 19.7736 102.768 19.8559 102.835C19.7465 103.171 19.6451 103.511 19.552 103.854L25.1398 104.226C25.2564 104.234 25.3443 104.335 25.3367 104.451C25.3289 104.567 25.2283 104.656 25.1119 104.648L19.4437 104.27C19.3375 104.696 19.244 105.126 19.1635 105.561L24.506 105.916C24.6226 105.924 24.7105 106.025 24.7029 106.141C24.6951 106.258 24.5945 106.346 24.4781 106.338L19.0903 105.979C19.0099 106.467 18.946 106.96 18.899 107.458L24.2947 107.818C24.4114 107.826 24.4993 107.926 24.4916 108.043C24.4838 108.159 24.3833 108.247 24.2669 108.239L18.8634 107.88C18.8318 108.302 18.8125 108.728 18.8056 109.157L27.2525 109.719C27.3691 109.727 27.457 109.828 27.4494 109.944C27.4416 110.06 27.341 110.149 27.2246 110.141L18.803 109.58C18.8042 109.949 18.8147 110.316 18.8342 110.68L29.7877 111.409C29.9041 111.417 29.9922 111.518 29.9846 111.634C29.9768 111.751 29.8762 111.839 29.7598 111.831L18.8612 111.105C18.8972 111.596 18.9496 112.082 19.0179 112.564L29.3713 113.253C29.4879 113.261 29.5758 113.362 29.5682 113.478C29.5604 113.595 29.4598 113.683 29.3434 113.675L19.083 112.992C19.1466 113.383 19.2207 113.77 19.305 114.154L32.3343 114.789C32.4507 114.795 32.5407 114.894 32.535 115.011C32.5293 115.127 32.4302 115.217 32.3136 115.212L19.4037 114.582C19.5307 115.108 19.6772 115.627 19.8422 116.138L35.5033 116.902C35.6197 116.908 35.7097 117.007 35.704 117.123C35.6983 117.24 35.5993 117.33 35.4826 117.324L19.9862 116.568C20.1339 116.994 20.2946 117.414 20.4678 117.828L36.1371 118.592C36.2535 118.598 36.3435 118.697 36.3378 118.813C36.3321 118.93 36.2331 119.02 36.1164 119.014L20.6545 118.26C20.8424 118.682 21.0435 119.098 21.2573 119.505L37.1935 120.282C37.3099 120.288 37.3999 120.387 37.3942 120.504C37.3885 120.62 37.2894 120.71 37.1728 120.705L21.4916 119.94C21.7621 120.427 22.0509 120.904 22.3572 121.367L39.0949 122.184C39.2113 122.189 39.3013 122.289 39.2956 122.405C39.2899 122.522 39.1908 122.611 39.0742 122.606L22.6538 121.805C22.8558 122.095 23.0647 122.38 23.2802 122.659L39.5174 123.451C39.6338 123.457 39.7238 123.556 39.7181 123.673C39.7124 123.789 39.6133 123.879 39.4967 123.874L23.629 123.099C24.0011 123.557 24.3917 123.999 24.7995 124.424L39.5174 125.142C39.6338 125.147 39.7238 125.246 39.7181 125.363C39.7124 125.479 39.6133 125.569 39.4967 125.564L25.2383 124.868C25.3249 124.953 25.4121 125.038 25.5 125.121H23.4902C22.4069 124.277 19.7199 120.249 17.6397 110.888C15.6077 111.02 12.6934 112.104 9.81404 113.954H10.4303C10.547 113.954 10.6416 114.049 10.6416 114.166C10.6416 114.282 10.547 114.377 10.4303 114.377H9.17684C8.62448 114.755 8.07594 115.16 7.53774 115.592H8.17323C8.28991 115.592 8.3845 115.687 8.3845 115.804C8.3845 115.92 8.28991 116.015 8.17323 116.015H7.02499C6.71417 116.278 6.40762 116.55 6.10667 116.83H6.49868C6.61536 116.83 6.70995 116.925 6.70995 117.041C6.70995 117.158 6.61536 117.253 6.49868 117.253H5.66434C5.34725 117.563 5.03734 117.883 4.73624 118.213H8.64647C8.76315 118.213 8.85774 118.308 8.85774 118.425C8.85774 118.541 8.76315 118.636 8.64647 118.636H4.36008C4.00923 119.04 3.67198 119.458 3.35111 119.888H5.0789C5.19558 119.888 5.29017 119.983 5.29017 120.099C5.29017 120.216 5.19558 120.31 5.0789 120.31H3.04437C2.8226 120.624 2.60969 120.945 2.40664 121.271H6.49868C6.61536 121.271 6.70995 121.366 6.70995 121.483C6.70995 121.599 6.61536 121.694 6.49868 121.694H2.1516C1.981 121.985 1.81834 122.281 1.6643 122.582H6.71711C6.83379 122.582 6.92838 122.676 6.92838 122.793C6.92838 122.91 6.83379 123.004 6.71711 123.004H1.455C1.27603 123.379 1.11052 123.76 0.95973 124.147H6.71711C6.83379 124.147 6.92838 124.242 6.92838 124.358C6.92838 124.475 6.83379 124.57 6.71711 124.57H0.802184C0.194453 126.273 -0.126923 128.099 -0.0577555 130.027H33.7517C35.8319 130.696 38.0497 131.057 40.3521 131.057C42.6545 131.057 44.8724 130.696 46.9526 130.027H89.2088C89.1902 130.087 89.1718 130.148 89.1539 130.208C88.6743 131.817 88.4168 133.521 88.4168 135.286C88.4168 145.09 96.364 153.037 106.167 153.037C115.971 153.037 123.918 145.09 123.918 135.286C123.918 133.357 123.61 131.499 123.041 129.76C131.054 128.046 137.062 120.925 137.062 112.401ZM65.3195 43.2971C65.186 44.1977 65.8861 44.3311 66.3366 44.3144L67.5205 44.3632C67.5205 44.3632 68.4042 44.5966 68.9878 43.7961C69.446 43.168 68.7708 42.2665 68.1797 41.4775L68.1784 41.4758C68.0166 41.2601 67.8613 41.0526 67.7373 40.8614C67.4611 40.4363 67.4354 39.9411 67.4134 39.5237C67.3866 39.0077 67.3659 38.6103 66.8867 38.6103C66.0201 38.6103 65.4528 42.3967 65.3195 43.2971ZM91.5087 53.304C90.7722 53.8392 91.1673 54.4326 91.4943 54.7423L92.2883 55.6218C92.2883 55.6218 92.7406 56.4164 93.7206 56.273C94.4899 56.1601 94.6608 55.047 94.8104 54.0722C94.8514 53.8049 94.8909 53.5482 94.9405 53.3253C95.0508 52.831 95.3861 52.4661 95.6685 52.1583L95.6692 52.1577C96.0188 51.7772 96.288 51.4842 95.9527 51.1421C95.3459 50.5233 92.2449 52.7689 91.5087 53.304ZM79.7719 45.6639C79.2953 46.4395 79.8868 46.8375 80.3073 46.9991L81.3767 47.5094C81.3767 47.5094 82.0976 48.0715 82.949 47.5647C83.617 47.1671 83.3504 46.0727 83.1169 45.1146C83.0529 44.852 82.9914 44.5998 82.9526 44.3748C82.8659 43.8753 83.0366 43.4099 83.1807 43.0176L83.1811 43.0168C83.3588 42.5321 83.4957 42.1586 83.0552 41.9706C82.2585 41.6298 80.2483 44.8886 79.7719 45.6639ZM99.87 64.3634C99 64.6311 99.1813 65.3207 99.3904 65.7196L99.8567 66.8091C99.8567 66.8091 100.027 67.7072 101.001 67.8889C101.765 68.0315 102.287 67.0339 102.745 66.1603L102.745 66.1599L102.746 66.1569C102.871 65.9186 102.991 65.6898 103.11 65.4958C103.375 65.0638 103.81 64.827 104.177 64.6273L104.178 64.6271C104.632 64.3806 104.981 64.1906 104.775 63.7582C104.401 62.9763 100.74 64.0958 99.87 64.3634ZM70.6006 116.55C70.6899 115.644 69.9839 115.545 69.5349 115.583L68.35 115.592C68.35 115.592 67.4559 115.402 66.9121 116.23C66.4853 116.88 67.2036 117.747 67.8326 118.507L67.8328 118.507C68.0052 118.715 68.171 118.915 68.3045 119.101C68.6007 119.511 68.6508 120.005 68.693 120.421C68.745 120.935 68.7852 121.331 69.2637 121.307C70.129 121.265 70.5112 117.456 70.6006 116.55ZM43.1081 108.246C43.8638 107.739 43.4911 107.131 43.1759 106.809L42.4152 105.901C42.4152 105.901 41.9931 105.09 41.0081 105.197C40.2355 105.281 40.0232 106.387 39.8373 107.355V107.355C39.7864 107.621 39.7373 107.876 39.6792 108.097C39.5506 108.587 39.2018 108.94 38.9077 109.237L38.9075 109.237C38.5441 109.604 38.2644 109.887 38.5868 110.241C39.1701 110.882 42.3522 108.753 43.1081 108.246ZM55.9057 115.508C56.4034 114.745 55.823 114.331 55.4073 114.158L54.3522 113.619C54.3522 113.619 53.6472 113.037 52.7821 113.52C52.1035 113.899 52.3397 115 52.5465 115.964C52.6033 116.228 52.6578 116.483 52.6906 116.709C52.7635 117.21 52.5799 117.67 52.425 118.059C52.2336 118.539 52.0864 118.909 52.5214 119.109C53.3088 119.472 55.4079 116.27 55.9057 115.508ZM35.0153 96.9008C35.8859 96.6358 35.7068 95.9456 35.4991 95.5459L35.0362 94.4551C35.0362 94.4551 34.8687 93.5564 33.8956 93.3718C33.1319 93.2266 32.6062 94.2227 32.1461 95.0951L32.1448 95.0974C32.0191 95.3357 31.8983 95.5647 31.7787 95.7584C31.5127 96.1899 31.0764 96.4252 30.7084 96.6238C30.2538 96.8691 29.9035 97.058 30.1086 97.4908C30.4796 98.274 34.1442 97.1657 35.0153 96.9008ZM31.6278 83.5582C32.5376 83.5831 32.5864 82.8718 32.5162 82.4268L32.4233 81.2456C32.4233 81.2456 32.5496 80.3401 31.6853 79.8563C31.0069 79.4765 30.1925 80.2546 29.4795 80.9357L29.4788 80.9365C29.2834 81.1229 29.0958 81.302 28.9207 81.4482C28.5317 81.773 28.0433 81.8577 27.6313 81.9293C27.1221 82.0176 26.73 82.0856 26.7873 82.5614C26.8906 83.4217 30.7177 83.533 31.6278 83.5582ZM103.005 77.6949C102.096 77.6699 102.047 78.381 102.117 78.826L102.21 80.0074C102.21 80.0074 102.084 80.9127 102.948 81.3965C103.626 81.7763 104.441 80.9984 105.154 80.3171L105.16 80.3112C105.353 80.1265 105.539 79.9493 105.712 79.8046C106.102 79.4799 106.59 79.3949 107.002 79.3235C107.511 79.2352 107.903 79.1672 107.846 78.6916C107.742 77.8311 103.915 77.7198 103.005 77.6949ZM32.7294 69.0625C33.5762 69.3967 33.8647 68.7449 33.9505 68.3025L34.2666 67.1604C34.2666 67.1604 34.6942 66.3525 34.0469 65.6027C33.539 65.0144 32.5078 65.4675 31.605 65.8645C31.3576 65.9733 31.1197 66.0777 30.9051 66.1554C30.4285 66.3278 29.9404 66.2408 29.5289 66.1675L29.5283 66.1672C29.02 66.0768 28.6285 66.0071 28.5199 66.4736C28.3234 67.3176 31.8826 68.7284 32.7294 69.0625ZM101.896 91.3493C101.053 91.006 100.758 91.6546 100.667 92.0957L100.338 93.2342C100.338 93.2342 99.9019 94.0375 100.541 94.7944C101.042 95.3883 102.078 94.9465 102.985 94.5599L102.985 94.5597L102.985 94.5595C103.234 94.4534 103.473 94.3516 103.688 94.2762C104.167 94.1091 104.654 94.2014 105.065 94.2794C105.573 94.3757 105.964 94.4499 106.077 93.9844C106.283 93.1427 102.739 91.6926 101.896 91.3493ZM39.7904 56.6672C40.4284 57.3164 40.957 56.8381 41.2152 56.4688L41.9679 55.5536C41.9679 55.5536 42.6869 54.9893 42.4002 54.0411C42.1752 53.297 41.0489 53.2922 40.0627 53.2882C39.7925 53.2871 39.5326 53.2858 39.3049 53.2698C38.7993 53.2334 38.3888 52.9556 38.0426 52.7213C37.6145 52.4317 37.285 52.2088 36.9959 52.591C36.4737 53.2825 39.1526 56.0177 39.7904 56.6672ZM94.7121 103.718C94.0635 103.079 93.5428 103.566 93.2907 103.939L92.5528 104.866C92.5528 104.866 91.8431 105.442 92.145 106.386C92.3823 107.126 93.5081 107.113 94.4939 107.101H94.4943H94.5004C94.7685 107.098 95.0261 107.095 95.2526 107.107C95.7585 107.135 96.1737 107.406 96.5235 107.635L96.524 107.635C96.9566 107.918 97.2896 108.135 97.5721 107.748C98.0833 107.048 95.3603 104.357 94.7121 103.718ZM50.429 47.1709C50.7495 48.0227 51.4266 47.7994 51.8121 47.5662L52.871 47.0342C52.871 47.0342 53.7569 46.8092 53.8785 45.8262C53.974 45.0546 52.946 44.5943 52.0458 44.1912L52.042 44.1897C51.7967 44.0799 51.5609 43.9742 51.3602 43.8675C50.913 43.6299 50.6497 43.2096 50.4281 42.8551L50.4279 42.8547C50.1537 42.417 49.9426 42.0798 49.5241 42.3124C48.7665 42.733 50.1085 46.3189 50.429 47.1709ZM85.2285 112.136C84.8833 111.294 84.2132 111.537 83.8346 111.781L82.7916 112.343C82.7916 112.343 81.9125 112.594 81.8193 113.58C81.7462 114.354 82.7873 114.785 83.6985 115.161C83.9483 115.265 84.1883 115.364 84.393 115.465C84.8472 115.69 85.1223 116.102 85.3542 116.45C85.6409 116.88 85.8617 117.211 86.2737 116.966C87.0186 116.524 85.5735 112.978 85.2285 112.136ZM100.833 80.319C100.833 98.7789 85.868 113.744 67.4079 113.744C48.948 113.744 33.9831 98.7789 33.9831 80.319C33.9831 61.8587 48.948 46.8939 67.4079 46.8939C85.868 46.8939 100.833 61.8587 100.833 80.319ZM51.7264 75.6549C51.7264 75.6549 50.8828 76.0364 49.5045 76.8648C48.1261 77.6932 47.5528 77.5303 47.0519 77.0558C47.0519 77.0558 46.9185 76.9453 46.9944 76.9075C47.0286 76.8903 47.0599 76.9024 47.115 76.9233L47.1154 76.9235C47.2019 76.9563 47.3464 77.0114 47.6497 77.0114C48.0262 77.0114 48.4946 76.6039 49.1153 76.0637L49.1166 76.0626C50.339 74.9987 52.1529 73.4203 55.0207 73.4203C58.8277 73.4203 60.6974 76.3358 60.6974 76.3358C60.6974 76.3358 60.8147 76.4898 60.6615 76.517C60.6304 76.5225 60.5633 76.4748 60.4445 76.3907L60.4428 76.3896C60.0883 76.1382 59.279 75.5644 57.6195 75.1043C57.6195 75.1043 58.1432 78.3893 54.5842 78.3893C51.5846 78.3893 51.7264 75.6549 51.7264 75.6549ZM52.1003 75.5011C52.1003 75.5011 52.14 77.7086 54.4061 77.7086C57.1314 77.7086 57.1114 75.0399 57.1114 75.0399C56.4334 74.885 55.7698 74.8784 55.7698 74.8784C55.7698 74.8784 56.1161 76.1395 54.802 76.1395C53.4879 76.1395 53.7243 74.9663 53.7243 74.9663C52.7088 75.1345 52.1003 75.5011 52.1003 75.5011ZM50.8927 73.1655C50.8927 73.1655 51.953 70.832 54.498 70.832C57.0427 70.832 58.0042 73.3381 58.0042 73.3381C58.0042 73.3381 56.5105 71.4616 54.498 71.4616C52.485 71.4616 50.8927 73.1655 50.8927 73.1655ZM45.7492 70.8301C45.7492 70.8301 47.2752 66.3113 51.4405 66.3113C53.1304 66.3113 54.1908 66.7011 55.2326 67.0842H55.233C56.2388 67.4541 57.2276 67.8177 58.7491 67.8177C60.3809 67.8177 61.5161 67.1509 61.5161 67.1509C61.5161 67.1509 60.2569 68.9287 57.934 68.9287C56.7226 68.9287 55.7278 68.6435 54.7196 68.3545L54.7181 68.3541C53.6818 68.0568 52.6312 67.7558 51.3169 67.7558C48.0446 67.7558 45.7492 70.8301 45.7492 70.8301ZM59.4419 60.1026C59.4419 60.1026 59.9605 61.8434 56.3058 61.8187C56.3058 61.8187 58.0344 63.0411 59.4666 61.9915C60.4906 61.2413 59.4419 60.1026 59.4419 60.1026ZM73.8057 59.7067C73.7945 59.6839 73.6866 60.4271 74.425 60.9145C75.0888 61.3523 76.7842 61.9292 77.2259 61.3039C77.2259 61.3039 77.1759 60.7111 75.6617 60.6572C74.8264 60.6276 73.9403 59.9801 73.8057 59.7067ZM78.0389 74.427C78.0389 74.427 76.5824 75.0251 75.1126 76.6493C75.1141 76.6013 76.4994 72.7892 79.7436 72.7892C82.0255 72.7892 83.8931 73.8971 85.4884 74.8434H85.4886C86.7256 75.5773 87.7986 76.2139 88.7742 76.1619C88.7742 76.1619 88.4559 76.6037 87.5265 76.6037C87.0074 76.6037 85.9984 76.1851 85.2161 75.8606L85.2106 75.8583C84.7629 75.6726 84.3902 75.5182 84.2278 75.4918C84.2278 75.4918 84.6209 78.1309 81.5474 78.1309C78.4735 78.1309 78.0389 74.427 78.0389 74.427ZM78.4682 74.2759C78.4682 74.2759 78.3805 77.1906 81.4781 77.1906C83.6582 77.1906 83.6776 75.2503 83.6776 75.2503C82.8266 74.9319 82.1639 74.7358 82.1639 74.7358C82.1639 74.7358 82.2195 75.9052 81.0871 75.9052C79.7707 75.9052 80.1731 74.2358 80.1731 74.2358C79.1445 74.0359 78.4682 74.2759 78.4682 74.2759ZM85.1903 73.3964C85.1903 73.3964 83.5859 69.9593 80.7617 69.9593C77.9373 69.9593 75.5368 73.3873 75.5368 73.3873C75.5368 73.3873 78.3934 70.6913 80.8359 70.6913C83.2779 70.6913 85.1903 73.3964 85.1903 73.3964ZM86.8542 68.4612C86.8542 68.4612 86.3094 66.1358 82.9075 66.1358C81.8677 66.1358 80.9499 66.3726 79.916 66.6394L79.9149 66.6396C78.5825 66.9836 77.0573 67.3772 74.8302 67.3772C73.5036 67.3772 73.0141 66.571 73.0141 66.571C73.0141 66.571 72.6406 68.4891 77.0535 68.4891C79.1168 68.4891 80.2259 68.1481 81.2588 67.8303L81.2599 67.8301L81.2607 67.8299C82.1616 67.553 83.0047 67.2937 84.3725 67.2937C85.9111 67.2937 86.8542 68.4612 86.8542 68.4612ZM78.1099 78.5678C78.1099 78.5678 78.8419 79.4106 79.5275 79.5407C79.6851 79.5705 79.849 79.5565 80.0257 79.5415L80.0259 79.5413C80.4509 79.5054 80.9483 79.463 81.6028 80.0131C81.6028 80.0131 81.4109 80.4301 80.4076 80.4301C78.6537 80.4301 78.1099 78.5678 78.1099 78.5678ZM69.0159 75.2144C68.9379 75.2923 67.7833 77.9289 69.843 79.9573C69.6402 76.6964 69.2499 75.6667 69.0159 75.2144ZM65.5976 76.6651C65.4824 76.6191 65.4427 76.9934 65.3933 77.4635L65.3928 77.4671C65.3417 77.9503 65.28 78.5336 65.1142 78.8651C64.7865 79.5204 65.036 80.5501 65.036 80.5501C65.036 80.5501 65.7856 79.9647 65.8316 79.0525C65.8942 77.8199 65.8316 76.7589 65.5976 76.6651ZM59.1543 78.8661C59.2502 78.662 59.1357 78.5974 59.0432 78.7178C59.0356 78.7277 59.024 78.7442 59.0083 78.7664C58.8345 79.0146 58.169 79.9643 57.0974 80.1259C55.9302 80.3021 55.263 80.6913 55.4483 81.0432C55.6337 81.3952 56.94 81.4231 57.6628 80.9321C58.215 80.5567 58.5706 80.1075 59.1543 78.8661ZM59.9176 84.5507L59.9178 84.5503C60.1116 84.2097 60.5584 83.4257 61.5947 82.9353C61.5947 82.9353 60.2529 84.6819 60.2529 86.0401C60.2529 86.9678 60.821 87.582 61.136 87.9225L61.1366 87.9234C61.2826 88.081 61.3741 88.1799 61.3295 88.2244C61.189 88.3647 60.1437 88.4583 59.3793 87.1478C59.3793 87.1478 58.6942 88.2857 56.6971 88.2857C56.4235 88.2857 55.9764 88.2249 55.4371 88.1513H55.4364C53.2978 87.8602 49.7064 87.3713 49.7064 89.6898C49.7064 91.0833 50.1123 91.4059 50.1123 91.4059C50.1123 91.4059 49.0513 91.0315 49.0513 89.4557C49.0513 87.8801 50.5014 87.1468 52.9517 87.1468C54.2994 87.1468 54.9765 87.2363 55.5856 87.317H55.586L55.5873 87.3172C56.0848 87.3832 56.5376 87.4432 57.2742 87.4432C58.9133 87.4432 59.5832 85.5396 59.5365 83.8079L59.7849 84.6982C59.8031 84.7514 59.8401 84.6863 59.9176 84.5507ZM62.1154 86.9082C62.5602 87.4827 63.9034 88.5202 64.9226 88.752C65.3117 88.1496 64.1073 86.2782 62.1154 86.9082ZM69.221 88.8069C69.0074 88.937 68.767 88.8069 69.0822 88.427C69.397 88.0472 70.8047 86.5098 71.2866 86.4819C71.7683 86.4542 72.8985 86.6393 72.769 87.0749C72.6393 87.5103 71.8424 88.1589 71.2866 88.122C70.7307 88.0848 69.4348 88.6768 69.221 88.8069ZM75.3015 84.6878C75.3015 84.6878 74.4397 83.3167 73.504 82.9182C73.504 82.9182 74.9489 84.7457 74.9489 86.0678C74.9489 87.6342 73.504 88.4581 73.504 88.4581C73.504 88.4581 74.7727 88.8842 75.8109 87.1334C75.8109 87.1334 76.6473 88.0782 78.4961 88.0782C78.7973 88.0782 79.1349 88.0503 79.4859 88.0212L79.4911 88.0208H79.4916C80.4366 87.9424 81.4771 87.8562 82.1649 88.2811C83.9278 89.3699 83.6483 92.1361 83.6483 92.1361C83.6483 92.1361 84.0653 91.4872 84.0653 89.8932C84.0653 88.6561 82.8526 87.2249 80.2851 87.2249C80.1118 87.2249 79.8993 87.2406 79.6616 87.2583C78.0938 87.3745 75.4344 87.5716 75.7722 83.8628C75.4202 84.2602 75.3015 84.6878 75.3015 84.6878ZM45.9089 93.4457C46.0346 93.5368 46.2676 93.5393 46.1584 93.3052C46.1421 93.2703 46.1126 93.2125 46.0741 93.137L46.0739 93.1364C45.8527 92.7023 45.3385 91.6928 45.3784 91.2147C45.4099 90.8359 45.2569 90.6842 45.0919 90.5203C45.0121 90.4411 44.9295 90.3591 44.8633 90.2473C44.6605 89.9042 44.2862 89.7481 44.1459 90.2473C44.0052 90.7465 44.1611 92.1819 45.9089 93.4457ZM88.6855 93.2279C88.5632 93.6494 88.8104 93.774 89.0755 93.3996C89.3409 93.0251 90.3393 90.6849 90.0273 89.9203C90.0093 89.8765 89.992 89.8341 89.9755 89.7931L89.9753 89.7925C89.7017 89.117 89.5828 88.8238 89.2004 89.2651C88.7947 89.7331 88.7009 90.3415 88.8104 90.7472C88.9196 91.1528 88.859 92.6308 88.6855 93.2279ZM53.9797 92.3532C54.1073 92.3634 56.0859 92.8003 58.0671 94.6256C60.0486 96.4512 62.5976 98.5263 65.9776 98.5263C74.6804 98.5263 77.7881 93.3151 77.7881 93.3151C77.7881 93.3151 78.8799 93.1896 79.8315 91.6605C79.8416 91.6645 79.8575 91.6727 79.878 91.6833L79.8786 91.6835C80.0502 91.7716 80.5555 92.0311 80.954 91.5937C81.2445 91.2747 80.7266 90.8298 80.5084 90.8456C80.2897 90.861 80.0189 90.5678 80.0968 89.8658C80.0968 89.8658 79.2773 90.2904 79.6832 91.3356C79.6832 91.3356 78.6336 92.4868 76.4316 92.4868C74.2297 92.4868 68.5836 92.5024 67.2729 93.1263C67.2729 93.1263 66.0818 92.5178 63.9645 92.5178C63.8578 92.5178 63.7386 92.5178 63.6078 92.518H63.6051C61.1377 92.5197 54.6556 92.5237 54.1519 92.0499C54.1519 92.0499 54.746 91.4765 54.5745 91.3985C54.4029 91.3206 53.3533 91.2213 53.088 91.7361C52.8228 92.2512 53.4408 92.8242 53.9797 92.3532ZM57.5483 93.3785C58.0942 93.5188 63.0581 93.5862 64.628 93.5862C66.1978 93.5862 67.2805 94.257 67.2805 94.257C68.5756 93.3365 77.0333 93.508 77.0333 93.508C77.0333 93.508 72.6499 97.1277 66.8599 97.1277C63.7999 97.1277 61.8055 96.2851 60.4156 95.2085C59.7055 94.6588 58.717 94.1053 58.083 93.7503L58.0823 93.7499C57.5873 93.473 57.3087 93.3168 57.5483 93.3785ZM65.8948 100.722L65.888 100.719C65.6123 100.599 64.9114 100.295 64.4333 99.3249C64.4333 99.3249 66.5552 99.6692 67.6766 99.527C69.0661 99.3513 71.0952 99.3405 71.0952 99.3405C71.0952 99.3405 70.9234 99.8551 69.847 100.386C69.847 100.386 71.0603 100.693 71.929 102.195C72.0552 102.413 71.7623 102.51 71.5008 102.336C71.2452 102.165 68.5684 100.916 67.6471 100.916C67.1369 100.916 66.6157 101.321 66.1154 101.709L66.1149 101.71L66.1143 101.71C65.6527 102.069 65.2088 102.414 64.8076 102.414C64.1047 102.414 65.2959 101.002 65.9776 100.76C65.9586 100.75 65.9307 100.738 65.8948 100.722Z" fill="#1F1F1F"/>
</g>
</g>
<defs>
<clipPath id="clip0_25_8658">
<rect width="120" height="129.93" fill="white" transform="translate(0 0.0703125)"/>
</clipPath>
</defs>
</svg>
