<svg width="120" height="130" viewBox="0 0 120 130" fill="none" xmlns="http://www.w3.org/2000/svg">
<g clip-path="url(#clip0_25_8664)">
<mask id="mask0_25_8664" style="mask-type:luminance" maskUnits="userSpaceOnUse" x="0" y="0" width="120" height="130">
<path d="M120 0H0V129.93H120V0Z" fill="white"/>
</mask>
<g mask="url(#mask0_25_8664)">
<path fill-rule="evenodd" clip-rule="evenodd" d="M18.4243 11.8649C18.1395 11.941 17.8519 12.0101 17.5616 12.0722C17.6298 12.2806 17.6942 12.4907 17.7549 12.7024L18.5237 12.5586C25.0765 11.3937 28.8383 6.80022 29.9003 4.64911L28.7796 4.29331V4.29249L28.7768 4.29653L26.3314 3.99378C26.2156 3.97945 26.11 4.0617 26.0956 4.1775C26.0815 4.29329 26.1637 4.39878 26.2794 4.41312L28.5165 4.69007C28.2721 5.04921 28.0148 5.3989 27.7454 5.73851L20.1844 5.19699C20.068 5.18864 19.9669 5.27623 19.9586 5.39262C19.9502 5.50901 20.0378 5.6101 20.1542 5.61845L27.4182 6.13872C27.0985 6.51862 26.763 6.88489 26.4129 7.23659L19.955 6.77406C19.8386 6.76574 19.7375 6.85333 19.7292 6.9697C19.7209 7.08608 19.8084 7.18719 19.9248 7.19552L26.0075 7.63117C25.6729 7.9466 25.3262 8.24917 24.9679 8.53812L19.955 8.17907C19.8386 8.17075 19.7375 8.25834 19.7292 8.37471C19.7209 8.49109 19.8084 8.59221 19.9248 8.60053L24.4691 8.92601C23.9398 9.32275 23.3878 9.69061 22.8151 10.0273L16.6289 9.58419C16.5125 9.57587 16.4114 9.66344 16.4031 9.77983C16.3947 9.89622 16.4823 9.99731 16.5987 10.0057L22.1434 10.4028C21.317 10.8415 20.4517 11.2168 19.5542 11.5222L16.9156 11.3332C16.7992 11.3249 16.6981 11.4125 16.6898 11.5289C16.6815 11.6453 16.7691 11.7463 16.8854 11.7547L18.4243 11.8649ZM18.0553 13.9117C18.023 13.7585 17.9887 13.6061 17.9524 13.4544C18.3459 13.7676 19.4527 15.0078 19.4527 18.196C19.4527 21.6942 17.847 28.9772 10.1912 33.8803L9.36057 33.0904C9.55677 32.9803 9.75067 32.8667 9.94218 32.7494L7.61659 32.583C7.50021 32.5745 7.41262 32.4735 7.42096 32.3571C7.42928 32.2407 7.5304 32.153 7.64676 32.1615L10.5376 32.3685C10.9446 32.0966 11.3398 31.8082 11.7221 31.5044L9.16493 31.3213C9.04857 31.313 8.96097 31.2118 8.9693 31.0954C8.97764 30.979 9.07873 30.8915 9.19512 30.8998L12.1956 31.1146C12.6614 30.7177 13.1065 30.297 13.5289 29.8546L8.78522 29.5149C8.66883 29.5065 8.58124 29.4055 8.58959 29.2891C8.59791 29.1727 8.69902 29.085 8.81539 29.0934L13.8968 29.4575C14.2135 29.1049 14.5163 28.7396 14.8043 28.3625L8.32641 27.8985C8.21004 27.8901 8.12245 27.7891 8.13078 27.6727C8.13912 27.5563 8.24021 27.4688 8.3566 27.477L15.1026 27.9602C15.3983 27.5495 15.6769 27.1257 15.9373 26.6899L10.7923 26.3214C10.6759 26.3132 10.5883 26.212 10.5967 26.0956C10.605 25.9791 10.7061 25.8917 10.8225 25.8999L16.1731 26.2832C16.3681 25.9363 16.5518 25.582 16.7237 25.2209L12.4697 24.9163C12.3533 24.908 12.2657 24.8068 12.2741 24.6904C12.2824 24.574 12.3835 24.4865 12.4999 24.4948L16.9126 24.8108C17.0753 24.4453 17.226 24.0735 17.3642 23.6953L14.7923 23.5111C14.6759 23.5029 14.5883 23.4017 14.5966 23.2853C14.605 23.1691 14.7061 23.0814 14.8224 23.0896L17.5095 23.2821C17.6441 22.8837 17.7649 22.4789 17.8714 22.0684L15.9965 21.9342C15.8801 21.9258 15.7926 21.8246 15.8009 21.7084C15.8092 21.592 15.9103 21.5043 16.0267 21.5127L17.974 21.6522C18.0518 21.319 18.1202 20.9822 18.179 20.6422L16.5987 20.529C16.4823 20.5207 16.3947 20.4196 16.4031 20.3032C16.4114 20.1868 16.5125 20.0992 16.6289 20.1075L18.2462 20.2234C18.3 19.8598 18.3429 19.4926 18.3744 19.1222L15.9965 18.9519C15.8801 18.9436 15.7926 18.8425 15.8009 18.7261C15.8092 18.6097 15.9103 18.5221 16.0267 18.5305L18.4052 18.7008C18.4275 18.3364 18.4388 17.969 18.4388 17.5989C18.4388 17.5789 18.4388 17.5588 18.4387 17.5388L18.4386 17.5169L16.4553 17.3748C16.3389 17.3665 16.2514 17.2654 16.2597 17.149C16.268 17.0326 16.3691 16.9451 16.4855 16.9534L18.4317 17.0928C18.4191 16.641 18.3896 16.1935 18.3438 15.7508L16.5987 15.6258C16.4823 15.6175 16.3947 15.5164 16.4031 15.4C16.4114 15.2836 16.5125 15.196 16.6289 15.2043L18.2944 15.3236C18.2521 14.9933 18.2007 14.6658 18.1406 14.3414L16.4553 14.2207C16.3389 14.2123 16.2514 14.1113 16.2597 13.9949C16.268 13.8785 16.3691 13.7909 16.4855 13.7992L18.0553 13.9117ZM7.31011 34.0732C7.38809 34.0418 7.46579 34.0099 7.5432 33.9775C8.05212 34.1945 8.76515 34.5266 8.76515 34.6413C8.76515 34.7567 7.24166 35.4408 5.72837 35.9241C5.58908 35.4412 5.51765 34.8598 5.49874 34.6899L5.51317 34.6859C5.50736 34.68 5.50176 34.6739 5.49631 34.6677C5.49445 34.6504 5.49354 34.6413 5.49354 34.6413C5.48689 34.6418 5.48045 34.6413 5.47419 34.6403C5.41664 34.5621 5.38557 34.4639 5.39304 34.3595C5.40971 34.1267 5.61192 33.9515 5.84467 33.9682L7.31011 34.0732ZM-17.0624 17.5989C-17.0624 27.1105 -9.58122 34.8748 -0.182123 35.3286V75.4128C-2.26843 77.1608 -3.59506 79.7858 -3.59506 82.7208C-3.59506 85.4672 -2.43313 87.9424 -0.574072 89.6816C-9.00987 92.2667 -15.144 100.117 -15.144 109.399C-15.144 120.788 -5.91214 130.019 5.47584 130.019C7.85512 130.019 10.1403 129.616 12.2668 128.875L4.60626 128.807C4.4896 128.806 4.39582 128.711 4.39685 128.594C4.39789 128.477 4.4933 128.384 4.60998 128.385L13.3513 128.462C14.2572 128.087 15.1305 127.65 15.9659 127.155L5.74698 127.065C5.63032 127.064 5.53654 126.968 5.53757 126.852C5.53861 126.735 5.63404 126.641 5.7507 126.642L16.6397 126.739C17.2594 126.339 17.8564 125.907 18.4281 125.445L4.6414 125.323C4.57825 125.322 4.52184 125.294 4.48352 125.25C4.451 125.212 4.43152 125.163 4.43199 125.11C4.433 124.993 4.52843 124.899 4.64509 124.9L18.9291 125.026C19.6488 124.406 20.3251 123.737 20.953 123.024L6.01772 122.893C5.90106 122.892 5.80728 122.796 5.80831 122.679C5.80935 122.563 5.90478 122.469 6.02144 122.47L21.3127 122.605C21.7334 122.101 22.1303 121.577 22.5022 121.034L5.71187 120.885C5.59518 120.885 5.50142 120.789 5.50246 120.672C5.50347 120.556 5.5989 120.462 5.71557 120.463L22.7823 120.614C23.1516 120.045 23.4934 119.457 23.8063 118.852L5.47295 118.69C5.35628 118.689 5.2625 118.593 5.26354 118.477C5.26457 118.36 5.35998 118.266 5.47666 118.267L24.0176 118.431C24.3041 117.844 24.5633 117.242 24.794 116.626L8.91553 116.625C8.79887 116.625 8.70426 116.531 8.70426 116.414C8.70426 116.298 8.79887 116.203 8.91553 116.203L24.9467 116.203C25.1379 115.656 25.3065 115.099 25.4517 114.532H11.4904C11.3737 114.532 11.2791 114.438 11.2791 114.321C11.2791 114.204 11.3737 114.11 11.4904 114.11H25.5552C25.6834 113.561 25.7897 113.004 25.8732 112.439H11.9492C11.8325 112.439 11.7379 112.344 11.7379 112.228C11.7379 112.111 11.8325 112.017 11.9492 112.017H25.931C26.0113 111.384 26.0627 110.742 26.0842 110.093H11.4586C11.3419 110.093 11.2473 109.998 11.2473 109.881C11.2473 109.765 11.3419 109.67 11.4586 109.67H26.0939C26.0944 109.636 26.0946 109.602 26.095 109.568C26.0954 109.512 26.0956 109.456 26.0956 109.399C26.0956 108.843 26.0736 108.292 26.0303 107.746L11.9174 107.746C11.8007 107.746 11.7061 107.651 11.7061 107.535C11.7061 107.418 11.8007 107.324 11.9174 107.324L25.9923 107.324C25.9473 106.873 25.8877 106.426 25.8142 105.985L15.6002 105.616C15.4836 105.612 15.3925 105.514 15.3967 105.397C15.4009 105.28 15.4989 105.189 15.6154 105.194L25.7388 105.559C25.6283 104.973 25.4931 104.396 25.3342 103.829L16.6879 103.437C16.5714 103.432 16.4812 103.333 16.4864 103.217C16.4917 103.1 16.5904 103.01 16.707 103.015L25.2091 103.4C25.031 102.813 24.8274 102.237 24.5996 101.674L16.4919 101.674C16.3753 101.674 16.2807 101.58 16.2807 101.463C16.2807 101.347 16.3753 101.252 16.4919 101.252L24.4232 101.252C24.1951 100.721 23.9451 100.203 23.6745 99.6963H17.2948C17.2344 99.6963 17.1799 99.671 17.1414 99.6304C17.1055 99.5926 17.0835 99.5415 17.0835 99.4851C17.0835 99.3684 17.1781 99.2738 17.2948 99.2738H23.4423C23.1865 98.8206 22.9139 98.3782 22.6256 97.9472L13.8755 97.9474C13.7589 97.9474 13.6643 97.8528 13.6643 97.7362C13.6643 97.6193 13.7589 97.5249 13.8755 97.5249L22.3351 97.5247C21.9522 96.982 21.5437 96.4587 21.1113 95.9563L12.9825 95.7968C12.8659 95.7944 12.7732 95.6981 12.7755 95.5813C12.7777 95.4646 12.8742 95.3719 12.9908 95.3742L20.7306 95.5261C20.2998 95.0527 19.8473 94.5993 19.3746 94.1677L13.2406 94.0475C13.1239 94.0451 13.0312 93.9486 13.0335 93.832C13.0358 93.7153 13.1322 93.6226 13.2488 93.6249L18.8859 93.7354C18.3427 93.27 17.7751 92.8322 17.1852 92.4247L10.7317 92.2979C10.615 92.2958 10.5223 92.1993 10.5246 92.0827C10.5269 91.966 10.6233 91.8733 10.7399 91.8756L16.5285 91.9891C15.8941 91.5855 15.2361 91.2156 14.5571 90.882L10.7317 90.807C10.671 90.8058 10.6168 90.7792 10.5791 90.7373C10.5443 90.6989 10.5235 90.6475 10.5246 90.5915C10.5269 90.4749 10.6233 90.3822 10.7399 90.3845L13.5969 90.4405C13.1398 90.2444 12.674 90.0644 12.2006 89.9011C12.3758 89.7482 12.5455 89.5887 12.7091 89.4232L7.23354 89.3159C7.11688 89.3136 7.02418 89.2172 7.02646 89.1006C7.02872 88.9838 7.12518 88.891 7.2418 88.8936L13.0961 89.0083C13.3836 88.6813 13.649 88.3341 13.89 87.9695L6.51669 87.825C6.40003 87.8227 6.30735 87.7261 6.30961 87.6095C6.31189 87.4929 6.40833 87.4001 6.52495 87.4025L14.1508 87.552C14.4308 87.0769 14.6707 86.5756 14.866 86.0522L7.96045 86.2481C7.88102 86.2502 7.81056 86.2084 7.7727 86.1446C7.75495 86.1148 7.74433 86.0801 7.74329 86.0429C7.73999 85.9263 7.83186 85.8289 7.94848 85.8258L15.0138 85.6253C15.1532 85.189 15.2622 84.739 15.3379 84.278L9.56615 84.4415C9.44953 84.4449 9.35231 84.353 9.34901 84.2364C9.34571 84.1198 9.43757 84.0226 9.55419 84.0192L15.3979 83.8536C15.4419 83.482 15.4645 83.104 15.4645 82.7208C15.4645 82.6413 15.4635 82.5623 15.4616 82.4835L10.1109 82.6352C9.99431 82.6386 9.89708 82.5467 9.89378 82.4301C9.89049 82.3134 9.98235 82.2163 10.099 82.2129L15.4421 82.0614C15.4103 81.5964 15.3452 81.1405 15.249 80.6962L10.5697 80.8289C10.4531 80.832 10.3559 80.7403 10.3526 80.6237C10.3493 80.5071 10.4411 80.4097 10.5578 80.4065L15.1481 80.2764C15.0425 79.8773 14.9117 79.4888 14.7576 79.1121L9.82421 79.252C9.70759 79.2553 9.61035 79.1634 9.60705 79.0468C9.60376 78.9302 9.69561 78.833 9.81223 78.8296L14.5748 78.6946C14.4123 78.3463 14.2292 78.0095 14.0273 77.6856L8.33321 77.847C8.21659 77.8504 8.11937 77.7585 8.11605 77.6419C8.11276 77.5253 8.20462 77.4281 8.32123 77.4247L13.7533 77.2707C13.4337 76.8131 13.075 76.3849 12.682 75.9908L8.6255 76.2125C8.50899 76.219 8.4094 76.1296 8.403 76.013C8.39666 75.8966 8.48594 75.7969 8.60245 75.7906L12.258 75.5907C11.7451 75.1356 11.1827 74.7348 10.5799 74.3977L7.27785 74.5781C7.16133 74.5846 7.06174 74.4953 7.05534 74.3789C7.049 74.2622 7.13828 74.1627 7.2548 74.1562L9.81956 74.0161C8.68275 73.508 7.42816 73.216 6.1081 73.1924C6.08869 72.9055 6.28821 72.5803 7.15056 72.6076C8.56225 72.6526 11.797 73.5866 14.4063 76.0937L14.3843 76.1303C15.3221 77.1927 16.0813 78.5449 16.4658 80.2409C17.7125 85.7404 14.7098 89.9034 14.7098 89.9034C24.611 94.6538 25.7134 101.709 26.4043 106.131C26.4385 106.35 26.4717 106.562 26.5046 106.767C28.2882 107.267 30.1691 107.535 32.1125 107.535C33.2694 107.535 34.4041 107.44 35.5093 107.258L33.7057 107.067C33.5897 107.055 33.5056 106.951 33.5179 106.835C33.5301 106.719 33.6341 106.635 33.7501 106.647L36.8973 106.979C37.5427 106.827 38.1765 106.644 38.797 106.432L33.4967 105.873C33.3806 105.86 33.2965 105.756 33.3087 105.64C33.321 105.524 33.4249 105.44 33.5411 105.453L39.6958 106.102C40.3215 105.856 40.9327 105.58 41.527 105.276L34.1686 104.499C34.0526 104.487 33.9685 104.383 33.9808 104.266C33.993 104.15 34.097 104.066 34.2129 104.079L42.1906 104.921C42.6905 104.642 43.1774 104.343 43.6507 104.025L34.4225 103.05C34.3065 103.038 34.2225 102.934 34.2347 102.818C34.247 102.702 34.3509 102.618 34.4669 102.63L44.1812 103.656C44.4989 103.428 44.8097 103.19 45.1137 102.945L37.2001 102.109C37.0841 102.097 37 101.993 37.0122 101.877C37.0245 101.761 37.1284 101.677 37.2444 101.689L45.5669 102.568C45.7146 102.442 45.8601 102.314 46.004 102.183C46.1295 102.07 46.2537 101.955 46.3763 101.838L37.6332 100.915C37.5172 100.902 37.4331 100.799 37.4453 100.683C37.4576 100.567 37.5615 100.482 37.6775 100.495L46.769 101.454C47.125 101.098 47.4679 100.728 47.797 100.346L40.2157 99.511C40.0997 99.4982 40.016 99.3938 40.0287 99.2778C40.0416 99.1618 40.146 99.0782 40.262 99.0911L48.1245 99.9575C48.4146 99.604 48.693 99.241 48.9594 98.8686L48.9824 98.8929L48.9985 98.8694L41.3933 98.2272C41.2769 98.2175 41.1907 98.1152 41.2006 97.999C41.2103 97.8826 41.3126 97.7964 41.4288 97.8063L49.2649 98.4678C49.3731 98.2986 49.4821 98.1203 49.589 97.9346C49.7388 97.6747 49.8833 97.4034 50.0156 97.1267L43.0929 96.45C42.9767 96.4388 42.8918 96.3353 42.9032 96.2191C42.9144 96.1031 43.0177 96.0181 43.1339 96.0296L50.1989 96.7202C50.3409 96.3843 50.4607 96.0444 50.546 95.7106L45.4646 95.1505C45.3486 95.1378 45.265 95.0334 45.2779 94.9175C45.2906 94.8015 45.3949 94.7178 45.5109 94.7307L50.6346 95.2952L50.6403 95.2612C50.6677 95.0884 50.8302 94.9707 51.0032 94.9984C51.176 95.026 51.2937 95.1885 51.266 95.3611C51.108 96.3511 50.6377 97.3851 50.1381 98.2513C49.9087 98.6491 49.6701 99.0169 49.4466 99.3353C50.6327 100.364 52.1802 100.986 53.8731 100.986C54.9284 100.986 55.9272 100.744 56.8173 100.313L55.7052 100.209C55.589 100.198 55.5037 100.095 55.5144 99.9788C55.5254 99.8626 55.6283 99.7772 55.7445 99.7882L57.4718 99.9494C57.7915 99.7479 58.0934 99.5203 58.3739 99.2698L54.7665 98.933C54.6503 98.9222 54.5648 98.8194 54.5758 98.7029C54.5865 98.587 54.6896 98.5016 54.8056 98.5124L58.7734 98.8827C59.0578 98.5834 59.3153 98.258 59.5416 97.9107C58.8679 97.7723 58.1992 97.7045 57.722 97.811C57.6079 97.8363 57.4951 97.7645 57.4697 97.6506C57.4444 97.5367 57.516 97.4239 57.6299 97.3986C58.2362 97.2634 59.0441 97.3679 59.7732 97.5281L59.7784 97.5186L59.8551 97.5465C60.5897 97.7132 61.2679 97.9392 61.6289 98.0651C62.7356 98.3174 63.8874 98.4505 65.0703 98.4505C66.291 98.4505 67.4787 98.3087 68.6177 98.0406C69.1507 97.9039 69.6894 97.7375 70.226 97.542L68.0177 97.4334C67.901 97.4275 67.8113 97.3284 67.817 97.2118C67.8227 97.0954 67.922 97.0056 68.0384 97.0113L71.1715 97.1653C71.7863 96.8994 72.3926 96.5941 72.9782 96.2503L66.9613 95.9546C66.8447 95.9486 66.7549 95.8496 66.7606 95.733C66.7663 95.6165 66.8656 95.5267 66.982 95.5325L73.611 95.8584C73.9564 95.633 74.2925 95.3932 74.6168 95.1397L69.7078 94.8982C69.5912 94.8923 69.5014 94.7932 69.5071 94.6766C69.5128 94.5602 69.6121 94.4704 69.7285 94.4761L75.1038 94.7404C75.3799 94.5032 75.6457 94.2549 75.8994 93.9957L75.9556 93.938L69.7078 93.6306C69.5912 93.6247 69.5014 93.5256 69.5071 93.409C69.5105 93.342 69.5445 93.2839 69.595 93.2478C69.5994 93.2446 69.6039 93.2417 69.6085 93.2389C69.6129 93.2362 69.6176 93.2336 69.6222 93.2313C69.6315 93.2265 69.6413 93.2222 69.6514 93.2189C69.6755 93.2108 69.7015 93.2072 69.7285 93.2085L76.3287 93.5332C76.6887 93.124 77.0189 92.6901 77.3132 92.2314L71.3979 91.9405C71.2813 91.9346 71.1915 91.8355 71.1972 91.7189C71.2029 91.6025 71.3022 91.5127 71.4187 91.5184L77.5634 91.8207C77.7569 91.4846 77.9314 91.1362 78.0848 90.7751L73.4823 90.5489C73.3657 90.5429 73.2759 90.4439 73.2816 90.3272C73.2875 90.2108 73.3866 90.121 73.503 90.1268L78.2494 90.3604C78.4192 89.9005 78.5551 89.4215 78.6525 88.9232L73.7151 88.5203C73.5987 88.5108 73.5121 88.4087 73.5216 88.2923C73.5311 88.1761 73.6332 88.0895 73.7494 88.099L78.7243 88.5053C78.7851 88.0967 78.8204 87.6756 78.828 87.2421L75.6205 87.0416C75.5039 87.0344 75.4156 86.9341 75.4228 86.8177C75.43 86.701 75.5303 86.6127 75.6468 86.6199L78.8268 86.8187C78.8185 86.4708 78.7925 86.115 78.7479 85.7516L75.7262 85.5627C75.6096 85.5556 75.5213 85.4552 75.5284 85.3388C75.5356 85.2222 75.636 85.1339 75.7524 85.1411L78.6873 85.3244C78.6172 84.8886 78.5204 84.442 78.3951 83.9846C78.3334 83.7596 78.4659 83.5272 78.6911 83.4655C78.9161 83.4038 79.1485 83.5363 79.2102 83.7615C79.8119 85.9589 79.7992 87.9372 79.3452 89.6869C81.3364 89.1917 83.2332 88.4571 85.0027 87.5155L84.3007 87.4641C84.1845 87.4555 84.097 87.3543 84.1055 87.2379C84.1141 87.1215 84.2153 87.034 84.3317 87.0427L85.6801 87.1415C86.2131 86.8363 86.7334 86.5122 87.2407 86.1697L84.7232 85.9853C84.607 85.9766 84.5196 85.8754 84.528 85.759C84.5333 85.687 84.5743 85.6259 84.6324 85.5919C84.6679 85.5712 84.7099 85.5604 84.7543 85.5638L87.7923 85.7865C88.3236 85.4066 88.8396 85.0063 89.3386 84.5869L85.357 84.2951C85.2408 84.2865 85.1534 84.1853 85.1618 84.0689C85.1705 83.9525 85.2717 83.865 85.3881 83.8737L89.792 84.1965C90.0647 83.956 90.3322 83.7099 90.5939 83.4579L84.7232 83.0275C84.607 83.0189 84.5196 82.9177 84.528 82.8013C84.5367 82.6849 84.6379 82.5974 84.7543 82.606L90.9945 83.0634C91.3843 82.6713 91.761 82.2661 92.1241 81.8489L85.1458 81.3374C85.0296 81.3287 84.9421 81.2275 84.9506 81.1111C84.9592 80.9947 85.0604 80.9072 85.1768 80.9159L92.4637 81.4502C92.8118 81.033 93.1465 80.6041 93.467 80.1642L86.4134 79.6472C86.2972 79.6386 86.2097 79.5374 86.2182 79.421C86.2268 79.3046 86.328 79.2171 86.4444 79.2258L93.7545 79.7618C93.8498 79.6255 93.9438 79.4882 94.0365 79.3498C94.1517 79.1778 94.2647 79.0044 94.3756 78.8294L85.357 78.1684C85.2408 78.1597 85.1534 78.0585 85.1618 77.9421C85.1705 77.8257 85.2717 77.7382 85.3881 77.7469L94.6272 78.4242C94.9351 77.9178 95.2253 77.4 95.4972 76.8708L87.2584 76.267C87.1422 76.2583 87.0548 76.1571 87.0632 76.0407C87.0719 75.9243 87.1731 75.8368 87.2895 75.8455L95.7024 76.4622C95.8889 76.0823 96.066 75.697 96.2333 75.3065L89.1598 74.7881C89.0436 74.7794 88.9562 74.6782 88.9646 74.5618C88.9733 74.4454 89.0745 74.3579 89.1909 74.3666L96.4051 74.8954C96.4799 74.7122 96.5523 74.5278 96.6229 74.3423C96.7025 74.1323 96.7796 73.921 96.8538 73.7083L88.526 73.0979C88.4098 73.0893 88.3224 72.9881 88.3308 72.8717C88.3395 72.7553 88.4407 72.6678 88.5571 72.6765L96.9939 73.2951C97.1035 72.9623 97.2062 72.6266 97.3019 72.2877L91.0613 71.8303C90.9451 71.8217 90.8576 71.7205 90.866 71.6041C90.8747 71.4877 90.9759 71.4002 91.0923 71.4089L97.4155 71.8724C97.4958 71.5677 97.5706 71.261 97.6397 70.9519L92.3289 70.5627C92.3081 70.561 92.2883 70.5566 92.2697 70.5496C92.2378 70.5376 92.2099 70.5182 92.1875 70.4934C92.1503 70.4522 92.1294 70.3963 92.1337 70.3365C92.1423 70.2201 92.2435 70.1326 92.3599 70.1413L97.7291 70.5349C97.8233 70.0766 97.9048 69.6139 97.9733 69.1468L94.2303 68.8726C94.1141 68.8639 94.0266 68.7627 94.0351 68.6463C94.0437 68.5299 94.1449 68.4425 94.2613 68.4511L98.0314 68.7275C98.0878 68.2914 98.133 67.852 98.1666 67.4089L95.0753 67.1825C94.9591 67.1738 94.8717 67.0726 94.8801 66.9562C94.8888 66.8398 94.99 66.7523 95.1064 66.761L98.1953 66.9875C98.2129 66.6877 98.2253 66.3866 98.2325 66.0843L95.9204 65.9148C95.8042 65.9062 95.7167 65.805 95.7252 65.6886C95.7339 65.5722 95.8351 65.4847 95.9515 65.4934L98.2386 65.6611L98.2393 65.5743V65.4927C98.2393 65.4722 98.2393 65.4518 98.2393 65.4313C98.2391 65.3956 98.2389 65.3599 98.2386 65.3244C98.2384 65.2703 98.2378 65.2162 98.2372 65.1621L96.9767 65.0698C96.8605 65.0611 96.7731 64.9599 96.7815 64.8435C96.7902 64.7271 96.8914 64.6396 97.0078 64.6483L98.2281 64.7377C98.2029 63.8901 98.1353 63.0532 98.0276 62.2289C98.0447 62.2181 98.0618 62.2073 98.0791 62.1965L98.1018 62.1822L98.1303 62.1642L98.1729 62.137C98.1898 62.1264 98.2067 62.1156 98.2236 62.1046C98.2591 62.082 98.2942 62.0594 98.3295 62.0366C98.358 62.018 98.3868 61.9994 98.4153 61.9806L94.4415 61.6895C94.3253 61.6808 94.2379 61.5796 94.2463 61.4632C94.255 61.3468 94.3562 61.2594 94.4726 61.268L98.9789 61.5984C99.5276 61.2137 100.057 60.8039 100.567 60.3708L95.4979 59.9994C95.3817 59.9907 95.2942 59.8895 95.3027 59.7731C95.3113 59.6567 95.4125 59.5692 95.5289 59.5779L101.014 59.9801C101.396 59.6377 101.765 59.2817 102.121 58.913L96.7655 58.5205C96.6493 58.5118 96.5618 58.4106 96.5703 58.2942C96.5789 58.1778 96.6801 58.0903 96.7965 58.099L102.494 58.5167C102.84 58.1396 103.173 57.75 103.493 57.3488L99.3007 57.0416C99.1845 57.0329 99.097 56.9318 99.1055 56.8153C99.1141 56.6989 99.2153 56.6115 99.3317 56.6201L103.804 56.948C104.142 56.5025 104.463 56.0434 104.765 55.5718L98.8781 55.1402C98.762 55.1315 98.6745 55.0303 98.6829 54.9139C98.6916 54.7975 98.7928 54.7101 98.9092 54.7187L105.019 55.1666C105.291 54.7219 105.547 54.2668 105.787 53.8016L100.991 53.4501C100.875 53.4414 100.787 53.3402 100.796 53.2238C100.804 53.1074 100.905 53.0199 101.022 53.0286L105.992 53.393C106.214 52.9396 106.42 52.4776 106.609 52.0069L100.357 51.5487C100.241 51.54 100.153 51.4388 100.162 51.3224C100.17 51.206 100.272 51.1185 100.388 51.1272L106.771 51.5951C106.965 51.0849 107.14 50.5654 107.295 50.0375L99.0894 49.436C98.9732 49.4273 98.8858 49.3261 98.8942 49.2097C98.9029 49.0933 99.0041 49.0058 99.1205 49.0145L107.413 49.6223L107.436 49.5359L107.456 49.4611C107.494 49.3187 107.53 49.1757 107.565 49.032C107.619 48.807 107.67 48.5808 107.717 48.353L96.5542 47.5346C96.4817 47.5291 96.4205 47.4877 96.3867 47.4291C96.3662 47.3939 96.3558 47.352 96.359 47.3083C96.3677 47.1919 96.4689 47.1044 96.5853 47.1131L107.8 47.9354C107.906 47.3711 107.989 46.7994 108.05 46.2205L95.9179 45.331C95.8015 45.3226 95.714 45.2214 95.7227 45.105C95.7311 44.9886 95.8323 44.9011 95.9487 44.9098L108.09 45.7999C108.138 45.2328 108.165 44.6594 108.168 44.0808L92.9502 43.5515C92.8336 43.5473 92.7423 43.4497 92.7463 43.3329C92.7484 43.2718 92.7765 43.2177 92.8192 43.1806C92.8344 43.1675 92.8513 43.1565 92.8695 43.1482C92.8839 43.1417 92.8991 43.1366 92.9149 43.1334C92.931 43.1301 92.9477 43.1286 92.965 43.1292L108.167 43.658C108.16 43.1552 108.137 42.6564 108.096 42.1622L93.3727 41.6501C93.2561 41.6459 93.1649 41.5483 93.1689 41.4315C93.1714 41.363 93.2063 41.3032 93.2582 41.2665C93.2946 41.2407 93.3394 41.2261 93.3875 41.2278L108.057 41.7382C108.008 41.2553 107.943 40.7772 107.863 40.3041L91.8939 39.7487C91.8144 39.7458 91.7466 39.6995 91.7128 39.6334C91.6972 39.6025 91.6887 39.5672 91.69 39.5301C91.6942 39.4137 91.792 39.3222 91.9087 39.3264L107.786 39.8787C107.713 39.4956 107.63 39.116 107.537 38.7406L94.0065 38.2699C93.8899 38.2656 93.7987 38.168 93.8027 38.0512C93.8069 37.9348 93.9047 37.8433 94.0213 37.8475L107.426 38.3138C107.311 37.887 107.183 37.4656 107.043 37.05L93.1699 36.1261C93.0535 36.1183 92.9654 36.0177 92.973 35.9013C92.9808 35.7849 93.0814 35.6968 93.1978 35.7044L106.891 36.6163C106.75 36.2256 106.598 35.8401 106.435 35.4602L94.2263 34.6472C94.1099 34.6394 94.0218 34.5389 94.0294 34.4225C94.0372 34.3061 94.1377 34.218 94.2541 34.2256L106.242 35.0239C105.97 34.4258 105.671 33.8423 105.347 33.2751L94.2263 32.5346C94.1099 32.5268 94.0218 32.4262 94.0294 32.3098C94.0372 32.1934 94.1377 32.1053 94.2541 32.1129L105.088 32.8344C104.778 32.3189 104.446 31.8175 104.095 31.3314L93.6074 30.6332C93.491 30.6253 93.4029 30.5246 93.4106 30.4082C93.4184 30.2918 93.5189 30.2037 93.6353 30.2115L103.764 30.8858C103.412 30.4244 103.041 29.9776 102.654 29.5464L93.5925 28.943C93.4761 28.9352 93.388 28.8346 93.3956 28.7182C93.4034 28.6018 93.5039 28.5137 93.6203 28.5213L102.237 29.0951C101.817 28.6538 101.379 28.2304 100.923 27.8256L95.4939 27.4642C95.3775 27.4563 95.2894 27.3558 95.297 27.2394C95.3048 27.123 95.4053 27.0349 95.5217 27.0425L100.389 27.3668C100.308 27.2992 100.226 27.232 100.144 27.1656C100.253 26.8293 100.355 26.4894 100.448 26.1461L94.8601 25.774C94.7437 25.7662 94.6556 25.6656 94.6632 25.5492C94.671 25.4328 94.7715 25.3447 94.8879 25.3523L100.556 25.7299C100.662 25.3046 100.756 24.8744 100.836 24.4396L95.4939 24.0839C95.3775 24.0761 95.2894 23.9755 95.297 23.8591C95.3048 23.7427 95.4053 23.6546 95.5217 23.6622L100.909 24.0211C100.99 23.5333 101.054 23.04 101.101 22.5418L95.7051 22.1825C95.5887 22.1746 95.5006 22.0741 95.5082 21.9577C95.5161 21.8413 95.6166 21.7532 95.733 21.7608L101.136 22.1208C101.168 21.6982 101.187 21.2723 101.194 20.8435L92.7474 20.2811C92.7072 20.2784 92.6707 20.2648 92.6401 20.2432C92.616 20.2263 92.5957 20.2045 92.5805 20.1795C92.5727 20.1666 92.5663 20.153 92.5615 20.1387C92.5562 20.1235 92.5526 20.1076 92.5511 20.0911C92.5509 20.0882 92.5505 20.0852 92.5505 20.0822C92.5503 20.0799 92.5503 20.0775 92.5501 20.0752V20.0723V20.0704V20.0676L92.5503 20.0636C92.5503 20.0611 92.5505 20.0586 92.5505 20.0562C92.5583 19.9398 92.6589 19.8517 92.7753 19.8594L101.197 20.4202C101.196 20.0513 101.185 19.6846 101.166 19.3202L90.2122 18.5909C90.0958 18.5832 90.0077 18.4825 90.0153 18.366C90.0231 18.2497 90.1236 18.1616 90.2401 18.1693L101.139 18.895C101.103 18.4041 101.05 17.9177 100.982 17.4365L90.6286 16.7471C90.5122 16.7393 90.4241 16.6387 90.4317 16.5222C90.4395 16.4058 90.5401 16.3177 90.6565 16.3255L100.917 17.0087C100.853 16.6176 100.779 16.23 100.695 15.8464L87.6655 15.2108C87.5491 15.2052 87.4591 15.106 87.4648 14.9896C87.4706 14.873 87.5696 14.7832 87.6863 14.7888L100.596 15.4186C100.469 14.892 100.323 14.3729 100.158 13.8622L84.4965 13.0982C84.3801 13.0925 84.2901 12.9934 84.2958 12.8769C84.3015 12.7603 84.4006 12.6705 84.5172 12.6762L100.014 13.4321C99.866 13.0059 99.7053 12.586 99.532 12.1724L83.8627 11.408C83.7463 11.4024 83.6563 11.3032 83.662 11.1868C83.6677 11.0702 83.7668 10.9803 83.8834 10.986L99.3455 11.7403C99.1575 11.318 98.9563 10.9028 98.7425 10.4953L82.8064 9.71788C82.69 9.71222 82.6 9.61307 82.6057 9.49662C82.6114 9.38004 82.7105 9.29019 82.8271 9.29588L98.5082 10.0608C98.2378 9.57295 97.949 9.09667 97.6427 8.63298L80.905 7.81647C80.7886 7.81081 80.6986 7.71166 80.7043 7.59521C80.71 7.47864 80.8091 7.38878 80.9257 7.39447L97.346 8.19549C97.1441 7.9054 96.9351 7.62038 96.7196 7.34091L80.4825 6.54887C80.366 6.54321 80.276 6.44406 80.2818 6.32761C80.2875 6.21103 80.3865 6.12118 80.5032 6.12686L96.3708 6.90084C95.9988 6.44355 95.6082 6.00183 95.2004 5.57672L80.4825 4.85873C80.366 4.85307 80.276 4.75392 80.2818 4.63747C80.2875 4.52089 80.3865 4.43104 80.5032 4.43672L94.7616 5.13222C94.675 5.04707 94.5879 4.96269 94.4998 4.87903H96.5096C97.593 5.72298 100.28 9.75112 102.36 19.112C104.392 18.9807 107.306 17.8962 110.186 16.046H109.57C109.453 16.046 109.358 15.9514 109.358 15.8347C109.358 15.7181 109.453 15.6235 109.57 15.6235H110.823C111.375 15.2457 111.924 14.84 112.462 14.4079H111.827C111.71 14.4079 111.615 14.3133 111.615 14.1966C111.615 14.0799 111.71 13.9853 111.827 13.9853H112.975C113.286 13.7225 113.592 13.4507 113.893 13.1702H113.501C113.384 13.1702 113.29 13.0756 113.29 12.9589C113.29 12.8422 113.384 12.7476 113.501 12.7476H114.336C114.653 12.4371 114.963 12.1167 115.264 11.7868H111.353C111.237 11.7868 111.142 11.6922 111.142 11.5756C111.142 11.4589 111.237 11.3643 111.353 11.3643H115.64C115.991 10.9602 116.328 10.5426 116.649 10.1123H114.921C114.804 10.1123 114.71 10.0177 114.71 9.90099C114.71 9.7843 114.804 9.68972 114.921 9.68972H116.955C117.177 9.37588 117.39 9.05554 117.593 8.72892H113.501C113.384 8.72892 113.29 8.63431 113.29 8.51765C113.29 8.40097 113.384 8.30638 113.501 8.30638H117.848C118.019 8.01511 118.181 7.71906 118.335 7.41838H113.283C113.166 7.41838 113.072 7.3238 113.072 7.20712C113.072 7.09045 113.166 6.99585 113.283 6.99585H118.545C118.724 6.62172 118.889 6.24069 119.04 5.85308H113.283C113.166 5.85308 113.072 5.75848 113.072 5.64181C113.072 5.52513 113.166 5.43055 113.283 5.43055H119.198C119.805 3.72707 120.127 1.90082 120.058 -0.0269319H86.2482C84.168 -0.6955 81.9501 -1.05655 79.6477 -1.05655C77.3453 -1.05655 75.1275 -0.6955 73.0473 -0.0269319H30.791C30.8096 -0.0870521 30.828 -0.147308 30.846 -0.207699C31.3256 -1.81664 31.5831 -3.52126 31.5831 -5.28602C31.5831 -15.0894 23.6358 -23.0366 13.8325 -23.0366C4.02908 -23.0366 -3.91815 -15.0894 -3.91815 -5.28602C-3.91815 -3.35637 -3.61023 -1.49865 -3.04088 0.240721C-11.0538 1.95385 -17.0624 9.0747 -17.0624 17.5989ZM50.6861 13.3787C50.5526 14.2792 51.2529 14.4125 51.7034 14.3959L52.8871 14.4447C52.8871 14.4447 53.7708 14.6782 54.3546 13.8777C54.8126 13.2496 54.1374 12.3482 53.5463 11.559L53.5452 11.5577C53.3834 11.3417 53.2279 11.1342 53.1039 10.943C52.8279 10.5179 52.802 10.0228 52.7802 9.60528C52.7534 9.08928 52.7325 8.69189 52.2535 8.69189C51.3869 8.69189 50.8194 12.4783 50.6861 13.3787ZM76.8755 23.3856C76.139 23.9208 76.5341 24.5142 76.8611 24.8239L77.6551 25.7034C77.6551 25.7034 78.1072 26.498 79.0872 26.3546C79.8565 26.2418 80.0276 25.1284 80.1772 24.1538C80.2182 23.8865 80.2577 23.6299 80.3073 23.4068C80.4176 22.9126 80.7527 22.5477 81.0353 22.2399L81.0358 22.2393C81.3856 21.8588 81.6548 21.5658 81.3193 21.2237C80.7127 20.6048 77.6117 22.8505 76.8755 23.3856ZM65.1385 15.7456C64.6619 16.5211 65.2534 16.9191 65.6741 17.0807L66.7433 17.5909C66.7433 17.5909 67.4644 18.153 68.3155 17.6463C68.9838 17.2487 68.7172 16.1544 68.4837 15.1962C68.4197 14.9337 68.3582 14.6813 68.3191 14.4563C68.2325 13.957 68.4034 13.4916 68.5475 13.0991L68.5477 13.0985C68.7254 12.6137 68.8623 12.2403 68.422 12.0521C67.6253 11.7114 65.6151 14.9701 65.1385 15.7456ZM85.2368 34.4451C84.3666 34.7127 84.5481 35.4023 84.757 35.8012L85.2233 36.8907C85.2233 36.8907 85.3934 37.7888 86.3673 37.9705C87.1315 38.1131 87.6539 37.1155 88.1113 36.2419V36.2415L88.1132 36.2383C88.2379 36.0002 88.3579 35.7712 88.4766 35.5775C88.7411 35.1452 89.1767 34.9086 89.5441 34.7089C89.9982 34.4624 90.3478 34.2722 90.1414 33.8398C89.7681 33.0579 86.1066 34.1774 85.2368 34.4451ZM55.9672 86.6313C56.0565 85.7252 55.3505 85.6263 54.9015 85.665L53.7167 85.6741C53.7167 85.6741 52.8227 85.4839 52.2787 86.3117C51.8519 86.9615 52.5702 87.8288 53.1991 88.5883L53.1994 88.5885L53.1996 88.5887C53.372 88.7968 53.5376 88.9969 53.6711 89.182C53.9673 89.5931 54.0174 90.0864 54.0596 90.5024C54.1116 91.0164 54.152 91.4123 54.6305 91.3891C55.4958 91.3466 55.8778 87.5372 55.9672 86.6313ZM28.4749 78.3275C29.2306 77.8202 28.8579 77.2124 28.5425 76.8906L27.7818 75.9822C27.7818 75.9822 27.3596 75.1713 26.3749 75.2782C25.6021 75.3623 25.3898 76.4683 25.2039 77.4365V77.4368C25.1529 77.7023 25.1039 77.9577 25.046 78.1785C24.9174 78.6687 24.5686 79.0213 24.2743 79.3183L24.2741 79.3185C23.9107 79.6857 23.631 79.9684 23.9534 80.3227C24.5367 80.9637 27.719 78.8349 28.4749 78.3275ZM41.2722 85.5891C41.7702 84.8271 41.1899 84.413 40.7741 84.2398L39.719 83.7004C39.719 83.7004 39.0138 83.1186 38.1489 83.6013C37.4701 83.9806 37.7063 85.0815 37.9133 86.0457C37.9699 86.31 38.0246 86.5642 38.0574 86.7902C38.1303 87.2918 37.9467 87.7521 37.7918 88.1406C37.6002 88.6206 37.4532 88.9901 37.8882 89.1906C38.6753 89.5532 40.7745 86.3512 41.2722 85.5891ZM20.3819 66.9824C21.2527 66.7172 21.0734 66.0272 20.8657 65.6275L20.4029 64.5368C20.4029 64.5368 20.2355 63.638 19.2623 63.4534C18.4985 63.3082 17.9729 64.3044 17.5128 65.1767L17.5116 65.179C17.3858 65.4173 17.265 65.6463 17.1454 65.8401C16.8794 66.2715 16.4431 66.5068 16.0751 66.7054C15.6204 66.9505 15.2701 67.1394 15.4752 67.5725C15.8463 68.3556 19.511 67.2473 20.3819 66.9824ZM16.9944 53.6398C17.9042 53.6647 17.9531 52.9534 17.8828 52.5082L17.79 51.3272C17.79 51.3272 17.9162 50.4218 17.052 49.9379C16.3736 49.5581 15.5592 50.3362 14.8461 51.0173L14.8454 51.0179C14.6502 51.2045 14.4626 51.3837 14.2874 51.5299C13.8984 51.8546 13.4099 51.9393 12.998 52.0109C12.4889 52.0992 12.0967 52.1672 12.1539 52.643C12.2574 53.5033 16.0845 53.6146 16.9944 53.6398ZM88.3722 47.7763C87.4623 47.7513 87.4135 48.4627 87.4836 48.9076L87.5766 50.089C87.5766 50.089 87.4503 50.9943 88.3146 51.4781C88.9929 51.858 89.8074 51.0801 90.5204 50.3987L90.527 50.3926C90.7201 50.208 90.9058 50.0307 91.0792 49.8862C91.4684 49.5615 91.9568 49.4765 92.3686 49.4051H92.369C92.878 49.3168 93.2698 49.2488 93.2126 48.7732C93.1093 47.9127 89.2822 47.8012 88.3722 47.7763ZM18.096 39.1441C18.9428 39.4783 19.2314 38.8265 19.3172 38.3842L19.6333 37.242C19.6333 37.242 20.0609 36.4341 19.4136 35.6844C18.9057 35.096 17.8745 35.5491 16.9718 35.9461C16.7243 36.0549 16.4865 36.1593 16.2717 36.237C15.7952 36.4094 15.3071 36.3224 14.8955 36.2491L14.895 36.2489C14.3866 36.1584 13.9951 36.0887 13.8865 36.555C13.69 37.3992 17.2493 38.8101 18.096 39.1441ZM87.2631 61.4309C86.4199 61.0876 86.1244 61.7362 86.0337 62.1773L85.7052 63.3158C85.7052 63.3158 85.2685 64.1191 85.9074 64.876C86.4087 65.4699 87.4448 65.0282 88.3515 64.6415L88.3517 64.6413L88.352 64.6411C88.6004 64.5351 88.8396 64.4332 89.0553 64.3578C89.5336 64.1907 90.0208 64.283 90.4315 64.361C90.9391 64.4573 91.3302 64.5315 91.4439 64.0661C91.6496 63.2244 88.106 61.7742 87.2631 61.4309ZM25.1572 26.7488C25.7952 27.398 26.3236 26.9195 26.5817 26.5504L27.3345 25.6352C27.3345 25.6352 28.0534 25.0709 27.767 24.1227C27.542 23.3787 26.4155 23.3738 25.4295 23.3698C25.1591 23.3687 24.8992 23.3675 24.6715 23.3512C24.1661 23.3151 23.7554 23.0372 23.4094 22.803C22.9813 22.5133 22.6515 22.2902 22.3627 22.6726C21.8403 23.3641 24.5191 26.0994 25.1572 26.7488ZM80.0787 73.7994C79.4303 73.1605 78.9094 73.6475 78.6573 74.0208L77.9196 74.9478C77.9196 74.9478 77.2097 75.5239 77.5118 76.4672C77.7489 77.2075 78.8747 77.1942 79.8607 77.1824H79.8611L79.8675 77.1822C80.1356 77.1792 80.3929 77.1763 80.6191 77.1887C81.1251 77.2164 81.5405 77.4877 81.8903 77.7163L81.8908 77.7167C82.3232 77.9989 82.6562 78.2165 82.9386 77.8299C83.4499 77.13 80.7271 74.4382 80.0787 73.7994ZM35.7956 17.2525C36.1163 18.1044 36.7932 17.8809 37.1787 17.6479L38.2376 17.1158C38.2376 17.1158 39.1234 16.8908 39.2451 15.9078C39.3408 15.1362 38.3126 14.6759 37.4124 14.2729L37.4088 14.2713C37.1635 14.1614 36.9277 14.0558 36.727 13.9492C36.2796 13.7115 36.0165 13.2912 35.7949 12.9368L35.7945 12.9364C35.5205 12.4985 35.3094 12.1614 34.8907 12.3939C34.1331 12.8146 35.4753 16.4004 35.7956 17.2525ZM70.5951 82.2177C70.2501 81.3754 69.5798 81.6182 69.2012 81.8624L68.1584 82.425C68.1584 82.425 67.2793 82.6756 67.1859 83.6615C67.1128 84.4356 68.1539 84.8662 69.0651 85.2429C69.3148 85.3462 69.5551 85.4455 69.7596 85.5467C70.214 85.7713 70.4891 86.1837 70.7208 86.5316C71.0075 86.9613 71.2283 87.2926 71.6403 87.048C72.3854 86.6056 70.9401 83.0601 70.5951 82.2177ZM86.1996 50.4004C86.1996 68.8606 71.2346 83.8253 52.7747 83.8253C34.3148 83.8253 19.3498 68.8606 19.3498 50.4004C19.3498 31.9403 34.3148 16.9756 52.7747 16.9756C71.2346 16.9756 86.1996 31.9403 86.1996 50.4004ZM37.0929 45.7365C37.0929 45.7365 36.2496 46.118 34.871 46.9464C33.4929 47.7748 32.9194 47.6119 32.4187 47.1374C32.4187 47.1374 32.2853 47.0269 32.361 46.9891C32.3952 46.972 32.4265 46.984 32.4816 47.0049H32.4818L32.4822 47.0051C32.5684 47.0379 32.7129 47.093 33.0163 47.093C33.393 47.093 33.8612 46.6855 34.4821 46.1453L34.4832 46.1442C35.7058 45.0803 37.5197 43.5019 40.3875 43.5019C44.1945 43.5019 46.064 46.4174 46.064 46.4174C46.064 46.4174 46.1813 46.5712 46.0281 46.5987C45.997 46.6041 45.9298 46.5564 45.8111 46.4723L45.8094 46.4713C45.4551 46.2199 44.6456 45.646 42.9863 45.1859C42.9863 45.1859 43.5098 48.4709 39.9508 48.4709C36.9512 48.4709 37.0929 45.7365 37.0929 45.7365ZM37.4669 45.5825C37.4669 45.5825 37.5066 47.7902 39.7727 47.7902C42.4982 47.7902 42.4782 45.1215 42.4782 45.1215C41.8 44.9666 41.1364 44.9601 41.1364 44.9601C41.1364 44.9601 41.4827 46.2211 40.1688 46.2211C38.8547 46.2211 39.0911 45.048 39.0911 45.048C38.0753 45.2159 37.4669 45.5825 37.4669 45.5825ZM36.2593 43.2471C36.2593 43.2471 37.3196 40.9137 39.8646 40.9137C42.4095 40.9137 43.3708 43.4197 43.3708 43.4197C43.3708 43.4197 41.8771 41.5432 39.8646 41.5432C37.8518 41.5432 36.2593 43.2471 36.2593 43.2471ZM31.116 40.9118C31.116 40.9118 32.6417 36.3929 36.8071 36.3929C38.4972 36.3929 39.5576 36.7827 40.5994 37.1658H40.5996C41.6054 37.5357 42.5941 37.8991 44.1157 37.8991C45.7475 37.8991 46.8829 37.2325 46.8829 37.2325C46.8829 37.2325 45.6235 39.0103 43.3008 39.0103C42.0894 39.0103 41.0946 38.7251 40.0862 38.4361L40.0849 38.4357C39.0484 38.1384 37.9978 37.8374 36.6837 37.8374C33.4112 37.8374 31.116 40.9118 31.116 40.9118ZM44.8087 30.1842C44.8087 30.1842 45.3273 31.9251 41.6726 31.9003C41.6726 31.9003 43.401 33.1227 44.8334 32.0732C45.8572 31.323 44.8087 30.1842 44.8087 30.1842ZM59.1725 29.7883C59.1611 29.7655 59.0534 30.5087 59.7918 30.9959C60.4556 31.4339 62.1508 32.0108 62.5925 31.3855C62.5925 31.3855 62.5425 30.7927 61.0285 30.7388C60.1929 30.7092 59.3069 30.0617 59.1725 29.7883ZM63.4055 44.5086C63.4055 44.5086 61.9492 45.1067 60.4792 46.7309C60.4809 46.683 61.8662 42.8708 65.1104 42.8708C67.3921 42.8708 69.2597 43.9787 70.855 44.925H70.8554C72.0922 45.6589 73.1654 46.2955 74.1408 46.2435C74.1408 46.2435 73.8225 46.6853 72.8933 46.6853C72.3742 46.6853 71.365 46.2668 70.5829 45.9422L70.5774 45.9399C70.1297 45.7542 69.757 45.5998 69.5946 45.5734C69.5946 45.5734 69.9875 48.2125 66.914 48.2125C63.8403 48.2125 63.4055 44.5086 63.4055 44.5086ZM63.835 44.3575C63.835 44.3575 63.7471 47.2722 66.8449 47.2722C69.025 47.2722 69.0444 45.3319 69.0444 45.3319C68.1932 45.0133 67.5307 44.8175 67.5307 44.8175C67.5307 44.8175 67.586 45.9868 66.4539 45.9868C65.1375 45.9868 65.5399 44.3174 65.5399 44.3174C64.511 44.1175 63.835 44.3575 63.835 44.3575ZM70.5569 43.478C70.5569 43.478 68.9527 40.0409 66.1283 40.0409C63.3039 40.0409 60.9034 43.4689 60.9034 43.4689C60.9034 43.4689 63.7602 40.7729 66.2025 40.7729C68.6447 40.7729 70.5569 43.478 70.5569 43.478ZM72.221 38.5428C72.221 38.5428 71.676 36.2174 68.2741 36.2174C67.2345 36.2174 66.3165 36.4542 65.2826 36.7211L65.2815 36.7213C63.9493 37.0652 62.4241 37.4588 60.1968 37.4588C58.8704 37.4588 58.3807 36.6526 58.3807 36.6526C58.3807 36.6526 58.0074 38.5707 62.4201 38.5707C64.4834 38.5707 65.5925 38.2297 66.6256 37.912L66.6267 37.9118L66.6275 37.9115C67.5282 37.6346 68.3713 37.3753 69.7393 37.3753C71.2779 37.3753 72.221 38.5428 72.221 38.5428ZM63.4767 48.6494C63.4767 48.6494 64.2085 49.4922 64.8941 49.6223C65.0519 49.6521 65.2158 49.6382 65.3922 49.623H65.3925C65.8175 49.5868 66.3149 49.5446 66.9694 50.0947C66.9694 50.0947 66.7775 50.5115 65.7742 50.5115C64.0203 50.5115 63.4767 48.6494 63.4767 48.6494ZM54.3827 45.296C54.3047 45.3739 53.1501 48.0106 55.2096 50.0389C55.0067 46.778 54.6167 45.7483 54.3827 45.296ZM50.9644 46.7468C50.849 46.7007 50.8095 47.0751 50.7598 47.5451L50.7596 47.5487C50.7083 48.0319 50.6466 48.6152 50.4808 48.9467C50.1531 49.602 50.4026 50.6318 50.4026 50.6318C50.4026 50.6318 51.1522 50.0463 51.1984 49.1341C51.2608 47.9013 51.1984 46.8403 50.9644 46.7468ZM44.5209 48.9477C44.617 48.7437 44.5025 48.6788 44.4098 48.7994C44.4022 48.8091 44.3906 48.8258 44.3751 48.848C44.2013 49.0963 43.5356 50.0459 42.4642 50.2075C41.2968 50.3837 40.6298 50.7727 40.8151 51.1249C41.0003 51.4768 42.3068 51.5047 43.0294 51.0137C43.5816 50.6383 43.9372 50.1892 44.5209 48.9477ZM45.2842 54.6321L45.2844 54.6319C45.4782 54.2913 45.9252 53.5073 46.9613 53.017C46.9613 53.017 45.6197 54.7635 45.6197 56.1218C45.6197 57.0494 46.1876 57.6636 46.5028 58.0041L46.5034 58.005C46.6492 58.1626 46.7407 58.2615 46.6963 58.306C46.5556 58.4463 45.5105 58.5399 44.7459 57.2294C44.7459 57.2294 44.061 58.3671 42.0637 58.3671C41.7901 58.3671 41.3432 58.3065 40.8037 58.2329H40.803C38.6643 57.9418 35.0732 57.453 35.0732 59.7714C35.0732 61.1649 35.4789 61.4875 35.4789 61.4875C35.4789 61.4875 34.4179 61.1132 34.4179 59.5373C34.4179 57.9617 35.868 57.2284 38.3185 57.2284C39.666 57.2284 40.3431 57.3179 40.9522 57.3987H40.9526L40.9541 57.3989C41.4516 57.4648 41.9044 57.5248 42.6408 57.5248C44.2799 57.5248 44.95 55.6213 44.9033 53.8895L45.1515 54.7798C45.1697 54.833 45.2069 54.7679 45.2842 54.6321ZM47.4822 56.9899C47.927 57.5643 49.2702 58.6018 50.2894 58.8336C50.6785 58.2311 49.4741 56.3596 47.4822 56.9899ZM54.5878 58.8885C54.3742 59.0187 54.1336 58.8885 54.4488 58.5087C54.7638 58.1286 56.1715 56.5914 56.6532 56.5635C57.1351 56.5358 58.2653 56.7209 58.1356 57.1565C58.0059 57.592 57.2092 58.2406 56.6532 58.2034C56.0973 58.1664 54.8014 58.7584 54.5878 58.8885ZM60.6681 54.7694C60.6681 54.7694 59.8065 53.3983 58.8708 52.9999C58.8708 52.9999 60.3155 54.8273 60.3155 56.1494C60.3155 57.7158 58.8708 58.5397 58.8708 58.5397C58.8708 58.5397 60.1395 58.9658 61.1777 57.2149C61.1777 57.2149 62.0141 58.1598 63.8629 58.1598C64.1641 58.1598 64.5015 58.132 64.8525 58.1028L64.8577 58.1024H64.8584C65.8032 58.024 66.8439 57.9378 67.5317 58.3627C69.2946 59.4515 69.0148 62.2177 69.0148 62.2177C69.0148 62.2177 69.4319 61.5689 69.4319 59.9748C69.4319 58.7377 68.2192 57.3063 65.6519 57.3063C65.4786 57.3063 65.2661 57.3222 65.0282 57.3397C63.4606 57.4561 60.801 57.6532 61.139 53.9444C60.7868 54.3418 60.6681 54.7694 60.6681 54.7694ZM31.2755 63.5273C31.4014 63.6182 31.6342 63.6209 31.525 63.3868C31.5098 63.3541 31.4827 63.3008 31.4475 63.2315L31.4409 63.2184L31.4405 63.218C31.2193 62.7839 30.7051 61.7744 30.745 61.2963C30.7765 60.9175 30.6237 60.7658 30.4585 60.6019C30.3787 60.5227 30.296 60.4407 30.2301 60.3289C30.0273 59.9858 29.6529 59.8297 29.5125 60.3289C29.372 60.8282 29.5279 62.2635 31.2755 63.5273ZM74.0521 63.3095C73.9298 63.731 74.177 63.8556 74.4423 63.4813C74.7075 63.1067 75.7061 60.7665 75.3939 60.0019C75.3761 59.9582 75.3588 59.9157 75.3423 59.8747L75.3421 59.8741C75.0683 59.1987 74.9496 58.9054 74.567 59.3468C74.1613 59.8147 74.0677 60.4232 74.177 60.8288C74.2862 61.2344 74.2256 62.7125 74.0521 63.3095ZM39.3465 62.4349C39.4741 62.445 41.4524 62.8819 43.4339 64.7072C45.4152 66.5328 47.9641 68.6079 51.3444 68.6079C60.047 68.6079 63.1549 63.3968 63.1549 63.3968C63.1549 63.3968 64.2467 63.2711 65.1983 61.7421C65.2082 61.7461 65.2243 61.7544 65.2446 61.7649L65.2452 61.7651C65.4167 61.8532 65.9223 62.1127 66.3208 61.6753C66.611 61.3563 66.0934 60.9114 65.875 60.9272C65.6565 60.9427 65.3855 60.6494 65.4634 59.9472C65.4634 59.9472 64.6439 60.372 65.0498 61.4172C65.0498 61.4172 64.0002 62.5684 61.7982 62.5684C59.5963 62.5684 53.9504 62.584 52.6395 63.2079C52.6395 63.2079 51.4484 62.5994 49.331 62.5994C49.2244 62.5994 49.1052 62.5994 48.9744 62.5996H48.9719C46.5045 62.6013 40.0222 62.6053 39.5187 62.1315C39.5187 62.1315 40.1128 61.5581 39.941 61.4801C39.7695 61.4022 38.7199 61.3029 38.4548 61.8177C38.1894 62.3326 38.8076 62.9058 39.3465 62.4349ZM42.9151 63.4599C43.461 63.6004 48.4247 63.6678 49.9946 63.6678C51.5646 63.6678 52.6473 64.3386 52.6473 64.3386C53.9422 63.4181 62.4001 63.5896 62.4001 63.5896C62.4001 63.5896 58.0165 67.2093 52.2265 67.2093C49.1665 67.2093 47.1721 66.3667 45.7822 65.2901C45.0721 64.7402 44.0836 64.1869 43.4498 63.832L43.4489 63.8315C42.9539 63.5544 42.6755 63.3984 42.9151 63.4599ZM51.2616 70.8036L51.2546 70.8006C50.9791 70.681 50.2782 70.3768 49.7998 69.4065C49.7998 69.4065 51.922 69.7508 53.0432 69.6087C54.4329 69.4329 56.4617 69.4219 56.4617 69.4219C56.4617 69.4219 56.2902 69.9368 55.2138 70.4672C55.2138 70.4672 56.4271 70.7751 57.2958 72.277C57.4217 72.4948 57.1291 72.592 56.8676 72.4177C56.6118 72.247 53.9352 70.9977 53.0139 70.9977C52.5034 70.9977 51.9825 71.4025 51.4822 71.7911L51.4817 71.7915L51.4811 71.7919C51.0193 72.1506 50.5754 72.4956 50.1742 72.4956C49.4713 72.4956 50.6625 71.0837 51.3444 70.8418C51.3254 70.8315 51.2973 70.8192 51.2616 70.8036Z" fill="#1F1F1F"/>
</g>
</g>
<defs>
<clipPath id="clip0_25_8664">
<rect width="120" height="129.93" fill="white"/>
</clipPath>
</defs>
</svg>
